<svg width="32" height="32" viewBox="0 0 32 32" fill="none" xmlns="http://www.w3.org/2000/svg">
<path d="M16.0003 2.6665C13.3632 2.6665 10.7854 3.44849 8.59273 4.91358C6.40007 6.37866 4.69111 8.46104 3.68194 10.8974C2.67277 13.3337 2.40872 16.0146 2.92319 18.601C3.43766 21.1874 4.70754 23.5632 6.57224 25.4279C8.43694 27.2926 10.8127 28.5625 13.3991 29.077C15.9855 29.5914 18.6664 29.3274 21.1028 28.3182C23.5391 27.3091 25.6215 25.6001 27.0866 23.4074C28.5517 21.2148 29.3337 18.6369 29.3337 15.9998C29.3337 12.4636 27.9289 9.07223 25.4284 6.57175C22.9279 4.07126 19.5365 2.6665 16.0003 2.6665ZM14.8892 9.33317C14.8892 9.03848 15.0063 8.75587 15.2147 8.54749C15.423 8.33912 15.7056 8.22206 16.0003 8.22206C16.295 8.22206 16.5776 8.33912 16.786 8.54749C16.9944 8.75587 17.1114 9.03848 17.1114 9.33317V18.6665C17.1114 18.9612 16.9944 19.2438 16.786 19.4522C16.5776 19.6605 16.295 19.7776 16.0003 19.7776C15.7056 19.7776 15.423 19.6605 15.2147 19.4522C15.0063 19.2438 14.8892 18.9612 14.8892 18.6665V9.33317ZM16.0003 24.148C15.7073 24.148 15.4209 24.0611 15.1773 23.8983C14.9336 23.7355 14.7437 23.5041 14.6316 23.2334C14.5195 22.9627 14.4902 22.6649 14.5473 22.3775C14.6045 22.0901 14.7456 21.8261 14.9528 21.6189C15.16 21.4117 15.4239 21.2706 15.7113 21.2135C15.9987 21.1563 16.2966 21.1857 16.5673 21.2978C16.838 21.4099 17.0693 21.5998 17.2321 21.8434C17.3949 22.0871 17.4818 22.3735 17.4818 22.6665C17.4818 23.0594 17.3257 23.4362 17.0479 23.7141C16.7701 23.9919 16.3932 24.148 16.0003 24.148Z" fill="#F9C307"/>
</svg>
