<svg width="25" height="24" viewBox="0 0 25 24" fill="none" xmlns="http://www.w3.org/2000/svg">
<path d="M12.0017 21C10.6877 21 9.45267 20.7507 8.2965 20.252C7.14033 19.7533 6.13467 19.0766 5.2795 18.2218C4.42433 17.3669 3.74725 16.3617 3.24825 15.206C2.74942 14.0503 2.5 12.8156 2.5 11.5017C2.5 10.1877 2.74933 8.95267 3.248 7.7965C3.74667 6.64033 4.42342 5.63467 5.27825 4.7795C6.13308 3.92433 7.13833 3.24725 8.294 2.74825C9.44967 2.24942 10.6844 2 11.9983 2C13.3123 2 14.5473 2.24933 15.7035 2.748C16.8597 3.24667 17.8653 3.92342 18.7205 4.77825C19.5757 5.63308 20.2528 6.63833 20.7518 7.794C21.2506 8.94967 21.5 10.1844 21.5 11.4983C21.5 12.8123 21.2507 14.0473 20.752 15.2035C20.2533 16.3597 19.5766 17.3653 18.7218 18.2205C17.8669 19.0757 16.8617 19.7528 15.706 20.2518C14.5503 20.7506 13.3156 21 12.0017 21ZM11.975 18.3078C12.157 18.3078 12.3162 18.2394 12.4528 18.1028C12.5894 17.9663 12.6578 17.807 12.6578 17.625V17.0962C13.4334 16.9911 14.1357 16.6997 14.7645 16.222C15.3933 15.7445 15.7078 15.0205 15.7078 14.05C15.7078 13.35 15.5013 12.7308 15.0885 12.1923C14.6757 11.6539 13.8692 11.1681 12.6692 10.7348C11.6179 10.3758 10.9198 10.0648 10.575 9.802C10.2302 9.53917 10.0578 9.17183 10.0578 8.7C10.0578 8.22817 10.2343 7.84483 10.5875 7.55C10.9407 7.25517 11.4282 7.10775 12.05 7.10775C12.4218 7.10775 12.7472 7.17725 13.026 7.31625C13.3048 7.45542 13.5404 7.641 13.7327 7.873C13.8546 8.02183 13.9956 8.12567 14.1557 8.1845C14.3161 8.2435 14.4678 8.241 14.611 8.177C14.8065 8.1 14.9401 7.96858 15.0117 7.78275C15.0834 7.59675 15.0654 7.42625 14.9578 7.27125C14.6911 6.89425 14.3603 6.58042 13.9653 6.32975C13.5704 6.07908 13.1512 5.93708 12.7078 5.90375V5.375C12.7078 5.193 12.6394 5.03375 12.5027 4.89725C12.3662 4.76058 12.207 4.69225 12.025 4.69225C11.843 4.69225 11.6838 4.76058 11.5473 4.89725C11.4106 5.03375 11.3422 5.193 11.3422 5.375V5.90375C10.4897 6.06792 9.835 6.41375 9.378 6.94125C8.92083 7.46892 8.69225 8.05517 8.69225 8.7C8.69225 9.45133 8.91983 10.0558 9.375 10.5135C9.83017 10.9712 10.5718 11.3846 11.6 11.7537C12.6628 12.1436 13.3888 12.4933 13.778 12.803C14.167 13.1125 14.3615 13.5282 14.3615 14.05C14.3615 14.677 14.1353 15.1324 13.6827 15.4163C13.2301 15.7003 12.7192 15.8422 12.15 15.8422C11.675 15.8422 11.2457 15.7237 10.862 15.4865C10.4783 15.2493 10.157 14.9064 9.898 14.4578C9.79683 14.2821 9.66033 14.1638 9.4885 14.103C9.31667 14.042 9.1485 14.0439 8.984 14.1088C8.80667 14.1736 8.67683 14.2967 8.5945 14.478C8.51233 14.6593 8.51158 14.8327 8.59225 14.998C8.87175 15.5583 9.2365 16.0064 9.6865 16.3422C10.1365 16.6783 10.6718 16.9129 11.2923 17.0462V17.625C11.2923 17.807 11.3606 17.9663 11.4973 18.1028C11.6338 18.2394 11.793 18.3078 11.975 18.3078Z" fill="#D5033E"/>
</svg>
