<svg width="140" height="112" viewBox="0 0 140 112" fill="none" xmlns="http://www.w3.org/2000/svg">
<path d="M108.414 101.733H32.88C32.4075 101.734 31.9454 101.593 31.5524 101.33C30.9954 100.956 30.5999 100.353 30.5061 99.6433L23.7443 48.4018C23.6569 47.7393 23.8453 47.1109 24.2149 46.625C24.6498 46.0532 25.3356 45.679 26.1182 45.679H114.351C115.068 45.679 115.704 45.9927 116.14 46.4852C116.576 46.9777 116.813 47.6489 116.73 48.3638L110.793 99.6052C110.722 100.212 110.432 100.744 110.007 101.124C109.581 101.505 109.022 101.733 108.414 101.733Z" fill="#F43F62"/>
<path d="M68.8683 14.6764L50.1196 46.8583C50.0155 47.0372 49.8373 47.1596 49.608 47.2268C49.0329 47.3952 48.1358 47.2163 47.2733 46.7089L44.8783 45.2997C44.1867 44.8928 43.6675 44.363 43.4192 43.8667C43.2342 43.4972 43.1995 43.1463 43.3555 42.8786L62.1042 10.6966C62.2869 10.383 62.6968 10.2429 63.2119 10.2699C63.727 10.297 64.3472 10.4912 64.9505 10.8461L67.3455 12.2553C68.1475 12.7272 68.7177 13.3645 68.9025 13.9231C68.9957 14.2045 68.9908 14.4661 68.8683 14.6764Z" fill="#F43F62"/>
<path d="M50.2756 43.5289C51.2297 42.5702 51.2296 41.0157 50.2756 40.0569C49.3215 39.0982 47.7747 39.0982 46.8207 40.057C45.8667 41.0158 45.8667 42.5702 46.8207 43.529C47.7748 44.4877 49.3216 44.4877 50.2756 43.5289Z" fill="white"/>
<path d="M71.3633 14.6764L90.1121 46.8583C90.2162 47.0372 90.3943 47.1596 90.6237 47.2268C91.1987 47.3952 92.0958 47.2163 92.9583 46.7089L95.3533 45.2997C96.0449 44.8928 96.5641 44.363 96.8125 43.8667C96.9974 43.4972 97.0322 43.1463 96.8762 42.8786L78.1275 10.6966C77.9448 10.383 77.5348 10.2429 77.0197 10.2699C76.5046 10.297 75.8844 10.4912 75.2812 10.8461L72.8862 12.2553C72.0841 12.7272 71.5139 13.3645 71.3291 13.9231C71.2359 14.2045 71.2408 14.4661 71.3633 14.6764Z" fill="#F43F62"/>
<path d="M93.405 43.5292C94.3591 42.5704 94.359 41.0159 93.405 40.0572C92.4509 39.0984 90.9041 39.0985 89.9501 40.0572C88.996 41.016 88.9961 42.5705 89.9501 43.5292C90.9042 44.488 92.451 44.488 93.405 43.5292Z" fill="white"/>
<path d="M43.1482 77.6107V95.5289C43.1482 95.6285 43.0859 95.7227 42.9749 95.8065C42.6966 96.0166 42.1123 96.1614 41.4366 96.1614H39.5602C39.0183 96.1614 38.5353 96.0683 38.2217 95.9231C37.9882 95.8151 37.8486 95.6781 37.8486 95.529V77.6107C37.8486 77.4361 38.0402 77.278 38.3499 77.1636C38.6596 77.0491 39.0875 76.9784 39.5602 76.9784H41.4366C42.065 76.9784 42.6144 77.1035 42.912 77.29C43.0622 77.3839 43.1482 77.4936 43.1482 77.6107ZM43.1482 54.4943V72.4126C43.1482 72.5122 43.0859 72.6064 42.9749 72.6902C42.6966 72.9003 42.1123 73.045 41.4366 73.045H39.5602C39.0183 73.045 38.5353 72.9519 38.2217 72.8067C37.9882 72.6987 37.8486 72.5616 37.8486 72.4125V54.4943C37.8486 54.3196 38.0402 54.1616 38.3499 54.0471C38.6596 53.9327 39.0875 53.8619 39.5602 53.8619H41.4366C42.065 53.8619 42.6144 53.987 42.912 54.1736C43.0622 54.2676 43.1482 54.3772 43.1482 54.4943ZM58.4603 77.6107V95.5289C58.4603 95.6285 58.398 95.7227 58.287 95.8065C58.0088 96.0166 57.4245 96.1614 56.7488 96.1614H54.8724C54.3305 96.1614 53.8475 96.0683 53.5339 95.9231C53.3004 95.8151 53.1608 95.6781 53.1608 95.529V77.6107C53.1608 77.4361 53.3524 77.278 53.6621 77.1636C53.9718 77.0491 54.3997 76.9784 54.8724 76.9784H56.7488C57.3773 76.9784 57.9266 77.1035 58.2242 77.29C58.3742 77.3839 58.4603 77.4936 58.4603 77.6107ZM58.4603 54.4943V72.4126C58.4603 72.5122 58.398 72.6064 58.287 72.6902C58.0088 72.9003 57.4245 73.045 56.7488 73.045H54.8724C54.3305 73.045 53.8475 72.9519 53.5339 72.8067C53.3004 72.6987 53.1608 72.5616 53.1608 72.4125V54.4943C53.1608 54.3196 53.3524 54.1616 53.6621 54.0471C53.9718 53.9327 54.3997 53.8619 54.8724 53.8619H56.7488C57.3773 53.8619 57.9266 53.987 58.2242 54.1736C58.3742 54.2676 58.4603 54.3772 58.4603 54.4943ZM73.7725 77.6107V95.5289C73.7725 95.6285 73.7102 95.7227 73.5992 95.8065C73.3209 96.0166 72.7366 96.1614 72.0609 96.1614H70.1845C69.6426 96.1614 69.1596 96.0683 68.846 95.9231C68.6125 95.8151 68.4729 95.6781 68.4729 95.529V77.6107C68.4729 77.4361 68.6645 77.278 68.9742 77.1636C69.2839 77.0491 69.7118 76.9784 70.1845 76.9784H72.0609C72.6893 76.9784 73.2387 77.1035 73.5363 77.29C73.6864 77.3839 73.7725 77.4936 73.7725 77.6107ZM73.7725 54.4943V72.4126C73.7725 72.5122 73.7102 72.6064 73.5992 72.6902C73.3209 72.9003 72.7366 73.045 72.0609 73.045H70.1845C69.6426 73.045 69.1596 72.9519 68.846 72.8067C68.6125 72.6987 68.4729 72.5616 68.4729 72.4125V54.4943C68.4729 54.3196 68.6645 54.1616 68.9742 54.0471C69.2839 53.9327 69.7118 53.8619 70.1845 53.8619H72.0609C72.6893 53.8619 73.2387 53.987 73.5363 54.1736C73.6864 54.2676 73.7725 54.3772 73.7725 54.4943ZM89.0845 77.6107V95.5289C89.0845 95.6285 89.0222 95.7227 88.9112 95.8065C88.633 96.0166 88.0487 96.1614 87.373 96.1614H85.4965C84.9547 96.1614 84.4717 96.0683 84.1581 95.9231C83.9245 95.8151 83.785 95.6781 83.785 95.529V77.6107C83.785 77.4361 83.9766 77.278 84.2863 77.1636C84.596 77.0491 85.0239 76.9784 85.4965 76.9784H87.3729C88.0013 76.9784 88.5507 77.1035 88.8483 77.29C88.9984 77.3839 89.0845 77.4936 89.0845 77.6107ZM89.0845 54.4943V72.4126C89.0845 72.5122 89.0222 72.6064 88.9112 72.6902C88.633 72.9003 88.0487 73.045 87.373 73.045H85.4965C84.9547 73.045 84.4717 72.9519 84.1581 72.8067C83.9245 72.6987 83.785 72.5616 83.785 72.4125V54.4943C83.785 54.3196 83.9766 54.1616 84.2863 54.0471C84.596 53.9327 85.0239 53.8619 85.4965 53.8619H87.3729C88.0013 53.8619 88.5507 53.987 88.8483 54.1736C88.9984 54.2676 89.0845 54.3772 89.0845 54.4943ZM104.397 77.6107V95.5289C104.397 95.6285 104.334 95.7227 104.223 95.8065C103.945 96.0166 103.361 96.1614 102.685 96.1614H100.809C100.267 96.1614 99.7837 96.0683 99.4701 95.9231C99.2366 95.8151 99.097 95.6781 99.097 95.529V77.6107C99.097 77.4361 99.2886 77.278 99.5983 77.1636C99.908 77.0491 100.336 76.9784 100.809 76.9784H102.685C103.313 76.9784 103.863 77.1035 104.16 77.29C104.311 77.3839 104.397 77.4936 104.397 77.6107ZM104.397 54.4943V72.4126C104.397 72.5122 104.334 72.6064 104.223 72.6902C103.945 72.9003 103.361 73.045 102.685 73.045H100.809C100.267 73.045 99.7837 72.9519 99.4701 72.8067C99.2366 72.6987 99.097 72.5616 99.097 72.4125V54.4943C99.097 54.3196 99.2886 54.1616 99.5983 54.0471C99.908 53.9327 100.336 53.8619 100.809 53.8619H102.685C103.313 53.8619 103.863 53.987 104.16 54.1736C104.311 54.2676 104.397 54.3772 104.397 54.4943Z" fill="#D5033E"/>
</svg>
