<svg width="24" height="24" viewBox="0 0 24 24" fill="none" xmlns="http://www.w3.org/2000/svg">
<path d="M5.80775 20C5.30908 20 4.88308 19.8234 4.52975 19.4703C4.17658 19.1169 4 18.6909 4 18.1923V6.50575C4 6.29175 4.03433 6.08758 4.103 5.89325C4.1715 5.69908 4.27433 5.51992 4.4115 5.35575L5.8155 3.65775C5.9795 3.44358 6.18458 3.28042 6.43075 3.16825C6.67692 3.05608 6.93717 3 7.2115 3H17.7693C18.0436 3 18.3054 3.05608 18.5548 3.16825C18.8041 3.28042 19.0108 3.44358 19.175 3.65775L20.5885 5.375C20.7257 5.53917 20.8285 5.71992 20.897 5.91725C20.9657 6.11475 21 6.32058 21 6.53475V18.1923C21 18.6909 20.8234 19.1169 20.4703 19.4703C20.1169 19.8234 19.6909 20 19.1923 20H5.80775ZM5.8905 5.904H19.1L18.0095 4.60575C17.9775 4.57375 17.9407 4.54808 17.899 4.52875C17.8573 4.50958 17.8141 4.5 17.7693 4.5H7.22125C7.17642 4.5 7.13308 4.50958 7.09125 4.52875C7.04958 4.54808 7.01275 4.57375 6.98075 4.60575L5.8905 5.904ZM16 7.40375H9V13.327C9 13.6718 9.14233 13.9321 9.427 14.1077C9.71167 14.2832 10.0046 14.2941 10.3058 14.1403L12.5 13.048L14.6943 14.1403C14.9954 14.2941 15.2883 14.2832 15.573 14.1077C15.8577 13.9321 16 13.6718 16 13.327V7.40375Z" fill="#D5033E"/>
</svg>
