<svg width="24" height="24" viewBox="0 0 24 24" fill="none" xmlns="http://www.w3.org/2000/svg">
<path fill-rule="evenodd" clip-rule="evenodd" d="M18.6 6.404H5.3905L6.48075 5.10575C6.51275 5.07375 6.54958 5.04808 6.59125 5.02875C6.63308 5.00958 6.67642 5 6.72125 5H17.2693C17.3141 5 17.3573 5.00958 17.399 5.02875C17.4407 5.04808 17.4775 5.07375 17.5095 5.10575L18.6 6.404ZM12 11.8558L10 12.8558V7.90375H13.1058H13.4365H13.748H14V12.8558L12 11.8558ZM4.031 19.969C4.385 20.323 4.81058 20.5 5.30775 20.5H12.9962C13.2087 20.5 13.3868 20.424 13.5305 20.272C13.6743 20.1202 13.7462 19.9447 13.7462 19.7458C13.7462 19.5344 13.6743 19.3573 13.5305 19.2145C13.3868 19.0715 13.2087 19 12.9962 19H5.30775C5.21792 19 5.14417 18.9712 5.0865 18.9135C5.02883 18.8558 5 18.7821 5 18.6923V7.90375H8.5V13.827C8.5 14.175 8.64233 14.436 8.927 14.61C9.21167 14.784 9.50458 14.7941 9.80575 14.6403L12 13.548L13.748 14.4173C13.9147 14.0058 14.1522 13.6231 14.4605 13.2692C14.7688 12.9154 15.1153 12.6231 15.5 12.3923V7.90375H19V10.6172C19 10.8298 19.0718 11.0079 19.2155 11.1518C19.359 11.2954 19.5371 11.3672 19.7498 11.3672C19.9622 11.3672 20.1404 11.2954 20.2843 11.1518C20.4281 11.0079 20.5 10.8298 20.5 10.6172V7.03475C20.5 6.82242 20.4657 6.61775 20.397 6.42075C20.3285 6.22375 20.2257 6.04183 20.0885 5.875L18.675 4.15775C18.5093 3.94608 18.3022 3.78358 18.0535 3.67025C17.805 3.55675 17.5431 3.5 17.2678 3.5H6.713C6.43767 3.5 6.17692 3.55675 5.93075 3.67025C5.68458 3.78358 5.4795 3.94608 5.3155 4.15775L3.9115 5.85575C3.77433 6.01992 3.6715 6.19992 3.603 6.39575C3.53433 6.59158 3.5 6.79492 3.5 7.00575V18.6923C3.5 19.1894 3.677 19.615 4.031 19.969ZM16.3963 19.6995C16.2459 19.5491 16.1708 19.3724 16.1709 19.1693C16.171 18.966 16.2462 18.7892 16.3964 18.639L17.9874 17.048L16.3964 15.457C16.2462 15.3067 16.1711 15.13 16.1712 14.9267C16.1711 14.7234 16.2462 14.5465 16.3966 14.3962C16.547 14.2458 16.7238 14.1707 16.927 14.171C17.1301 14.171 17.3068 14.2461 17.4571 14.3963L19.0481 15.9873L20.6391 14.3963C20.7893 14.2461 20.9661 14.171 21.1694 14.1711C21.3728 14.1711 21.5497 14.2463 21.7001 14.3967C21.8504 14.547 21.9254 14.7237 21.9253 14.927C21.9252 15.1301 21.85 15.3067 21.6997 15.457L20.1088 17.048L21.6997 18.639C21.85 18.7892 21.9251 18.9661 21.9251 19.1695C21.925 19.3728 21.8498 19.5496 21.6994 19.7C21.5491 19.8503 21.3724 19.9254 21.1692 19.9254C20.9661 19.9251 20.7893 19.8499 20.6391 19.6996L19.0481 18.1087L17.4571 19.6996C17.3068 19.8499 17.13 19.925 16.9266 19.925C16.7234 19.925 16.5466 19.8498 16.3963 19.6995Z" fill="#D5033E"/>
</svg>
