<svg width="24" height="25" viewBox="0 0 24 25" fill="none" xmlns="http://www.w3.org/2000/svg">
<path fill-rule="evenodd" clip-rule="evenodd" d="M17.75 3.75V5.33C18.6627 5.50422 19.4863 5.99075 20.0793 6.70606C20.6724 7.42137 20.9979 8.32082 21 9.25V9.5H3V9.25C3 8.18913 3.42143 7.17172 4.17157 6.42157C4.92172 5.67143 5.93913 5.25 7 5.25H7.25V3.75C7.25 3.55109 7.32902 3.36032 7.46967 3.21967C7.61032 3.07902 7.80109 3 8 3C8.19891 3 8.38968 3.07902 8.53033 3.21967C8.67098 3.36032 8.75 3.55109 8.75 3.75V5.25H16.25V3.75C16.25 3.55109 16.329 3.36032 16.4697 3.21967C16.6103 3.07902 16.8011 3 17 3C17.1989 3 17.3897 3.07902 17.5303 3.21967C17.671 3.36032 17.75 3.55109 17.75 3.75ZM4.17157 21.3284C3.42143 20.5783 3 19.5609 3 18.5V11H21V18.5C21 19.5609 20.5786 20.5783 19.8284 21.3284C19.0783 22.0786 18.0609 22.5 17 22.5H7C5.93913 22.5 4.92172 22.0786 4.17157 21.3284ZM16.5556 13.6685C16.3911 13.5586 16.1978 13.5 16 13.5C15.7348 13.5 15.4804 13.6054 15.2929 13.7929C15.1054 13.9804 15 14.2348 15 14.5C15 14.6978 15.0586 14.8911 15.1685 15.0556C15.2784 15.22 15.4346 15.3482 15.6173 15.4239C15.8 15.4996 16.0011 15.5194 16.1951 15.4808C16.3891 15.4422 16.5673 15.347 16.7071 15.2071C16.847 15.0673 16.9422 14.8891 16.9808 14.6951C17.0194 14.5011 16.9996 14.3 16.9239 14.1173C16.8482 13.9346 16.72 13.7784 16.5556 13.6685ZM16.5556 17.6685C16.3911 17.5586 16.1978 17.5 16 17.5C15.7348 17.5 15.4804 17.6054 15.2929 17.7929C15.1054 17.9804 15 18.2348 15 18.5C15 18.6978 15.0586 18.8911 15.1685 19.0556C15.2784 19.22 15.4346 19.3482 15.6173 19.4239C15.8 19.4996 16.0011 19.5194 16.1951 19.4808C16.3891 19.4422 16.5673 19.347 16.7071 19.2071C16.847 19.0673 16.9422 18.8891 16.9808 18.6951C17.0194 18.5011 16.9996 18.3 16.9239 18.1173C16.8482 17.9346 16.72 17.7784 16.5556 17.6685ZM12.5556 13.6685C12.3911 13.5586 12.1978 13.5 12 13.5C11.7348 13.5 11.4804 13.6054 11.2929 13.7929C11.1054 13.9804 11 14.2348 11 14.5C11 14.6978 11.0586 14.8911 11.1685 15.0556C11.2784 15.22 11.4346 15.3482 11.6173 15.4239C11.8 15.4996 12.0011 15.5194 12.1951 15.4808C12.3891 15.4422 12.5673 15.347 12.7071 15.2071C12.847 15.0673 12.9422 14.8891 12.9808 14.6951C13.0194 14.5011 12.9996 14.3 12.9239 14.1173C12.8482 13.9346 12.72 13.7784 12.5556 13.6685ZM12.5556 17.6685C12.3911 17.5586 12.1978 17.5 12 17.5C11.7348 17.5 11.4804 17.6054 11.2929 17.7929C11.1054 17.9804 11 18.2348 11 18.5C11 18.6978 11.0586 18.8911 11.1685 19.0556C11.2784 19.22 11.4346 19.3482 11.6173 19.4239C11.8 19.4996 12.0011 19.5194 12.1951 19.4808C12.3891 19.4422 12.5673 19.347 12.7071 19.2071C12.847 19.0673 12.9422 18.8891 12.9808 18.6951C13.0194 18.5011 12.9996 18.3 12.9239 18.1173C12.8482 17.9346 12.72 17.7784 12.5556 17.6685ZM8.55557 13.6685C8.39112 13.5586 8.19778 13.5 8 13.5C7.73478 13.5 7.48043 13.6054 7.29289 13.7929C7.10536 13.9804 7 14.2348 7 14.5C7 14.6978 7.05865 14.8911 7.16853 15.0556C7.27841 15.22 7.43459 15.3482 7.61732 15.4239C7.80004 15.4996 8.00111 15.5194 8.19509 15.4808C8.38907 15.4422 8.56725 15.347 8.70711 15.2071C8.84696 15.0673 8.9422 14.8891 8.98079 14.6951C9.01937 14.5011 8.99957 14.3 8.92388 14.1173C8.84819 13.9346 8.72002 13.7784 8.55557 13.6685ZM8.55557 17.6685C8.39112 17.5586 8.19778 17.5 8 17.5C7.73478 17.5 7.48043 17.6054 7.29289 17.7929C7.10536 17.9804 7 18.2348 7 18.5C7 18.6978 7.05865 18.8911 7.16853 19.0556C7.27841 19.22 7.43459 19.3482 7.61732 19.4239C7.80004 19.4996 8.00111 19.5194 8.19509 19.4808C8.38907 19.4422 8.56725 19.347 8.70711 19.2071C8.84696 19.0673 8.9422 18.8891 8.98079 18.6951C9.01937 18.5011 8.99957 18.3 8.92388 18.1173C8.84819 17.9346 8.72002 17.7784 8.55557 17.6685Z" fill="#D5033E"/>
</svg>
