<svg width="25" height="25" viewBox="0 0 25 25" fill="none" xmlns="http://www.w3.org/2000/svg">
<path d="M7.5 7.5H7.50897M13.491 7.5H13.5" stroke="#1F1E1E" stroke-width="2" stroke-linecap="round" stroke-linejoin="round"/>
<path d="M18.491 15H18.5M14.5 15H14.509" stroke="#1F1E1E" stroke-width="2" stroke-linecap="round" stroke-linejoin="round"/>
<path d="M10.5 16.5C10.5 19.2614 13.1863 21.5 16.5 21.5C17.4072 21.5 18.2673 21.3322 19.0382 21.0319C19.2266 20.9585 19.4312 20.9321 19.63 20.9689L22.5 21.5L21.8483 19.4702C21.7531 19.1738 21.8075 18.8533 21.9575 18.5805C22.3058 17.947 22.5 17.2424 22.5 16.5C22.5 13.7386 19.8137 11.5 16.5 11.5C13.1863 11.5 10.5 13.7386 10.5 16.5Z" stroke="#1F1E1E" stroke-width="1.5" stroke-linejoin="round"/>
<path d="M18.3731 11.7485C18.4565 11.3434 18.5 10.9261 18.5 10.5C18.5 6.63401 14.9183 3.5 10.5 3.5C6.08172 3.5 2.5 6.63401 2.5 10.5C2.5 11.6124 2.79653 12.6641 3.3242 13.5981C3.47102 13.858 3.51971 14.1653 3.43243 14.4507L2.5 17.5L6.41414 16.7394C6.62183 16.699 6.83621 16.7273 7.03119 16.8094C8.11561 17.2662 9.34138 17.5157 10.6198 17.4992" stroke="#1F1E1E" stroke-width="1.5" stroke-linejoin="round"/>
</svg>
