<svg width="20" height="20" viewBox="0 0 20 20" fill="none" xmlns="http://www.w3.org/2000/svg">
<g clip-path="url(#clip0_10334_98921)">
<path d="M15.0013 6.66687H8.33464C7.41416 6.66687 6.66797 7.41306 6.66797 8.33354V15.0002C6.66797 15.9207 7.41416 16.6669 8.33464 16.6669H15.0013C15.9218 16.6669 16.668 15.9207 16.668 15.0002V8.33354C16.668 7.41306 15.9218 6.66687 15.0013 6.66687Z" stroke="#B8B8B8" stroke-width="1.5" stroke-linecap="round" stroke-linejoin="round"/>
<path d="M13.332 6.66646V4.9998C13.332 4.55777 13.1564 4.13385 12.8439 3.82129C12.5313 3.50872 12.1074 3.33313 11.6654 3.33313H4.9987C4.55667 3.33313 4.13275 3.50872 3.82019 3.82129C3.50763 4.13385 3.33203 4.55777 3.33203 4.9998V11.6665C3.33203 12.1085 3.50763 12.5324 3.82019 12.845C4.13275 13.1575 4.55667 13.3331 4.9987 13.3331H6.66536" stroke="#B8B8B8" stroke-width="1.5" stroke-linecap="round" stroke-linejoin="round"/>
</g>
<defs>
<clipPath id="clip0_10334_98921">
<rect width="20" height="20" fill="white"/>
</clipPath>
</defs>
</svg>
