<svg width="24" height="24" viewBox="0 0 24 24" fill="none" xmlns="http://www.w3.org/2000/svg">
<path d="M12 2C10.0222 2 8.08879 2.58649 6.4443 3.6853C4.79981 4.78412 3.51809 6.3459 2.76121 8.17316C2.00433 10.0004 1.8063 12.0111 2.19215 13.9509C2.578 15.8907 3.53041 17.6725 4.92894 19.0711C6.32746 20.4696 8.10929 21.422 10.0491 21.8078C11.9889 22.1937 13.9996 21.9957 15.8268 21.2388C17.6541 20.4819 19.2159 19.2002 20.3147 17.5557C21.4135 15.9112 22 13.9778 22 12C22 9.34783 20.9464 6.80429 19.0711 4.92893C17.1957 3.05357 14.6522 2 12 2ZM15.3333 14.2222C15.47 14.375 15.5455 14.5728 15.5455 14.7778C15.5455 14.9828 15.47 15.1805 15.3333 15.3333C15.1806 15.47 14.9828 15.5455 14.7778 15.5455C14.5728 15.5455 14.375 15.47 14.2222 15.3333L12 13.1111L9.77778 15.3333C9.625 15.47 9.42721 15.5455 9.22223 15.5455C9.01724 15.5455 8.81945 15.47 8.66667 15.3333C8.53002 15.1805 8.45447 14.9828 8.45447 14.7778C8.45447 14.5728 8.53002 14.375 8.66667 14.2222L10.8889 12L8.66667 9.77778C8.53002 9.62499 8.45447 9.4272 8.45447 9.22222C8.45447 9.01724 8.53002 8.81945 8.66667 8.66667C8.81831 8.52768 9.01653 8.45058 9.22223 8.45058C9.42792 8.45058 9.62614 8.52768 9.77778 8.66667L12 10.8889L14.2222 8.66667C14.3739 8.52768 14.5721 8.45058 14.7778 8.45058C14.9835 8.45058 15.1817 8.52768 15.3333 8.66667C15.47 8.81945 15.5455 9.01724 15.5455 9.22222C15.5455 9.4272 15.47 9.62499 15.3333 9.77778L13.1111 12L15.3333 14.2222Z" fill="#7D828C"/>
</svg>
