<svg width="24" height="24" viewBox="0 0 24 24" fill="none" xmlns="http://www.w3.org/2000/svg">
<path d="M13.95 7.3125H16.2288C16.4673 7.3125 16.5865 7.3125 16.6988 7.3384C16.7982 7.36137 16.8933 7.39925 16.9806 7.45065C17.079 7.50863 17.1633 7.5897 17.3319 7.75184L21.2931 11.5607C21.4617 11.7228 21.546 11.8039 21.6063 11.8985C21.6598 11.9824 21.6992 12.0738 21.7231 12.1695C21.75 12.2774 21.75 12.392 21.75 12.6213V15.2812C21.75 15.7181 21.75 15.9365 21.6758 16.1088C21.5768 16.3385 21.387 16.521 21.1481 16.6161C20.9689 16.6875 20.7418 16.6875 20.2875 16.6875M15.4125 16.6875H13.95M13.95 16.6875V7.5C13.95 6.4499 13.95 5.92485 13.7375 5.52377C13.5505 5.17096 13.2522 4.88413 12.8853 4.70436C12.4682 4.5 11.9221 4.5 10.83 4.5H5.37C4.2779 4.5 3.73185 4.5 3.31472 4.70436C2.9478 4.88413 2.64949 5.17096 2.46254 5.52377C2.25 5.92485 2.25 6.4499 2.25 7.5V14.8125C2.25 15.848 3.12304 16.6875 4.2 16.6875M13.95 16.6875H10.05M10.05 16.6875C10.05 18.2408 8.74043 19.5 7.125 19.5C5.50957 19.5 4.2 18.2408 4.2 16.6875M10.05 16.6875C10.05 15.1342 8.74043 13.875 7.125 13.875C5.50957 13.875 4.2 15.1342 4.2 16.6875M20.2875 17.1562C20.2875 18.4507 19.1962 19.5 17.85 19.5C16.5038 19.5 15.4125 18.4507 15.4125 17.1562C15.4125 15.8618 16.5038 14.8125 17.85 14.8125C19.1962 14.8125 20.2875 15.8618 20.2875 17.1562Z" stroke="#D5033E" stroke-width="1.6" stroke-linecap="round" stroke-linejoin="round"/>
</svg>
