<svg width="40" height="40" viewBox="0 0 40 40" fill="none" xmlns="http://www.w3.org/2000/svg">
<path d="M20 40C31.0457 40 40 31.0457 40 20C40 8.95431 31.0457 0 20 0C8.9543 0 0 8.95431 0 20C0 31.0457 8.9543 40 20 40Z" fill="#70BC2D"/>
<path d="M16.408 28.0551C16.3323 28.0753 16.2535 28.0855 16.174 28.0855C15.9345 28.0855 15.7045 27.9903 15.5352 27.8211L8.81835 21.1042C8.46582 20.7517 8.46582 20.1792 8.81835 19.8267C9.17089 19.4742 9.74337 19.4734 10.0959 19.8267L16.174 25.9048L29.9025 12.1763C30.255 11.8237 30.8275 11.8237 31.18 12.1763C31.5326 12.5288 31.5326 13.1013 31.18 13.4538L16.8127 27.8211C16.6997 27.9342 16.5593 28.0145 16.408 28.0551Z" fill="white"/>
</svg>
