<svg width="120" height="96" viewBox="0 0 120 96" fill="none" xmlns="http://www.w3.org/2000/svg">
<path fill-rule="evenodd" clip-rule="evenodd" d="M8.36301 9.02997H111.335C112.645 9.02997 113.706 10.095 113.706 11.4087V84.9112C113.706 86.2256 112.645 87.29 111.335 87.29H8.36301C7.05356 87.29 5.99219 86.2256 5.99219 84.9112V11.4087C5.99219 10.095 7.05356 9.02997 8.36301 9.02997Z" fill="#F7D5DE"/>
<path fill-rule="evenodd" clip-rule="evenodd" d="M12.1608 23.3023H108.328C109.113 23.3023 109.75 23.9413 109.75 24.7295V81.1053C109.75 81.8935 109.113 82.5325 108.328 82.5325H12.1608C11.3751 82.5325 10.7383 81.8935 10.7383 81.1053V24.7295C10.7383 23.9413 11.3751 23.3023 12.1608 23.3023Z" fill="white"/>
<path fill-rule="evenodd" clip-rule="evenodd" d="M20.0196 31.2314H74.7768C75.5405 31.2314 76.1588 31.8526 76.1588 32.6189C76.1588 33.3853 75.5405 34.0066 74.7768 34.0066H20.0196C19.2558 34.0066 18.6367 33.3853 18.6367 32.6189C18.6367 31.8526 19.2558 31.2314 20.0196 31.2314ZM81.4631 31.2314H100.46C101.224 31.2314 101.843 31.8526 101.843 32.6189C101.843 33.3853 101.224 34.0066 100.46 34.0066H81.4631C80.6994 34.0066 80.0811 33.3853 80.0811 32.6189C80.0811 31.8526 80.6994 31.2314 81.4631 31.2314ZM67.6289 71.6697H100.46C101.224 71.6697 101.843 72.2909 101.843 73.0572C101.843 73.8236 101.224 74.4449 100.46 74.4449H67.6289C66.8652 74.4449 66.2456 73.8236 66.2456 73.0572C66.2456 72.2909 66.8652 71.6697 67.6289 71.6697ZM20.0196 37.9711H100.46C101.224 37.9711 101.843 38.5924 101.843 39.3588C101.843 40.125 101.224 40.7463 100.46 40.7463H20.0196C19.2558 40.7463 18.6367 40.125 18.6367 39.3588C18.6367 38.5924 19.2558 37.9711 20.0196 37.9711ZM20.0196 44.7108H88.6059C89.3696 44.7108 89.9892 45.3321 89.9892 46.0983C89.9892 46.8647 89.3696 47.486 88.6059 47.486H20.0196C19.2558 47.486 18.6367 46.8647 18.6367 46.0983C18.6367 45.3321 19.2558 44.7108 20.0196 44.7108ZM20.0196 51.4505H100.46C101.224 51.4505 101.843 52.0718 101.843 52.8382C101.843 53.6045 101.224 54.2257 100.46 54.2257H20.0196C19.2558 54.2257 18.6367 53.6045 18.6367 52.8382C18.6367 52.0718 19.2558 51.4505 20.0196 51.4505ZM20.0196 58.1903H90.5822C91.3459 58.1903 91.9642 58.8115 91.9642 59.5778C91.9642 60.3442 91.3459 60.9654 90.5822 60.9654H20.0196C19.2558 60.9654 18.6367 60.3442 18.6367 59.5778C18.6367 58.8115 19.2558 58.1903 20.0196 58.1903ZM20.0196 64.93H100.46C101.224 64.93 101.843 65.5512 101.843 66.3176C101.843 67.0839 101.224 67.7051 100.46 67.7051H20.0196C19.2558 67.7051 18.6367 67.0839 18.6367 66.3176C18.6367 65.5512 19.2558 64.93 20.0196 64.93ZM20.0196 71.6697H60.9463C61.7101 71.6697 62.3296 72.2909 62.3296 73.0572C62.3296 73.8236 61.7101 74.4449 60.9463 74.4449H20.0196C19.2558 74.4449 18.6367 73.8236 18.6367 73.0572C18.6367 72.2909 19.2558 71.6697 20.0196 71.6697Z" fill="#F7D5DE"/>
<path d="M62.2299 63.6809L74.2383 73.6707C75.0779 74.3695 76.3246 74.2528 77.0201 73.41C77.7168 72.5673 77.6004 71.3176 76.7608 70.6189L64.7525 60.6289C63.9129 59.9301 62.6674 60.0468 61.9707 60.8896C61.274 61.7323 61.3903 62.9821 62.2299 63.6809Z" fill="#F43F62"/>
<path d="M66.6223 68.6254L73.6045 74.4336C74.8639 75.4817 76.7327 75.3067 77.7771 74.0424C78.8216 72.7784 78.6471 70.9038 77.3877 69.8556L70.4055 64.0475C69.1461 62.9993 67.2772 63.1744 66.2328 64.4386C65.1884 65.7027 65.3629 67.5773 66.6223 68.6254ZM52.0281 67.7051C60.7578 67.7051 67.8336 60.6053 67.8336 51.847C67.8336 43.0887 60.7578 35.9888 52.0281 35.9888C43.2984 35.9888 36.2227 43.0887 36.2227 51.847C36.2227 60.6053 43.2984 67.7051 52.0281 67.7051Z" fill="#D5033E"/>
<path d="M52.026 63.7406C45.4787 63.7406 40.1719 58.4157 40.1719 51.847C40.1719 45.2783 45.4787 39.9534 52.026 39.9534C58.5732 39.9534 63.8801 45.2783 63.8801 51.847C63.8801 58.4157 58.5732 63.7406 52.026 63.7406Z" fill="#F5F5F5"/>
<path d="M59.6366 60.9654L44.4141 60.9653C43.4721 60.1732 42.6552 59.2369 41.9965 58.1903H62.0542C61.3955 59.2369 60.5786 60.1732 59.6366 60.9654ZM63.8801 51.8469C63.8801 52.6616 63.7979 53.4572 63.6424 54.2257H40.4096C40.2541 53.4572 40.1719 52.6616 40.1719 51.8469C40.1719 51.7143 40.1744 51.5821 40.1782 51.4505H63.8738C63.8775 51.5821 63.8801 51.7143 63.8801 51.8469ZM63.0569 47.4861H40.9938C41.3857 46.4879 41.9092 45.5557 42.5414 44.7108H61.5093C62.1427 45.5557 62.665 46.4879 63.0569 47.4861Z" fill="#E9A6B7"/>
<path fill-rule="evenodd" clip-rule="evenodd" d="M8.36301 9.02997H111.335C112.645 9.02997 113.706 10.095 113.706 11.4087V18.5449H5.99219V11.4087C5.99219 10.095 7.05356 9.02997 8.36301 9.02997Z" fill="#F43F62"/>
<path d="M11.6817 15.6904C12.7293 15.6904 13.5785 14.8384 13.5785 13.7874C13.5785 12.7365 12.7293 11.8845 11.6817 11.8845C10.6342 11.8845 9.78516 12.7365 9.78516 13.7874C9.78516 14.8384 10.6342 15.6904 11.6817 15.6904ZM17.8458 15.6904C18.8934 15.6904 19.7425 14.8384 19.7425 13.7874C19.7425 12.7365 18.8934 11.8845 17.8458 11.8845C16.7984 11.8845 15.9493 12.7365 15.9493 13.7874C15.9493 14.8384 16.7984 15.6904 17.8458 15.6904ZM24.01 15.6904C25.0575 15.6904 25.9067 14.8384 25.9067 13.7874C25.9067 12.7365 25.0575 11.8845 24.01 11.8845C22.9625 11.8845 22.1134 12.7365 22.1134 13.7874C22.1134 14.8384 22.9625 15.6904 24.01 15.6904Z" fill="white"/>
</svg>
