<svg width="24" height="24" viewBox="0 0 24 24" fill="none" xmlns="http://www.w3.org/2000/svg">
<path fill-rule="evenodd" clip-rule="evenodd" d="M11.9992 3.80001C7.47048 3.80001 3.79922 7.47128 3.79922 12C3.79922 16.5287 7.47048 20.2 11.9992 20.2C16.528 20.2 20.1992 16.5287 20.1992 12C20.1992 7.47128 16.528 3.80001 11.9992 3.80001ZM2.19922 12C2.19922 6.58762 6.58683 2.20001 11.9992 2.20001C17.4116 2.20001 21.7992 6.58762 21.7992 12C21.7992 17.4124 17.4116 21.8 11.9992 21.8C6.58683 21.8 2.19922 17.4124 2.19922 12ZM11.9992 7.20001C12.441 7.20001 12.7992 7.55818 12.7992 8.00001V12C12.7992 12.4418 12.441 12.8 11.9992 12.8C11.5574 12.8 11.1992 12.4418 11.1992 12V8.00001C11.1992 7.55818 11.5574 7.20001 11.9992 7.20001ZM11.9992 15.2C11.5574 15.2 11.1992 15.5582 11.1992 16C11.1992 16.4418 11.5574 16.8 11.9992 16.8H12.0092C12.451 16.8 12.8092 16.4418 12.8092 16C12.8092 15.5582 12.451 15.2 12.0092 15.2H11.9992Z" fill="#D5033E"/>
</svg>
