<svg width="24" height="24" viewBox="0 0 24 24" fill="none" xmlns="http://www.w3.org/2000/svg">
<path fill-rule="evenodd" clip-rule="evenodd" d="M11.998 18.2001C8.48969 18.2001 5.45847 16.2405 2.92451 12.0001C5.45847 7.75966 8.48969 5.80007 11.998 5.80007C15.5063 5.80007 18.5375 7.75966 21.0715 12.0001C18.5375 16.2405 15.5063 18.2001 11.998 18.2001ZM11.998 4.20007C7.61399 4.20007 4.05716 6.78435 1.30341 11.6031C1.16286 11.8491 1.16286 12.151 1.30341 12.397C4.05716 17.2158 7.61399 19.8001 11.998 19.8001C16.382 19.8001 19.9388 17.2158 22.6926 12.397C22.8331 12.151 22.8331 11.8491 22.6926 11.6031C19.9388 6.78435 16.382 4.20007 11.998 4.20007ZM10.8019 12C10.8019 11.3372 11.3392 10.8 12.0019 10.8C12.6646 10.8 13.2019 11.3372 13.2019 12C13.2019 12.6627 12.6646 13.2 12.0019 13.2C11.3392 13.2 10.8019 12.6627 10.8019 12ZM12.0019 9.19995C10.4555 9.19995 9.2019 10.4536 9.2019 12C9.2019 13.5463 10.4555 14.8 12.0019 14.8C13.5483 14.8 14.8019 13.5463 14.8019 12C14.8019 10.4536 13.5483 9.19995 12.0019 9.19995Z" fill="#D4033E"/>
</svg>
