<svg width="146" height="145" viewBox="0 0 146 145" fill="none" xmlns="http://www.w3.org/2000/svg">
<g clip-path="url(#clip0_9980_31953)">
<path d="M73 145C113.041 145 145.5 112.541 145.5 72.5C145.5 32.4594 113.041 0 73 0C32.9594 0 0.5 32.4594 0.5 72.5C0.5 112.541 32.9594 145 73 145Z" fill="#F5F5F5"/>
<path d="M73.0008 132.672C106.233 132.672 133.173 105.732 133.173 72.5001C133.173 39.2677 106.233 12.3276 73.0008 12.3276C39.7685 12.3276 12.8284 39.2677 12.8284 72.5001C12.8284 105.732 39.7685 132.672 73.0008 132.672Z" fill="#EFEFEF"/>
<path d="M116.382 61.1442L114.248 74.38L113.839 76.9204C113.839 78.8873 109.637 104.798 107.46 104.798L73.0419 81.0164L34.8435 107.519C32.6677 107.519 30.3796 79.6366 30.3796 77.6697L30.2277 74.38L29.6182 61.1827L35.759 55.8763L70.5867 25.78C71.3059 25.2751 72.1632 25.0042 73.0419 25.0042C73.9206 25.0042 74.778 25.2751 75.4972 25.78L110.292 55.8763L116.382 61.1442Z" fill="#F43F62"/>
<path d="M106.942 40.9561H39.4209V104.61H106.942V40.9561Z" fill="white"/>
<path d="M73.0469 95.7782L29.6182 61.1826V119.996H116.382V61.1826L73.0469 95.7782Z" fill="#F43F62"/>
<path d="M29.6182 61.1826V119.996L66.5331 90.5893L29.6182 61.1826Z" fill="#D5033E"/>
<path d="M116.382 61.1826V119.996L79.4668 90.5893L116.382 61.1826Z" fill="#D5033E"/>
<path d="M73.1804 79.0524C79.9349 79.0524 85.4105 73.5767 85.4105 66.8222C85.4105 60.0677 79.9349 54.592 73.1804 54.592C66.4258 54.592 60.9502 60.0677 60.9502 66.8222C60.9502 73.5767 66.4258 79.0524 73.1804 79.0524Z" fill="#F43F62"/>
<path d="M73.1808 82.8424C64.3471 82.8424 57.1604 75.6556 57.1604 66.8219C57.1604 57.9882 64.3471 50.8015 73.1808 50.8015C82.0145 50.8015 89.2013 57.9882 89.2013 66.8219C89.2013 75.6556 82.0145 82.8424 73.1808 82.8424ZM73.1808 52.6084C65.3435 52.6084 58.9673 58.9846 58.9673 66.8219C58.9673 74.6593 65.3435 81.0355 73.1808 81.0355C81.0182 81.0355 87.3943 74.6593 87.3943 66.8219C87.3943 58.9846 81.0182 52.6084 73.1808 52.6084Z" fill="#F43F62"/>
<path d="M73.172 70.355C72.9815 70.3534 72.7926 70.3897 72.6162 70.4616C72.4398 70.5335 72.2794 70.6397 72.1443 70.774C72.0092 70.9084 71.9021 71.0682 71.8292 71.2442C71.7563 71.4202 71.719 71.6089 71.7195 71.7994C71.7195 72.2532 71.8709 72.6146 72.1693 72.8735C72.4504 73.1216 72.8136 73.2565 73.1884 73.2519C73.5611 73.2557 73.9214 73.1185 74.1971 72.8678C74.4916 72.6062 74.6409 72.2467 74.6409 71.7994C74.6435 71.6081 74.6065 71.4184 74.5322 71.2421C74.4579 71.0658 74.3479 70.9068 74.2091 70.7752C74.0732 70.6393 73.9113 70.5321 73.7332 70.4599C73.555 70.3878 73.3642 70.3521 73.172 70.355ZM72.0562 67.6488L72.0568 67.6554C72.1089 68.194 72.1957 68.589 72.3221 68.8629C72.4738 69.1916 72.7563 69.3653 73.1392 69.3653C73.3117 69.372 73.4822 69.3271 73.6289 69.2362C73.7756 69.1452 73.8918 69.0125 73.9625 68.8551C74.1017 68.5702 74.1894 68.1819 74.2301 67.6697L74.5825 63.6307C74.6209 63.2581 74.6404 62.8837 74.6409 62.5092C74.6409 61.8566 74.5558 61.3647 74.3806 61.0053C74.2443 60.7258 73.9353 60.3925 73.2376 60.3925C73.0324 60.3853 72.8281 60.4218 72.6382 60.4997C72.4483 60.5776 72.2772 60.6951 72.1362 60.8443C71.8596 61.1398 71.7195 61.5482 71.7195 62.0582C71.7195 62.3949 71.7444 62.9542 71.7938 63.7211L72.0562 67.6488Z" fill="white"/>
</g>
<defs>
<clipPath id="clip0_9980_31953">
<rect width="145" height="145" fill="white" transform="translate(0.5)"/>
</clipPath>
</defs>
</svg>
