<svg width="24" height="24" viewBox="0 0 24 24" fill="none" xmlns="http://www.w3.org/2000/svg">
<path d="M12.0002 21.5C9.71057 21.5 7.69841 20.791 5.96374 19.373C4.22907 17.955 3.13866 16.1499 2.69249 13.9578C2.64516 13.7449 2.68557 13.5548 2.81374 13.3875C2.94191 13.2202 3.11241 13.1231 3.32524 13.0963C3.53807 13.0693 3.72557 13.1198 3.88774 13.248C4.04991 13.3762 4.15982 13.5467 4.21749 13.7595C4.62266 15.5737 5.54732 17.0673 6.99149 18.2405C8.43582 19.4135 10.1054 20 12.0002 20C14.2336 20 16.1252 19.225 17.6752 17.675C19.2252 16.125 20.0002 14.2333 20.0002 12C20.0002 9.76667 19.2252 7.875 17.6752 6.325C16.1252 4.775 14.2336 4 12.0002 4C10.4964 4 9.11274 4.38625 7.84924 5.15875C6.58574 5.93108 5.61174 6.99033 4.92724 8.3365H7.13499C7.34732 8.3365 7.52541 8.40842 7.66924 8.55225C7.81291 8.69608 7.88474 8.87433 7.88474 9.087C7.88474 9.2995 7.81291 9.47758 7.66924 9.62125C7.52541 9.76475 7.34732 9.8365 7.13499 9.8365H4.04749C3.71466 9.8365 3.44982 9.70192 3.25299 9.43275C3.05632 9.16342 3.01632 8.87817 3.13299 8.577C3.82649 6.76417 4.97874 5.29808 6.58974 4.17875C8.20057 3.05958 10.0041 2.5 12.0002 2.5C13.3144 2.5 14.5494 2.74933 15.7052 3.248C16.8611 3.74667 17.8665 4.42342 18.7215 5.27825C19.5765 6.13308 20.2533 7.13833 20.752 8.294C21.2508 9.44967 21.5002 10.6844 21.5002 11.9983C21.5002 13.3123 21.2508 14.5473 20.752 15.7035C20.2533 16.8597 19.5765 17.8653 18.7215 18.7205C17.8665 19.5757 16.8611 20.2528 15.7052 20.7518C14.5494 21.2506 13.3144 21.5 12.0002 21.5ZM12.7502 11.6962L15.2502 14.2058C15.3887 14.3421 15.458 14.5156 15.458 14.7262C15.458 14.9369 15.3887 15.1131 15.2502 15.2548C15.1117 15.3964 14.9361 15.4657 14.7232 15.4625C14.5104 15.4593 14.3348 15.3885 14.1965 15.25L11.5242 12.5778C11.4287 12.4823 11.3592 12.3793 11.3157 12.269C11.2721 12.1587 11.2502 12.0447 11.2502 11.927V8.1155C11.2502 7.903 11.3222 7.72483 11.466 7.581C11.6098 7.43733 11.788 7.3655 12.0005 7.3655C12.2132 7.3655 12.3912 7.43733 12.5347 7.581C12.6784 7.72483 12.7502 7.903 12.7502 8.1155V11.6962Z" fill="#D5033E"/>
</svg>
