<svg width="158" height="44" viewBox="0 0 158 44" fill="none" xmlns="http://www.w3.org/2000/svg">
<path d="M21.9911 18.9524C21.9911 16.5855 21.3085 13.4195 19.6019 11.7459C17.8954 10.0722 15.3048 8.96508 12.8914 8.96508C10.4779 8.96508 7.71073 10.0722 6.00419 11.7459C4.29765 13.4195 3.79158 16.5855 3.79158 18.9524V30.8516H21.9911V18.9524ZM25.0244 31.8437L25.631 32.6364C25.7155 32.7469 25.767 32.8783 25.7796 33.0159C25.7923 33.1534 25.7656 33.2917 25.7027 33.4153C25.6397 33.5388 25.5429 33.6427 25.4231 33.7153C25.3033 33.7879 25.1652 33.8264 25.0244 33.8264H0.758315C0.617487 33.8264 0.479441 33.7879 0.359646 33.7153C0.23985 33.6427 0.143038 33.5388 0.0800577 33.4153C0.0170774 33.2917 -0.00958268 33.1534 0.00306448 33.0159C0.0157116 32.8783 0.0671663 32.7469 0.151663 32.6364L0.758315 31.8437V18.9524C0.758315 15.7966 1.51619 11.1966 3.79158 8.96508C6.06696 6.73356 9.67347 4.96771 12.8914 4.96771C16.1092 4.96771 19.7157 6.73356 21.9911 8.96508C24.2665 11.1966 25.0244 15.7966 25.0244 18.9524V31.8437ZM9.09978 35.3138H16.6829C16.6829 36.3 16.2835 37.2458 15.5724 37.9431C14.8613 38.6405 13.8969 39.0322 12.8914 39.0322C11.8858 39.0322 10.9214 38.6405 10.2103 37.9431C9.49925 37.2458 9.09978 36.3 9.09978 35.3138Z" fill="#D5033E"/>
<path d="M8.47703 20.5742C8.47703 21.4405 7.76546 22.1428 6.88768 22.1428C6.00991 22.1428 5.29834 21.4405 5.29834 20.5742C5.29834 19.7079 6.00991 19.0056 6.88768 19.0056C7.76546 19.0056 8.47703 19.7079 8.47703 20.5742Z" fill="#D5033E"/>
<path d="M34.4388 33.2435V32.1007C35.0757 32.0816 35.5872 32.034 35.9732 31.9578C36.3785 31.8626 36.6873 31.7007 36.8996 31.4721C37.1312 31.2245 37.2856 30.9007 37.3628 30.5007C37.44 30.0816 37.4786 29.5292 37.4786 28.8435V15.6436C37.4786 14.9769 37.4496 14.4436 37.3917 14.0436C37.3338 13.6245 37.2084 13.3007 37.0154 13.0721C36.8224 12.8245 36.5522 12.6626 36.2048 12.5864C35.8767 12.4912 35.4424 12.4245 34.902 12.3864V11.2436H45.903C47.7557 11.2436 49.4638 11.5293 51.0271 12.1007C52.5904 12.6721 53.9413 13.4626 55.08 14.4721C56.2187 15.4817 57.1065 16.6817 57.7434 18.0721C58.3803 19.4626 58.6988 20.9769 58.6988 22.615C58.6988 24.1769 58.3996 25.615 57.8013 26.9293C57.203 28.2245 56.3635 29.3388 55.2827 30.2721C54.2212 31.2054 52.9378 31.9388 51.4324 32.4721C49.9463 32.9864 48.3058 33.2435 46.5109 33.2435H34.4388ZM42.2263 12.9864C41.8982 12.9864 41.7342 13.1483 41.7342 13.4721V28.2435C41.7342 29.3483 42.0816 30.1673 42.7764 30.7007C43.4712 31.234 44.5423 31.5007 45.9898 31.5007C48.5181 31.5007 50.4577 30.7483 51.8087 29.2435C53.179 27.7388 53.8642 25.5483 53.8642 22.6721C53.8642 21.1483 53.6808 19.7864 53.3141 18.5864C52.9474 17.3864 52.4167 16.3769 51.7219 15.5579C51.0271 14.7198 50.1779 14.0817 49.1743 13.6436C48.19 13.2055 47.0803 12.9864 45.8451 12.9864H42.2263Z" fill="#121212"/>
<path d="M67.469 28.5578C67.469 29.3197 67.4979 29.9292 67.5558 30.3864C67.6137 30.8435 67.7295 31.1959 67.9032 31.4435C68.0769 31.6911 68.3278 31.8626 68.6559 31.9578C68.984 32.034 69.4279 32.0816 69.9876 32.1007V33.2435H60.8684V32.1007C61.4088 32.0816 61.8431 32.0245 62.1712 31.9292C62.5186 31.815 62.7791 31.6435 62.9528 31.415C63.1458 31.1673 63.2712 30.834 63.3291 30.415C63.4063 29.9769 63.4449 29.4245 63.4449 28.7578V25.2435C63.4449 24.1388 63.4256 23.234 63.387 22.5293C63.3484 21.8055 63.3002 21.3102 63.2423 21.0436C63.1458 20.5674 62.9239 20.2531 62.5765 20.1007C62.2484 19.9483 61.6404 19.8721 60.7526 19.8721V18.9007L67.469 17.815V28.5578ZM63.2134 11.7579C63.2134 11.1293 63.4256 10.6055 63.8502 10.1864C64.2941 9.74834 64.8249 9.5293 65.4425 9.5293C66.0794 9.5293 66.6101 9.74834 67.0347 10.1864C67.4786 10.6055 67.7006 11.1293 67.7006 11.7579C67.7006 12.3674 67.4786 12.8912 67.0347 13.3293C66.6101 13.7483 66.0794 13.9579 65.4425 13.9579C64.8249 13.9579 64.2941 13.7483 63.8502 13.3293C63.4256 12.8912 63.2134 12.3674 63.2134 11.7579Z" fill="#121212"/>
<path d="M77.9293 28.5864C77.9293 29.3673 77.9486 29.9864 77.9872 30.4435C78.0451 30.8816 78.1513 31.2245 78.3057 31.4721C78.4794 31.7007 78.7303 31.8531 79.0584 31.9292C79.4058 32.0054 79.869 32.0626 80.448 32.1007V33.2435H71.3288V32.1007C71.8885 32.0626 72.3324 32.0054 72.6605 31.9292C73.0079 31.8531 73.2684 31.7007 73.4421 31.4721C73.6351 31.2435 73.7606 30.9197 73.8185 30.5007C73.8764 30.0816 73.9053 29.5102 73.9053 28.7864V25.215C73.9053 24.0912 73.886 23.1864 73.8474 22.5007C73.8088 21.7959 73.7606 21.3197 73.7027 21.0721C73.6448 20.8245 73.5676 20.6245 73.4711 20.4721C73.3746 20.3007 73.2298 20.1769 73.0368 20.1007C72.8438 20.0055 72.6026 19.9483 72.3131 19.9293C72.0236 19.8912 71.6569 19.8721 71.213 19.8721V18.9007L76.8003 17.815L77.1766 20.3293H77.2924C77.9293 19.5293 78.682 18.9102 79.5505 18.4721C80.419 18.034 81.3744 17.815 82.4166 17.815C83.6517 17.815 84.6457 17.9864 85.3984 18.3293C86.1704 18.6531 86.8555 19.2055 87.4538 19.9864C87.7819 20.4245 88.0714 20.9959 88.3223 21.7007C88.5732 22.3864 88.6987 23.3388 88.6987 24.5578V28.5864C88.6987 29.3673 88.718 29.9864 88.7566 30.4435C88.8145 30.8816 88.9206 31.2245 89.075 31.4721C89.2487 31.7007 89.4996 31.8531 89.8277 31.9292C90.1558 32.0054 90.5997 32.0626 91.1594 32.1007V33.2435H82.0981V32.1007C82.6771 32.0816 83.1306 32.034 83.4587 31.9578C83.8061 31.8626 84.0667 31.7007 84.2404 31.4721C84.4141 31.2435 84.5299 30.9197 84.5878 30.5007C84.6457 30.0626 84.6746 29.4911 84.6746 28.7864V24.9007C84.6746 23.9293 84.6167 23.1102 84.5009 22.4435C84.3851 21.7769 84.1921 21.2436 83.9219 20.8436C83.671 20.4245 83.3333 20.1293 82.9087 19.9578C82.4841 19.7674 81.9534 19.6721 81.3165 19.6721C80.6989 19.6721 80.1681 19.8436 79.7242 20.1864C79.2803 20.5293 78.8943 21.0055 78.5662 21.615C78.3925 21.9578 78.2381 22.4055 78.103 22.9578C77.9872 23.4912 77.9293 24.0531 77.9293 24.6435V28.5864Z" fill="#121212"/>
<path d="M92.5363 33.2435V32.1007C93.1732 32.0816 93.6847 32.034 94.0707 31.9578C94.476 31.8626 94.7848 31.7007 94.997 31.4721C95.2286 31.2245 95.383 30.9007 95.4602 30.5007C95.5374 30.0816 95.576 29.5292 95.576 28.8435V15.6436C95.576 14.9769 95.5471 14.4436 95.4892 14.0436C95.4313 13.6245 95.3058 13.3007 95.1128 13.0721C94.9198 12.8245 94.6497 12.6626 94.3023 12.5864C93.9742 12.4912 93.5399 12.4245 92.9995 12.3864V11.2436H104C105.853 11.2436 107.561 11.5293 109.125 12.1007C110.688 12.6721 112.039 13.4626 113.178 14.4721C114.316 15.4817 115.204 16.6817 115.841 18.0721C116.478 19.4626 116.796 20.9769 116.796 22.615C116.796 24.1769 116.497 25.615 115.899 26.9293C115.3 28.2245 114.461 29.3388 113.38 30.2721C112.319 31.2054 111.035 31.9388 109.53 32.4721C108.044 32.9864 106.403 33.2435 104.608 33.2435H92.5363ZM100.324 12.9864C99.9957 12.9864 99.8317 13.1483 99.8317 13.4721V28.2435C99.8317 29.3483 100.179 30.1673 100.874 30.7007C101.569 31.234 102.64 31.5007 104.087 31.5007C106.616 31.5007 108.555 30.7483 109.906 29.2435C111.276 27.7388 111.962 25.5483 111.962 22.6721C111.962 21.1483 111.778 19.7864 111.412 18.5864C111.045 17.3864 110.514 16.3769 109.819 15.5579C109.125 14.7198 108.275 14.0817 107.272 13.6436C106.287 13.2055 105.178 12.9864 103.943 12.9864H100.324Z" fill="#121212"/>
<path d="M127.622 17.815C128.78 17.815 129.87 18.015 130.893 18.415C131.935 18.7959 132.842 19.3293 133.614 20.015C134.406 20.7007 135.023 21.5197 135.467 22.4721C135.93 23.4055 136.162 24.434 136.162 25.5578C136.162 26.7197 135.93 27.7864 135.467 28.7578C135.023 29.7292 134.406 30.5673 133.614 31.2721C132.842 31.9769 131.935 32.5292 130.893 32.9292C129.87 33.3292 128.78 33.5292 127.622 33.5292C126.483 33.5292 125.402 33.3388 124.379 32.9578C123.357 32.5578 122.459 32.0054 121.687 31.3007C120.915 30.5959 120.307 29.7578 119.863 28.7864C119.419 27.7959 119.197 26.7197 119.197 25.5578C119.197 24.434 119.419 23.3959 119.863 22.4435C120.307 21.4912 120.915 20.6721 121.687 19.9864C122.459 19.3007 123.357 18.7674 124.379 18.3864C125.402 18.0055 126.483 17.815 127.622 17.815ZM127.622 19.4721C127.043 19.4721 126.512 19.6245 126.03 19.9293C125.547 20.215 125.132 20.6245 124.785 21.1578C124.457 21.6912 124.196 22.3388 124.003 23.1007C123.829 23.8435 123.743 24.6721 123.743 25.5864C123.743 26.5388 123.829 27.3959 124.003 28.1578C124.196 28.9197 124.457 29.5673 124.785 30.1007C125.132 30.634 125.537 31.0531 126.001 31.3578C126.483 31.6435 127.024 31.7864 127.622 31.7864C128.22 31.7864 128.761 31.6435 129.243 31.3578C129.745 31.0531 130.169 30.634 130.517 30.1007C130.864 29.5483 131.134 28.8912 131.327 28.1292C131.52 27.3673 131.617 26.5197 131.617 25.5864C131.617 24.6721 131.52 23.8435 131.327 23.1007C131.134 22.3578 130.864 21.7197 130.517 21.1864C130.169 20.634 129.745 20.215 129.243 19.9293C128.761 19.6245 128.22 19.4721 127.622 19.4721Z" fill="#121212"/>
<path d="M144.678 28.5864C144.678 29.3673 144.697 29.9864 144.736 30.4435C144.794 30.8816 144.9 31.2245 145.054 31.4721C145.228 31.7007 145.479 31.8531 145.807 31.9292C146.154 32.0054 146.617 32.0626 147.196 32.1007V33.2435H138.077V32.1007C138.637 32.0626 139.081 32.0054 139.409 31.9292C139.756 31.8531 140.017 31.7007 140.191 31.4721C140.384 31.2435 140.509 30.9197 140.567 30.5007C140.625 30.0816 140.654 29.5102 140.654 28.7864V25.215C140.654 24.0912 140.634 23.1864 140.596 22.5007C140.557 21.7959 140.509 21.3197 140.451 21.0721C140.393 20.8245 140.316 20.6245 140.22 20.4721C140.123 20.3007 139.978 20.1769 139.785 20.1007C139.592 20.0055 139.351 19.9483 139.062 19.9293C138.772 19.8912 138.405 19.8721 137.961 19.8721V18.9007L143.549 17.815L143.925 20.3293H144.041C144.678 19.5293 145.431 18.9102 146.299 18.4721C147.168 18.034 148.123 17.815 149.165 17.815C150.4 17.815 151.394 17.9864 152.147 18.3293C152.919 18.6531 153.604 19.2055 154.202 19.9864C154.53 20.4245 154.82 20.9959 155.071 21.7007C155.322 22.3864 155.447 23.3388 155.447 24.5578V28.5864C155.447 29.3673 155.466 29.9864 155.505 30.4435C155.563 30.8816 155.669 31.2245 155.823 31.4721C155.997 31.7007 156.248 31.8531 156.576 31.9292C156.904 32.0054 157.348 32.0626 157.908 32.1007V33.2435H148.847V32.1007C149.426 32.0816 149.879 32.034 150.207 31.9578C150.555 31.8626 150.815 31.7007 150.989 31.4721C151.163 31.2435 151.278 30.9197 151.336 30.5007C151.394 30.0626 151.423 29.4911 151.423 28.7864V24.9007C151.423 23.9293 151.365 23.1102 151.249 22.4435C151.134 21.7769 150.941 21.2436 150.67 20.8436C150.42 20.4245 150.082 20.1293 149.657 19.9578C149.233 19.7674 148.702 19.6721 148.065 19.6721C147.447 19.6721 146.917 19.8436 146.473 20.1864C146.029 20.5293 145.643 21.0055 145.315 21.615C145.141 21.9578 144.987 22.4055 144.852 22.9578C144.736 23.4912 144.678 24.0531 144.678 24.6435V28.5864Z" fill="#121212"/>
</svg>
