<svg width="310" height="183" viewBox="0 0 310 183" fill="none" xmlns="http://www.w3.org/2000/svg">
<g clip-path="url(#clip0_10053_26804)">
<rect width="310" height="183" rx="16" fill="#F7F7F7"/>
<path d="M155.93 173.52V182.138C155.93 182.614 156.316 183 156.792 183H258.49C258.966 183 259.352 182.614 259.352 182.138V173.52C259.352 173.044 258.966 172.658 258.49 172.658H156.792C156.316 172.658 155.93 173.044 155.93 173.52Z" fill="#FFC7D7"/>
<path d="M85.2578 173.52V182.138C85.2578 182.614 85.6437 183 86.1197 183H152.482C152.958 183 153.344 182.614 153.344 182.138V173.52C153.344 173.044 152.958 172.658 152.482 172.658H86.1197C85.6437 172.658 85.2578 173.044 85.2578 173.52Z" fill="#FFC7D7"/>
<path d="M85.2578 166.05V129.606C85.2578 129.312 85.4077 129.038 85.6554 128.88L93.8077 123.668C93.9463 123.579 94.1074 123.532 94.2719 123.532H119.644C119.796 123.532 119.945 123.492 120.076 123.416L128.868 118.333C129 118.257 129.148 118.217 129.3 118.217H133.378C133.854 118.217 134.24 118.603 134.24 119.079V124.095C134.24 124.57 134.626 124.956 135.102 124.956H137.113C137.589 124.956 137.974 124.57 137.974 124.095V119.079C137.974 118.603 138.36 118.217 138.836 118.217H148.748C149.224 118.217 149.609 118.603 149.609 119.079V166.05C149.609 166.526 149.224 166.912 148.748 166.912H86.1197C85.6437 166.912 85.2578 166.526 85.2578 166.05Z" fill="#FFC7D7"/>
<path d="M85.2578 32.7504V123.007C85.2578 123.07 85.2647 123.132 85.2783 123.194L85.2849 123.223C85.4128 123.799 86.0673 124.079 86.5717 123.774L92.9527 119.922C93.0871 119.84 93.2411 119.797 93.3981 119.797H118.626C118.785 119.797 118.942 119.753 119.078 119.669L127.663 114.373C127.799 114.289 127.956 114.245 128.116 114.245H148.748C149.224 114.245 149.609 113.859 149.609 113.383V32.7504C149.609 32.2744 149.224 31.8885 148.748 31.8885H86.1197C85.6437 31.8885 85.2578 32.2744 85.2578 32.7504Z" fill="#FFC7D7"/>
<path d="M159.379 32.4632V166.05C159.379 166.526 159.765 166.912 160.241 166.912H258.492C258.968 166.912 259.354 166.526 259.354 166.05V32.4632C259.354 31.9872 258.968 31.6013 258.492 31.6013H160.241C159.765 31.6013 159.379 31.9872 159.379 32.4632Z" fill="#FFC7D7"/>
<path d="M60.1381 32H-0.138147C-0.614135 32 -1 32.3859 -1 32.8619V182.138C-1 182.614 -0.614137 183 -0.138149 183H60.1381C60.6141 183 61 182.614 61 182.138V32.8619C61 32.3859 60.6141 32 60.1381 32Z" fill="#FFC7D7"/>
<path d="M309.138 32H283.862C283.386 32 283 32.3859 283 32.8619V182.138C283 182.614 283.386 183 283.862 183H309.138C309.614 183 310 182.614 310 182.138V32.8619C310 32.3859 309.614 32 309.138 32Z" fill="#FFC7D7"/>
<path d="M305.138 0H-0.138147C-0.614135 0 -1 0.385865 -1 0.861853V4.13815C-1 4.61414 -0.614141 5 -0.138153 5H305.138C305.614 5 306 4.61414 306 4.13815V0.861853C306 0.385865 305.614 0 305.138 0Z" fill="#FFC7D7"/>
<rect x="96.1758" y="133.013" width="47.4019" height="27.292" rx="0.574568" fill="#AB1640"/>
<path d="M129.785 133.013H142.426V125.83C142.426 125.513 142.168 125.256 141.851 125.256H130.36C130.042 125.256 129.785 125.513 129.785 125.83V133.013Z" fill="#E5819D"/>
<path d="M81.8125 128.99V183.574" stroke="#4E8B43" stroke-width="2.87284" stroke-linecap="round"/>
<path d="M81.8125 128.907L93.3039 121.808" stroke="#4E8B43" stroke-width="2.87284" stroke-linecap="round"/>
<path d="M120.818 120.035C120.473 120.23 120.351 120.668 120.547 121.014C120.743 121.359 121.181 121.48 121.526 121.284L120.818 120.035ZM129.79 115.776L121.497 115.709L125.586 122.924L129.79 115.776ZM121.526 121.284L124.521 119.587L123.813 118.338L120.818 120.035L121.526 121.284Z" fill="#4E8B43"/>
<path d="M118.582 121.808L124.04 118.936" stroke="#4E8B43" stroke-width="2.87284" stroke-linecap="round"/>
<path d="M93.3047 121.808H118.586" stroke="#4E8B43" stroke-width="2.87284" stroke-linecap="round"/>
<path d="M154.496 119.797L150.35 126.979H158.643L154.496 119.797ZM153.778 134.736C153.778 135.133 154.099 135.454 154.496 135.454C154.893 135.454 155.214 135.133 155.214 134.736H153.778ZM153.778 126.261V134.736H155.214V126.261H153.778Z" fill="#D5033E"/>
<path d="M154.496 124.681V169.785" stroke="#D5033E" stroke-width="2.87284" stroke-linecap="round"/>
<path d="M81.8125 169.785V183.574" stroke="#D5033E" stroke-width="2.87284"/>
<path d="M81.8125 169.785L154.495 169.785" stroke="#D5033E" stroke-width="2.87284" stroke-linecap="round"/>
<path d="M195.141 169.516V169.685C195.141 170.053 195.015 170.358 194.763 170.602C194.511 170.844 194.178 170.964 193.762 170.964C193.333 170.964 192.978 170.824 192.696 170.542C192.417 170.258 192.278 169.912 192.278 169.504C192.278 169.097 192.417 168.752 192.696 168.471C192.978 168.187 193.33 168.044 193.754 168.044C194.014 168.044 194.253 168.107 194.47 168.233C194.687 168.357 194.855 168.52 194.973 168.724L194.651 168.913C194.57 168.76 194.448 168.638 194.285 168.547C194.124 168.453 193.946 168.406 193.75 168.406C193.428 168.406 193.164 168.512 192.958 168.724C192.751 168.933 192.648 169.193 192.648 169.504C192.648 169.815 192.751 170.076 192.958 170.285C193.167 170.494 193.436 170.598 193.766 170.598C194.048 170.598 194.275 170.53 194.45 170.393C194.624 170.254 194.73 170.074 194.767 169.854H193.734V169.516H195.141ZM197.73 170.912L197.501 170.281H196.234L196.005 170.912H195.607L196.657 168.097H197.079L198.129 170.912H197.73ZM196.363 169.931H197.372L196.866 168.543L196.363 169.931ZM200.592 168.097H200.966V170.912H200.665L199.217 168.809V170.912H198.843V168.097H199.144L200.592 170.196V168.097ZM203.049 168.097C203.432 168.097 203.75 168.233 204.002 168.507C204.257 168.778 204.384 169.11 204.384 169.504C204.384 169.899 204.257 170.232 204.002 170.506C203.75 170.777 203.432 170.912 203.049 170.912H201.951V168.097H203.049ZM203.049 170.558C203.336 170.558 203.57 170.458 203.753 170.257C203.935 170.055 204.026 169.805 204.026 169.504C204.026 169.204 203.935 168.953 203.753 168.752C203.57 168.551 203.336 168.451 203.049 168.451H202.325V170.558H203.049ZM205.22 168.097H205.594V170.912H205.22V168.097ZM208.876 170.964C208.614 170.964 208.388 170.903 208.201 170.779C208.016 170.656 207.886 170.487 207.81 170.273L208.132 170.088C208.242 170.428 208.493 170.598 208.884 170.598C209.077 170.598 209.225 170.56 209.327 170.482C209.429 170.401 209.48 170.295 209.48 170.164C209.48 170.03 209.429 169.929 209.327 169.862C209.225 169.795 209.055 169.724 208.816 169.649C208.698 169.612 208.608 169.582 208.547 169.561C208.485 169.537 208.407 169.502 208.313 169.456C208.222 169.408 208.154 169.36 208.108 169.311C208.063 169.26 208.021 169.195 207.983 169.114C207.949 169.034 207.931 168.943 207.931 168.841C207.931 168.597 208.017 168.404 208.189 168.262C208.36 168.117 208.569 168.044 208.816 168.044C209.039 168.044 209.232 168.101 209.395 168.213C209.561 168.326 209.686 168.475 209.769 168.66L209.455 168.841C209.335 168.551 209.122 168.406 208.816 168.406C208.663 168.406 208.54 168.444 208.446 168.519C208.352 168.594 208.305 168.696 208.305 168.825C208.305 168.948 208.349 169.042 208.438 169.106C208.526 169.171 208.679 169.238 208.896 169.307C208.974 169.331 209.029 169.349 209.061 169.36C209.094 169.37 209.143 169.389 209.21 169.416C209.28 169.443 209.331 169.464 209.363 169.48C209.395 169.496 209.438 169.519 209.492 169.549C209.548 169.578 209.59 169.606 209.616 169.633C209.643 169.66 209.674 169.693 209.709 169.734C209.746 169.771 209.773 169.81 209.789 169.85C209.805 169.891 209.819 169.937 209.83 169.991C209.843 170.042 209.85 170.097 209.85 170.156C209.85 170.403 209.76 170.6 209.58 170.747C209.401 170.892 209.166 170.964 208.876 170.964ZM212.374 168.097V168.451H211.542V170.912H211.172V168.451H210.343V168.097H212.374ZM214.796 170.912L214.164 169.834H213.501V170.912H213.127V168.097H214.253C214.494 168.097 214.701 168.183 214.872 168.354C215.044 168.523 215.13 168.728 215.13 168.969C215.13 169.152 215.075 169.318 214.965 169.468C214.857 169.618 214.718 169.724 214.546 169.786L215.21 170.912H214.796ZM213.501 168.447V169.496H214.253C214.392 169.496 214.51 169.445 214.607 169.344C214.706 169.239 214.756 169.114 214.756 168.969C214.756 168.825 214.706 168.701 214.607 168.599C214.51 168.498 214.392 168.447 214.253 168.447H213.501ZM216.342 170.558H217.649V170.912H215.967V168.097H217.629V168.451H216.342V169.315H217.528V169.665H216.342V170.558ZM218.856 170.558H220.163V170.912H218.482V168.097H220.143V168.451H218.856V169.315H220.043V169.665H218.856V170.558ZM222.799 168.097V168.451H221.966V170.912H221.596V168.451H220.768V168.097H222.799Z" fill="#333333"/>
<path d="M113.793 147.322V146.71L115.78 144.683C116.311 144.152 116.576 143.697 116.576 143.316C116.576 142.999 116.48 142.753 116.287 142.576C116.094 142.399 115.858 142.31 115.579 142.31C115.048 142.31 114.662 142.562 114.421 143.067L113.793 142.697C113.97 142.332 114.214 142.056 114.525 141.868C114.842 141.68 115.19 141.586 115.571 141.586C116.043 141.586 116.453 141.742 116.802 142.053C117.15 142.364 117.324 142.782 117.324 143.308C117.324 143.876 116.989 144.496 116.319 145.166L114.879 146.598H117.429V147.322H113.793ZM118.196 147.322V146.71L120.183 144.683C120.714 144.152 120.979 143.697 120.979 143.316C120.979 142.999 120.883 142.753 120.69 142.576C120.497 142.399 120.261 142.31 119.982 142.31C119.451 142.31 119.065 142.562 118.823 143.067L118.196 142.697C118.373 142.332 118.617 142.056 118.928 141.868C119.244 141.68 119.593 141.586 119.974 141.586C120.446 141.586 120.856 141.742 121.204 142.053C121.553 142.364 121.727 142.782 121.727 143.308C121.727 143.876 121.392 144.496 120.722 145.166L119.282 146.598H121.832V147.322H118.196ZM124.773 144C125.202 144.08 125.553 144.265 125.826 144.555C126.1 144.844 126.237 145.212 126.237 145.657C126.237 146.204 126.049 146.635 125.673 146.952C125.298 147.268 124.842 147.426 124.306 147.426C123.877 147.426 123.496 147.33 123.164 147.137C122.831 146.938 122.595 146.654 122.456 146.284L123.083 145.914C123.25 146.434 123.657 146.694 124.306 146.694C124.655 146.694 124.939 146.603 125.159 146.421C125.379 146.239 125.488 145.984 125.488 145.657C125.488 145.33 125.379 145.075 125.159 144.893C124.939 144.705 124.655 144.611 124.306 144.611H124.113L123.815 144.152L125.118 142.391H122.617V141.691H125.995V142.351L124.773 144ZM108.033 151.311H108.301V153.322H108.085L107.051 151.819V153.322H106.784V151.311H106.999L108.033 152.81V151.311ZM110.113 153.322L109.949 152.871H109.044L108.88 153.322H108.596L109.346 151.311H109.647L110.397 153.322H110.113ZM109.136 152.621H109.857L109.495 151.63L109.136 152.621ZM110.904 153.069H111.901V153.322H110.588V153.089L111.559 151.564H110.614V151.311H111.878V151.541L110.904 153.069ZM113.586 153.322L113.422 152.871H112.517L112.353 153.322H112.069L112.819 151.311H113.12L113.87 153.322H113.586ZM112.609 152.621H113.33L112.968 151.63L112.609 152.621ZM115.357 153.322L114.906 152.552H114.432V153.322H114.165V151.311H114.969C115.142 151.311 115.289 151.372 115.412 151.495C115.534 151.615 115.595 151.762 115.595 151.934C115.595 152.064 115.556 152.183 115.478 152.29C115.401 152.398 115.301 152.473 115.179 152.517L115.653 153.322H115.357ZM114.432 151.561V152.311H114.969C115.069 152.311 115.153 152.274 115.222 152.201C115.293 152.127 115.328 152.038 115.328 151.934C115.328 151.831 115.293 151.743 115.222 151.67C115.153 151.597 115.069 151.561 114.969 151.561H114.432ZM117.128 152.279C117.22 152.323 117.292 152.386 117.346 152.469C117.401 152.551 117.429 152.646 117.429 152.753C117.429 152.914 117.373 153.049 117.26 153.158C117.147 153.267 117.009 153.322 116.846 153.322H115.978V151.311H116.783C116.94 151.311 117.073 151.363 117.182 151.469C117.291 151.574 117.346 151.704 117.346 151.86C117.346 152.038 117.273 152.177 117.128 152.279ZM116.783 151.561H116.246V152.176H116.783C116.867 152.176 116.938 152.146 116.995 152.086C117.053 152.027 117.082 151.954 117.082 151.868C117.082 151.784 117.052 151.712 116.993 151.653C116.935 151.591 116.865 151.561 116.783 151.561ZM116.846 153.072C116.936 153.072 117.012 153.04 117.073 152.977C117.134 152.914 117.165 152.836 117.165 152.744C117.165 152.654 117.133 152.578 117.07 152.515C117.009 152.451 116.934 152.42 116.846 152.42H116.246V153.072H116.846ZM119.128 153.322L118.964 152.871H118.059L117.895 153.322H117.611L118.361 151.311H118.662L119.412 153.322H119.128ZM118.151 152.621H118.872L118.51 151.63L118.151 152.621ZM119.974 153.069H120.908V153.322H119.707V151.311H120.893V151.564H119.974V152.181H120.822V152.431H119.974V153.069ZM121.813 153.322L121.095 151.311H121.383L121.966 152.989L122.546 151.311H122.836L122.115 153.322H121.813ZM124.554 153.359C124.367 153.359 124.206 153.315 124.072 153.227C123.94 153.139 123.847 153.018 123.793 152.865L124.023 152.733C124.101 152.976 124.281 153.098 124.56 153.098C124.698 153.098 124.803 153.07 124.876 153.014C124.949 152.957 124.985 152.881 124.985 152.787C124.985 152.692 124.949 152.62 124.876 152.572C124.803 152.524 124.682 152.473 124.511 152.42C124.427 152.393 124.363 152.372 124.319 152.357C124.275 152.339 124.219 152.314 124.152 152.282C124.087 152.247 124.038 152.213 124.006 152.178C123.973 152.142 123.943 152.095 123.917 152.038C123.892 151.98 123.879 151.915 123.879 151.842C123.879 151.668 123.941 151.53 124.063 151.429C124.186 151.325 124.335 151.273 124.511 151.273C124.67 151.273 124.808 151.314 124.925 151.394C125.044 151.475 125.133 151.581 125.192 151.713L124.968 151.842C124.882 151.635 124.73 151.532 124.511 151.532C124.402 151.532 124.314 151.559 124.247 151.612C124.18 151.666 124.146 151.739 124.146 151.831C124.146 151.919 124.178 151.986 124.241 152.032C124.304 152.078 124.414 152.126 124.569 152.176C124.624 152.193 124.664 152.205 124.687 152.213C124.71 152.221 124.745 152.234 124.793 152.253C124.843 152.272 124.879 152.288 124.902 152.299C124.925 152.311 124.956 152.327 124.994 152.348C125.034 152.369 125.064 152.389 125.083 152.408C125.102 152.427 125.124 152.451 125.149 152.48C125.176 152.507 125.195 152.535 125.207 152.563C125.218 152.592 125.228 152.626 125.235 152.664C125.245 152.7 125.25 152.74 125.25 152.782C125.25 152.958 125.185 153.099 125.057 153.204C124.929 153.307 124.761 153.359 124.554 153.359ZM126.838 151.311V151.564H126.243V153.322H125.979V151.564H125.387V151.311H126.838ZM128.352 153.322L127.901 152.552H127.427V153.322H127.159V151.311H127.964C128.136 151.311 128.284 151.372 128.406 151.495C128.529 151.615 128.59 151.762 128.59 151.934C128.59 152.064 128.551 152.183 128.472 152.29C128.396 152.398 128.296 152.473 128.174 152.517L128.648 153.322H128.352ZM127.427 151.561V152.311H127.964C128.063 152.311 128.148 152.274 128.217 152.201C128.288 152.127 128.323 152.038 128.323 151.934C128.323 151.831 128.288 151.743 128.217 151.67C128.148 151.597 128.063 151.561 127.964 151.561H127.427ZM129.24 153.069H130.174V153.322H128.973V151.311H130.16V151.564H129.24V152.181H130.088V152.431H129.24V153.069ZM130.821 153.069H131.755V153.322H130.554V151.311H131.74V151.564H130.821V152.181H131.669V152.431H130.821V153.069ZM133.422 151.311V151.564H132.827V153.322H132.563V151.564H131.971V151.311H133.422Z" fill="white"/>
<path d="M136.228 128.113C136.494 128.113 136.718 128.192 136.9 128.35C137.085 128.506 137.178 128.722 137.178 128.998C137.178 129.271 137.084 129.487 136.896 129.645C136.708 129.804 136.48 129.883 136.212 129.883C135.998 129.883 135.806 129.832 135.637 129.73C135.468 129.625 135.35 129.475 135.283 129.279L135.601 129.098C135.639 129.235 135.711 129.34 135.818 129.412C135.925 129.482 136.057 129.517 136.212 129.517C136.389 129.517 136.533 129.471 136.643 129.38C136.753 129.289 136.808 129.161 136.808 128.998C136.808 128.834 136.753 128.707 136.643 128.616C136.533 128.522 136.392 128.475 136.22 128.475H135.424L135.529 127.015H137.069V127.365H135.866L135.818 128.113H136.228ZM134.24 131.205C134.296 131.231 134.339 131.269 134.371 131.319C134.405 131.368 134.421 131.425 134.421 131.489C134.421 131.586 134.387 131.667 134.32 131.732C134.252 131.798 134.169 131.83 134.071 131.83H133.551V130.624H134.034C134.128 130.624 134.208 130.655 134.273 130.719C134.339 130.782 134.371 130.86 134.371 130.953C134.371 131.06 134.328 131.144 134.24 131.205ZM134.034 130.774H133.711V131.143H134.034C134.084 131.143 134.127 131.125 134.161 131.089C134.196 131.054 134.213 131.01 134.213 130.958C134.213 130.908 134.195 130.865 134.159 130.829C134.125 130.792 134.083 130.774 134.034 130.774ZM134.071 131.68C134.125 131.68 134.171 131.662 134.208 131.624C134.244 131.586 134.263 131.539 134.263 131.484C134.263 131.43 134.244 131.384 134.206 131.346C134.169 131.308 134.124 131.289 134.071 131.289H133.711V131.68H134.071ZM134.806 131.679H135.327V131.83H134.646V130.624H134.806V131.679ZM136.443 131.67C136.322 131.792 136.174 131.853 136 131.853C135.825 131.853 135.677 131.792 135.557 131.67C135.436 131.548 135.376 131.401 135.376 131.227C135.376 131.052 135.436 130.905 135.557 130.784C135.677 130.662 135.825 130.601 136 130.601C136.174 130.601 136.322 130.662 136.443 130.784C136.565 130.905 136.625 131.052 136.625 131.227C136.625 131.401 136.565 131.548 136.443 131.67ZM135.667 131.562C135.757 131.651 135.868 131.696 136 131.696C136.132 131.696 136.242 131.651 136.331 131.562C136.42 131.471 136.465 131.359 136.465 131.227C136.465 131.094 136.42 130.982 136.331 130.893C136.242 130.802 136.132 130.757 136 130.757C135.868 130.757 135.757 130.802 135.667 130.893C135.579 130.982 135.534 131.094 135.534 131.227C135.534 131.359 135.579 131.471 135.667 131.562ZM137.42 131.853C137.237 131.853 137.086 131.793 136.966 131.672C136.848 131.551 136.789 131.403 136.789 131.227C136.789 131.051 136.848 130.903 136.966 130.782C137.086 130.662 137.237 130.601 137.42 130.601C137.53 130.601 137.631 130.628 137.723 130.681C137.816 130.734 137.889 130.805 137.94 130.894L137.801 130.975C137.766 130.909 137.714 130.856 137.646 130.817C137.578 130.777 137.502 130.757 137.42 130.757C137.281 130.757 137.167 130.801 137.078 130.891C136.991 130.981 136.947 131.093 136.947 131.227C136.947 131.36 136.991 131.472 137.078 131.562C137.167 131.651 137.281 131.696 137.42 131.696C137.502 131.696 137.578 131.676 137.646 131.637C137.714 131.597 137.766 131.544 137.801 131.479L137.94 131.558C137.89 131.648 137.818 131.72 137.725 131.774C137.632 131.826 137.53 131.853 137.42 131.853ZM139.034 131.83H138.837L138.317 131.251V131.83H138.156V130.624H138.317V131.169L138.82 130.624H139.016L138.484 131.21L139.034 131.83Z" fill="white"/>
<path d="M153.06 116.063C153.06 116.856 153.703 117.499 154.496 117.499C155.289 117.499 155.933 116.856 155.933 116.063H153.06ZM153.06 29.303V116.063H155.933V29.303H153.06Z" fill="#D5033E"/>
<path d="M136.109 116.063H154.496" stroke="#D5033E" stroke-width="2.87284" stroke-linecap="round"/>
<path d="M136.109 122.096V116.063" stroke="#D5033E" stroke-width="2.87284" stroke-linecap="round"/>
<path d="M136.109 127.554L140.256 120.372H131.963L136.109 127.554ZM136.828 119.223C136.828 118.826 136.506 118.505 136.109 118.505C135.713 118.505 135.391 118.826 135.391 119.223H136.828ZM136.828 121.09V119.223H135.391V121.09H136.828Z" fill="#D5033E"/>
<path d="M67.9199 132.194V131.499H73.1484V132.059L69.2419 134.748H73.1484V135.443H67.9199V134.883L71.8189 132.194H67.9199ZM73.1484 124.958L71.9757 125.384V127.737L73.1484 128.162V128.902L67.9199 126.952V126.168L73.1484 124.218V124.958ZM71.3259 127.498V125.623L68.749 126.564L71.3259 127.498ZM72.4911 121.07V118.478H73.1484V121.891H72.5434L68.5772 119.367V121.824H67.9199V118.537H68.5174L72.4911 121.07ZM73.1484 112.268L71.9757 112.694V115.046L73.1484 115.472V116.212L67.9199 114.262V113.478L73.1484 111.528V112.268ZM71.3259 114.807V112.933L68.749 113.874L71.3259 114.807ZM73.1484 105.832L71.1466 107.005V108.238H73.1484V108.932H67.9199V106.841C67.9199 106.393 68.0792 106.009 68.3979 105.69C68.7116 105.372 69.0926 105.212 69.5407 105.212C69.8793 105.212 70.1881 105.315 70.4669 105.519C70.7458 105.718 70.9425 105.977 71.057 106.295L73.1484 105.063V105.832ZM68.5697 108.238H70.5192V106.841C70.5192 106.582 70.4246 106.363 70.2354 106.183C70.0412 105.999 69.8096 105.907 69.5407 105.907C69.2718 105.907 69.0428 105.999 68.8535 106.183C68.6643 106.363 68.5697 106.582 68.5697 106.841V108.238ZM70.437 99.3988C70.5516 99.1598 70.7159 98.9705 70.93 98.8311C71.1442 98.6867 71.3906 98.6145 71.6695 98.6145C72.0878 98.6145 72.4388 98.7614 72.7227 99.0552C73.0065 99.349 73.1484 99.7075 73.1484 100.131V102.387H67.9199V100.295C67.9199 99.8868 68.0568 99.5407 68.3307 99.2569C68.6046 98.973 68.9432 98.8311 69.3465 98.8311C69.8096 98.8311 70.1731 99.0203 70.437 99.3988ZM68.5697 100.295V101.692H70.1682V100.295C70.1682 100.076 70.091 99.8918 69.9366 99.7424C69.7822 99.593 69.593 99.5183 69.3689 99.5183C69.1498 99.5183 68.9631 99.5955 68.8087 99.7499C68.6494 99.8992 68.5697 100.081 68.5697 100.295ZM72.4986 100.131C72.4986 99.8968 72.4164 99.7001 72.2521 99.5407C72.0878 99.3814 71.8861 99.3017 71.6471 99.3017C71.413 99.3017 71.2139 99.3839 71.0495 99.5482C70.8852 99.7075 70.803 99.9017 70.803 100.131V101.692H72.4986V100.131ZM73.1484 92.3683L71.9757 92.7941V95.147L73.1484 95.5727V96.3122L67.9199 94.3627V93.5784L73.1484 91.6289V92.3683ZM71.3259 94.9079V93.0331L68.749 93.9743L71.3259 94.9079ZM72.4911 88.338V85.9105H73.1484V89.0327H67.9199V85.9478H68.5772V88.338H70.1831V86.1346H70.8329V88.338H72.4911ZM73.1484 81.7256L67.9199 83.5929V82.846L72.282 81.3297L67.9199 79.8209V79.0665L73.1484 80.9413V81.7256Z" fill="#333333"/>
<path d="M79 113.847L78.3685 114.077V115.344L79 115.573V115.971L76.1846 114.921V114.499L79 113.449V113.847ZM78.0186 115.215V114.205L76.6311 114.712L78.0186 115.215ZM79 112.059L76.1846 113.065V112.663L78.5335 111.846L76.1846 111.034V110.628L79 111.637V112.059ZM78.6461 109.441V108.134H79V109.815H76.1846V108.154H76.5385V109.441H77.4033V108.254H77.7532V109.441H78.6461ZM76.1846 105.45V105.076H79V105.377L76.8965 106.825H79V107.199H76.1846V106.898L78.2841 105.45H76.1846ZM78.7828 102.209C78.9625 102.405 79.0523 102.658 79.0523 102.969C79.0523 103.28 78.9625 103.535 78.7828 103.734C78.6005 103.929 78.3578 104.027 78.0548 104.027H76.1846V103.653H78.0387C78.2372 103.653 78.3954 103.594 78.5133 103.476C78.6286 103.358 78.6863 103.189 78.6863 102.969C78.6863 102.75 78.6286 102.581 78.5133 102.463C78.3954 102.345 78.2372 102.286 78.0387 102.286H76.1846V101.916H78.0548C78.3578 101.916 78.6005 102.013 78.7828 102.209ZM78.6461 100.487V99.1799H79V100.861H76.1846V99.2H76.5385V100.487H77.4033V99.3005H77.7532V100.487H78.6461Z" fill="#333333"/>
<path d="M271.468 137.211C271.468 137.589 271.389 137.923 271.229 138.212C271.07 138.5 270.838 138.712 270.535 138.847L270.191 138.256C270.589 138.102 270.788 137.754 270.788 137.211C270.788 136.877 270.709 136.616 270.549 136.426C270.39 136.237 270.154 136.143 269.84 136.143L266.143 136.143V135.455L269.84 135.455C270.363 135.455 270.766 135.622 271.05 135.956C271.329 136.285 271.468 136.703 271.468 137.211ZM270.714 131.731V129.304H271.371V132.426H266.143V129.341H266.8V131.731H268.406V129.528H269.056V131.731L270.714 131.731ZM270.714 125.791V123.535H271.371V126.486H266.143V125.791H270.714ZM266.143 118.045H266.8V119.591H271.371V120.279H266.8V121.817H266.143V118.045ZM270.676 111.33C271.204 111.853 271.468 112.493 271.468 113.25C271.468 114.007 271.204 114.647 270.676 115.169C270.149 115.692 269.509 115.954 268.757 115.954C268 115.954 267.36 115.692 266.837 115.169C266.309 114.647 266.045 114.007 266.045 113.25C266.045 112.493 266.309 111.853 266.837 111.33C267.36 110.802 268 110.538 268.757 110.538C269.509 110.538 270.149 110.802 270.676 111.33ZM270.206 114.691C270.594 114.303 270.788 113.822 270.788 113.25C270.788 112.677 270.594 112.199 270.206 111.816C269.812 111.427 269.329 111.233 268.757 111.233C268.179 111.233 267.696 111.427 267.308 111.816C266.914 112.199 266.718 112.677 266.718 113.25C266.718 113.822 266.914 114.303 267.308 114.691C267.696 115.075 268.179 115.267 268.757 115.267C269.329 115.267 269.812 115.075 270.206 114.691ZM268.757 102.585C269.474 102.585 270.094 102.831 270.617 103.324L271.192 102.749L271.625 103.227L271.028 103.817C271.321 104.271 271.468 104.764 271.468 105.296C271.468 106.043 271.204 106.681 270.676 107.209C270.149 107.736 269.509 108 268.757 108C268.005 108 267.365 107.736 266.837 107.209C266.309 106.681 266.045 106.043 266.045 105.296C266.045 104.549 266.309 103.912 266.837 103.384C267.365 102.851 268.005 102.585 268.757 102.585ZM270.788 105.296C270.788 104.938 270.704 104.609 270.535 104.31L269.481 105.356L269.056 104.878L270.131 103.802C269.753 103.454 269.295 103.28 268.757 103.28C268.184 103.28 267.701 103.476 267.308 103.87C266.914 104.258 266.718 104.734 266.718 105.296C266.718 105.859 266.914 106.337 267.308 106.73C267.701 107.119 268.184 107.313 268.757 107.313C269.324 107.313 269.805 107.119 270.198 106.73C270.592 106.337 270.788 105.859 270.788 105.296ZM271.468 98.2356C271.468 98.7236 271.354 99.1419 271.125 99.4904C270.896 99.834 270.582 100.076 270.183 100.215L269.84 99.6174C270.472 99.4133 270.788 98.9477 270.788 98.2206C270.788 97.8621 270.716 97.5882 270.572 97.399C270.422 97.2098 270.226 97.1152 269.982 97.1152C269.733 97.1152 269.546 97.2098 269.422 97.399C269.297 97.5882 269.165 97.9044 269.026 98.3476C268.956 98.5667 268.901 98.7335 268.861 98.8481C268.817 98.9626 268.752 99.107 268.667 99.2813C268.578 99.4506 268.488 99.5776 268.398 99.6622C268.304 99.7469 268.182 99.8241 268.032 99.8938C267.883 99.9585 267.714 99.9909 267.524 99.9909C267.071 99.9909 266.713 99.8315 266.449 99.5129C266.18 99.1942 266.045 98.8057 266.045 98.3476C266.045 97.9343 266.15 97.5758 266.359 97.272C266.568 96.9633 266.845 96.7317 267.188 96.5774L267.524 97.16C266.987 97.3841 266.718 97.78 266.718 98.3476C266.718 98.6315 266.787 98.8605 266.927 99.0348C267.066 99.2091 267.255 99.2962 267.494 99.2962C267.724 99.2962 267.898 99.2141 268.017 99.0497C268.137 98.8854 268.261 98.6016 268.391 98.1982C268.436 98.0538 268.468 97.9517 268.488 97.892C268.508 97.8322 268.543 97.7401 268.592 97.6156C268.642 97.4862 268.682 97.3915 268.712 97.3318C268.742 97.272 268.784 97.1924 268.839 97.0928C268.894 96.9882 268.946 96.911 268.996 96.8612C269.046 96.8114 269.108 96.7542 269.183 96.6894C269.252 96.6197 269.324 96.5699 269.399 96.54C269.474 96.5102 269.561 96.4853 269.661 96.4653C269.755 96.4404 269.857 96.428 269.967 96.428C270.425 96.428 270.791 96.5948 271.065 96.9284C271.334 97.2621 271.468 97.6978 271.468 98.2356ZM266.143 90.4694H266.8V92.0156H271.371V92.7028H266.8V94.2414H266.143V90.4694ZM271.371 84.7385L270.198 85.1642V87.5171L271.371 87.9428V88.6823L266.143 86.7328V85.9485L271.371 83.999V84.7385ZM269.549 87.278V85.4032L266.972 86.3444L269.549 87.278ZM266.143 78.1536V77.459H271.371V78.0192L267.465 80.7081H271.371V81.4028H266.143V80.8426L270.042 78.1536H266.143Z" fill="#333333"/>
<path d="M277.275 114.42C277.275 114.683 277.213 114.908 277.09 115.095C276.967 115.28 276.798 115.411 276.583 115.486L276.398 115.164C276.739 115.054 276.909 114.803 276.909 114.412C276.909 114.219 276.87 114.071 276.792 113.969C276.712 113.867 276.606 113.816 276.475 113.816C276.341 113.816 276.24 113.867 276.173 113.969C276.106 114.071 276.035 114.241 275.96 114.48C275.922 114.598 275.893 114.688 275.871 114.75C275.847 114.811 275.812 114.889 275.767 114.983C275.718 115.074 275.67 115.142 275.622 115.188C275.571 115.234 275.505 115.275 275.425 115.313C275.344 115.347 275.253 115.365 275.151 115.365C274.907 115.365 274.714 115.279 274.572 115.108C274.427 114.936 274.355 114.727 274.355 114.48C274.355 114.258 274.411 114.064 274.524 113.901C274.637 113.735 274.785 113.61 274.97 113.527L275.151 113.841C274.862 113.961 274.717 114.174 274.717 114.48C274.717 114.633 274.755 114.756 274.83 114.85C274.905 114.944 275.007 114.991 275.135 114.991C275.259 114.991 275.352 114.947 275.417 114.858C275.481 114.77 275.548 114.617 275.618 114.4C275.642 114.322 275.659 114.267 275.67 114.235C275.681 114.203 275.7 114.153 275.726 114.086C275.753 114.016 275.775 113.965 275.791 113.933C275.807 113.901 275.83 113.858 275.859 113.804C275.889 113.748 275.917 113.707 275.944 113.68C275.97 113.653 276.004 113.622 276.044 113.587C276.082 113.55 276.121 113.523 276.161 113.507C276.201 113.491 276.248 113.477 276.302 113.467C276.353 113.453 276.408 113.446 276.467 113.446C276.713 113.446 276.91 113.536 277.058 113.716C277.203 113.896 277.275 114.13 277.275 114.42ZM274.407 110.821H274.761V111.654H277.223V112.024H274.761V112.852H274.407V110.821ZM277.223 108.299L276.145 108.931V109.594H277.223V109.968H274.407V108.842C274.407 108.601 274.493 108.394 274.665 108.223C274.834 108.051 275.039 107.965 275.28 107.965C275.462 107.965 275.629 108.02 275.779 108.13C275.929 108.238 276.035 108.377 276.097 108.549L277.223 107.885V108.299ZM274.757 109.594H275.807V108.842C275.807 108.703 275.756 108.585 275.654 108.488C275.55 108.389 275.425 108.339 275.28 108.339C275.135 108.339 275.012 108.389 274.91 108.488C274.808 108.585 274.757 108.703 274.757 108.842V109.594ZM276.869 106.653V105.346H277.223V107.027H274.407V105.366H274.761V106.653H275.626V105.466H275.976V106.653H276.869ZM276.869 104.038V102.73H277.223V104.412H274.407V102.75H274.761V104.038H275.626V102.851H275.976V104.038H276.869ZM274.407 99.9943H274.761V100.827H277.223V101.197H274.761V102.025H274.407V99.9943Z" fill="#333333"/>
<path d="M130.62 18.4803L130.128 17.1272H127.413L126.922 18.4803H126.069L128.318 12.4474H129.223L131.473 18.4803H130.62ZM127.689 16.3774H129.852L128.767 13.404L127.689 16.3774ZM135.27 17.7219H137.873V18.4803H134.468V12.4474H135.27V17.7219ZM148.872 13.2058H146.201V15.1622H148.76V15.9206H146.201V18.4803H145.399V12.4474H148.872V13.2058ZM155.831 18.4803L155.339 17.1272H152.625L152.133 18.4803H151.28L153.53 12.4474H154.435L156.684 18.4803H155.831ZM152.9 16.3774H155.064L153.978 13.404L152.9 16.3774ZM163.256 18.4803L161.903 16.1706H160.481V18.4803H159.68V12.4474H162.093C162.61 12.4474 163.052 12.6312 163.42 12.999C163.788 13.3609 163.972 13.8005 163.972 14.3176C163.972 14.7083 163.854 15.0645 163.618 15.3863C163.388 15.7081 163.09 15.935 162.722 16.0672L164.144 18.4803H163.256ZM160.481 13.1972V15.4466H162.093C162.392 15.4466 162.644 15.3375 162.851 15.1191C163.064 14.895 163.17 14.6279 163.17 14.3176C163.17 14.0073 163.064 13.743 162.851 13.5247C162.644 13.3064 162.392 13.1972 162.093 13.1972H160.481ZM171.205 18.4803L170.714 17.1272H167.999L167.508 18.4803H166.655L168.904 12.4474H169.809L172.059 18.4803H171.205ZM168.275 16.3774H170.438L169.352 13.404L168.275 16.3774ZM178.502 15.3518C178.777 15.484 178.996 15.6736 179.157 15.9206C179.323 16.1677 179.407 16.4521 179.407 16.7739C179.407 17.2565 179.237 17.6616 178.898 17.9891C178.559 18.3166 178.145 18.4803 177.657 18.4803H175.054V12.4474H177.467C177.939 12.4474 178.338 12.6054 178.665 12.9214C178.993 13.2374 179.157 13.6281 179.157 14.0935C179.157 14.6279 178.938 15.0473 178.502 15.3518ZM177.467 13.1972H175.856V15.0416H177.467C177.72 15.0416 177.933 14.9525 178.105 14.7744C178.278 14.5963 178.364 14.3779 178.364 14.1194C178.364 13.8666 178.275 13.6511 178.097 13.473C177.924 13.2891 177.714 13.1972 177.467 13.1972ZM177.657 17.7305C177.927 17.7305 178.154 17.6357 178.338 17.4461C178.522 17.2565 178.614 17.0238 178.614 16.748C178.614 16.478 178.519 16.2481 178.329 16.0585C178.145 15.8689 177.921 15.7741 177.657 15.7741H175.856V17.7305H177.657ZM182.641 12.4474H183.442V18.4803H182.641V12.4474Z" fill="#333333"/>
<path d="M149.156 25.3312L148.927 24.6997H147.66L147.43 25.3312H147.032L148.082 22.5158H148.504L149.554 25.3312H149.156ZM147.788 24.3498H148.798L148.291 22.9622L147.788 24.3498ZM150.944 25.3312L149.938 22.5158H150.34L151.157 24.8646L151.969 22.5158H152.376L151.366 25.3312H150.944ZM153.562 24.9772H154.87V25.3312H153.188V22.5158H154.849V22.8697H153.562V23.7345H154.749V24.0844H153.562V24.9772ZM157.553 22.5158H157.927V25.3312H157.626L156.178 23.2277V25.3312H155.804V22.5158H156.105L157.553 24.6153V22.5158ZM160.794 25.114C160.598 25.2936 160.345 25.3835 160.034 25.3835C159.723 25.3835 159.468 25.2936 159.27 25.114C159.074 24.9317 158.976 24.689 158.976 24.386V22.5158H159.35V24.3699C159.35 24.5683 159.409 24.7265 159.527 24.8445C159.645 24.9598 159.814 25.0175 160.034 25.0175C160.254 25.0175 160.423 24.9598 160.541 24.8445C160.659 24.7265 160.718 24.5683 160.718 24.3699V22.5158H161.088V24.386C161.088 24.689 160.99 24.9317 160.794 25.114ZM162.516 24.9772H163.823V25.3312H162.142V22.5158H163.803V22.8697H162.516V23.7345H163.703V24.0844H162.516V24.9772Z" fill="#333333"/>
<path d="M136.034 96.6807C136.751 96.6807 137.371 96.9272 137.894 97.4202L138.469 96.8451L138.902 97.3231L138.305 97.9132C138.599 98.3663 138.746 98.8593 138.746 99.3921C138.746 100.139 138.482 100.776 137.954 101.304C137.426 101.832 136.786 102.096 136.034 102.096C135.282 102.096 134.642 101.832 134.115 101.304C133.587 100.776 133.323 100.139 133.323 99.3921C133.323 98.6452 133.587 98.0078 134.115 97.48C134.642 96.9471 135.282 96.6807 136.034 96.6807ZM138.066 99.3921C138.066 99.0336 137.981 98.7049 137.812 98.4062L136.759 99.4519L136.333 98.9738L137.409 97.8982C137.03 97.5497 136.572 97.3754 136.034 97.3754C135.461 97.3754 134.978 97.5721 134.585 97.9655C134.192 98.3539 133.995 98.8294 133.995 99.3921C133.995 99.9548 134.192 100.433 134.585 100.826C134.978 101.215 135.461 101.409 136.034 101.409C136.602 101.409 137.082 101.215 137.476 100.826C137.869 100.433 138.066 99.9548 138.066 99.3921ZM137.954 89.4826C138.482 90.0054 138.746 90.6453 138.746 91.4022C138.746 92.1591 138.482 92.799 137.954 93.3218C137.426 93.8447 136.786 94.1061 136.034 94.1061C135.277 94.1061 134.637 93.8447 134.115 93.3218C133.587 92.799 133.323 92.1591 133.323 91.4022C133.323 90.6453 133.587 90.0054 134.115 89.4826C134.637 88.9547 135.277 88.6908 136.034 88.6908C136.786 88.6908 137.426 88.9547 137.954 89.4826ZM137.483 92.8438C137.872 92.4554 138.066 91.9749 138.066 91.4022C138.066 90.8296 137.872 90.3515 137.483 89.9681C137.09 89.5797 136.607 89.3855 136.034 89.3855C135.457 89.3855 134.973 89.5797 134.585 89.9681C134.192 90.3515 133.995 90.8296 133.995 91.4022C133.995 91.9749 134.192 92.4554 134.585 92.8438C134.973 93.2272 135.457 93.419 136.034 93.419C136.607 93.419 137.09 93.2272 137.483 92.8438ZM137.991 85.4987V82.9068H138.648V86.3203H138.043L134.077 83.7956V86.2531H133.42V82.9665H134.017L137.991 85.4987ZM133.42 76.2561L136.535 78.1085H138.648V78.8032H136.527L133.42 80.6481V79.8713L135.87 78.4521L133.42 77.0329V76.2561ZM135.937 70.6726C136.052 70.4336 136.216 70.2444 136.43 70.1049C136.644 69.9605 136.891 69.8883 137.169 69.8883C137.588 69.8883 137.939 70.0352 138.223 70.329C138.507 70.6228 138.648 70.9814 138.648 71.4046V73.6604H133.42V71.5689C133.42 71.1606 133.557 70.8145 133.831 70.5307C134.105 70.2469 134.443 70.1049 134.847 70.1049C135.31 70.1049 135.673 70.2942 135.937 70.6726ZM134.07 71.5689V72.9657H135.668V71.5689C135.668 71.3498 135.591 71.1656 135.437 71.0162C135.282 70.8668 135.093 70.7921 134.869 70.7921C134.65 70.7921 134.463 70.8693 134.309 71.0237C134.149 71.1731 134.07 71.3548 134.07 71.5689ZM137.999 71.4046C137.999 71.1706 137.916 70.9739 137.752 70.8145C137.588 70.6552 137.386 70.5755 137.147 70.5755C136.913 70.5755 136.714 70.6577 136.55 70.822C136.385 70.9814 136.303 71.1756 136.303 71.4046V72.9657H137.999V71.4046ZM138.648 63.6422L137.476 64.0679V66.4208L138.648 66.8465V67.586L133.42 65.6365V64.8522L138.648 62.9027V63.6422ZM136.826 66.1818V64.307L134.249 65.2481L136.826 66.1818ZM137.991 59.6119V57.1843H138.648V60.3065H133.42V57.2217H134.077V59.6119H135.683V57.4084H136.333V59.6119H137.991ZM138.648 52.9994L133.42 54.8668V54.1198L137.782 52.6035L133.42 51.0947V50.3403L138.648 52.2151V52.9994ZM138.648 44.6034L137.476 45.0292V47.382L138.648 47.8078V48.5472L133.42 46.5977V45.8134L138.648 43.8639V44.6034ZM136.826 47.143V45.2682L134.249 46.2093L136.826 47.143Z" fill="#333333"/>
<path d="M144.552 79.6693C144.552 79.932 144.491 80.1573 144.367 80.345C144.244 80.53 144.075 80.66 143.861 80.7351L143.675 80.4133C144.016 80.3034 144.186 80.0527 144.186 79.6612C144.186 79.4682 144.147 79.3207 144.07 79.2188C143.989 79.1169 143.883 79.066 143.752 79.066C143.618 79.066 143.517 79.1169 143.45 79.2188C143.383 79.3207 143.312 79.491 143.237 79.7296C143.2 79.8476 143.17 79.9374 143.149 79.9991C143.124 80.0607 143.09 80.1385 143.044 80.2323C142.996 80.3235 142.948 80.3919 142.899 80.4375C142.848 80.483 142.783 80.5246 142.702 80.5621C142.622 80.597 142.531 80.6144 142.429 80.6144C142.185 80.6144 141.992 80.5286 141.85 80.357C141.705 80.1854 141.632 79.9763 141.632 79.7296C141.632 79.507 141.689 79.314 141.801 79.1504C141.914 78.9842 142.063 78.8595 142.248 78.7764L142.429 79.0901C142.139 79.2108 141.994 79.4239 141.994 79.7296C141.994 79.8824 142.032 80.0058 142.107 80.0996C142.182 80.1935 142.284 80.2404 142.413 80.2404C142.536 80.2404 142.63 80.1961 142.694 80.1077C142.758 80.0192 142.826 79.8663 142.895 79.6492C142.919 79.5714 142.937 79.5164 142.948 79.4843C142.958 79.4521 142.977 79.4025 143.004 79.3354C143.031 79.2657 143.052 79.2148 143.068 79.1826C143.084 79.1504 143.107 79.1075 143.137 79.0539C143.166 78.9976 143.194 78.956 143.221 78.9292C143.248 78.9024 143.281 78.8716 143.322 78.8367C143.359 78.7992 143.398 78.7724 143.438 78.7563C143.478 78.7402 143.525 78.7268 143.579 78.7161C143.63 78.7027 143.685 78.6959 143.744 78.6959C143.991 78.6959 144.188 78.7858 144.335 78.9654C144.48 79.1451 144.552 79.3797 144.552 79.6693ZM141.685 76.0707H142.039V76.9032H144.5V77.2732H142.039V78.1018H141.685V76.0707ZM144.5 73.5487L143.422 74.1802V74.8438H144.5V75.2178H141.685V74.0917C141.685 73.8504 141.77 73.6439 141.942 73.4723C142.111 73.3007 142.316 73.2149 142.557 73.2149C142.74 73.2149 142.906 73.2699 143.056 73.3798C143.206 73.4871 143.312 73.6265 143.374 73.7981L144.5 73.1345V73.5487ZM142.035 74.8438H143.084V74.0917C143.084 73.9523 143.033 73.8343 142.931 73.7378C142.827 73.6386 142.702 73.5889 142.557 73.5889C142.413 73.5889 142.289 73.6386 142.187 73.7378C142.085 73.8343 142.035 73.9523 142.035 74.0917V74.8438ZM144.146 71.9024V70.5953H144.5V72.2765H141.685V70.6154H142.039V71.9024H142.903V70.7159H143.253V71.9024H144.146ZM144.146 69.287V67.9799H144.5V69.6611H141.685V68H142.039V69.287H142.903V68.1005H143.253V69.287H144.146ZM141.685 65.2438H142.039V66.0764H144.5V66.4464H142.039V67.2749H141.685V65.2438Z" fill="#333333"/>
<path d="M193.622 95.0581H194.156V99.0801H193.725L191.657 96.0751V99.0801H191.122V95.0581H191.553L193.622 98.0573V95.0581ZM199.056 98.7698C198.776 99.0265 198.414 99.1548 197.97 99.1548C197.525 99.1548 197.161 99.0265 196.878 98.7698C196.598 98.5093 196.459 98.1627 196.459 97.7298V95.0581H196.993V97.7069C196.993 97.9903 197.077 98.2163 197.246 98.3849C197.414 98.5496 197.656 98.6319 197.97 98.6319C198.284 98.6319 198.525 98.5496 198.694 98.3849C198.862 98.2163 198.946 97.9903 198.946 97.7069V95.0581H199.475V97.7298C199.475 98.1627 199.335 98.5093 199.056 98.7698ZM204.17 99.0801L203.268 97.5402H202.32V99.0801H201.786V95.0581H203.395C203.739 95.0581 204.034 95.1807 204.28 95.4258C204.525 95.6671 204.647 95.9602 204.647 96.3049C204.647 96.5654 204.569 96.8029 204.412 97.0174C204.259 97.2319 204.059 97.3832 203.814 97.4713L204.762 99.0801H204.17ZM202.32 95.558V97.0576H203.395C203.594 97.0576 203.762 96.9848 203.9 96.8393C204.042 96.6899 204.113 96.5118 204.113 96.3049C204.113 96.0981 204.042 95.9219 203.9 95.7763C203.762 95.6308 203.594 95.558 203.395 95.558H202.32ZM207.327 98.5745H209.062V99.0801H206.792V95.0581H207.327V98.5745ZM213.563 95.0581L212.138 97.454V99.0801H211.604V97.4483L210.185 95.0581H210.782L211.874 96.9427L212.966 95.0581H213.563ZM218.105 95.0581V95.5637H216.916V99.0801H216.387V95.5637H215.204V95.0581H218.105ZM222.485 99.0801L222.158 98.178H220.348L220.02 99.0801H219.451L220.951 95.0581H221.554L223.054 99.0801H222.485ZM220.532 97.6781H221.974L221.25 95.6959L220.532 97.6781ZM227.455 98.7698C227.176 99.0265 226.814 99.1548 226.369 99.1548C225.925 99.1548 225.561 99.0265 225.278 98.7698C224.998 98.5093 224.858 98.1627 224.858 97.7298V95.0581H225.393V97.7069C225.393 97.9903 225.477 98.2163 225.646 98.3849C225.814 98.5496 226.055 98.6319 226.369 98.6319C226.684 98.6319 226.925 98.5496 227.093 98.3849C227.262 98.2163 227.346 97.9903 227.346 97.7069V95.0581H227.875V97.7298C227.875 98.1627 227.735 98.5093 227.455 98.7698Z" fill="#333333"/>
<path d="M193.829 103.679C193.939 103.732 194.027 103.808 194.091 103.907C194.158 104.006 194.191 104.12 194.191 104.248C194.191 104.441 194.123 104.603 193.988 104.734C193.852 104.865 193.686 104.931 193.491 104.931H192.45V102.518H193.415C193.604 102.518 193.763 102.581 193.894 102.707C194.025 102.834 194.091 102.99 194.091 103.176C194.091 103.39 194.004 103.558 193.829 103.679ZM193.415 102.818H192.771V103.555H193.415C193.516 103.555 193.601 103.52 193.67 103.449C193.739 103.377 193.774 103.29 193.774 103.187C193.774 103.085 193.738 102.999 193.667 102.928C193.598 102.854 193.514 102.818 193.415 102.818ZM193.491 104.631C193.599 104.631 193.69 104.593 193.763 104.517C193.837 104.441 193.874 104.348 193.874 104.238C193.874 104.13 193.836 104.038 193.76 103.962C193.686 103.886 193.597 103.848 193.491 103.848H192.771V104.631H193.491ZM196.495 104.745C196.327 104.899 196.11 104.976 195.843 104.976C195.577 104.976 195.358 104.899 195.188 104.745C195.021 104.588 194.937 104.38 194.937 104.121V102.518H195.257V104.107C195.257 104.277 195.308 104.413 195.409 104.514C195.51 104.613 195.655 104.662 195.843 104.662C196.032 104.662 196.177 104.613 196.278 104.514C196.379 104.413 196.429 104.277 196.429 104.107V102.518H196.747V104.121C196.747 104.38 196.663 104.588 196.495 104.745ZM198.43 104.976C198.204 104.976 198.011 104.923 197.851 104.817C197.692 104.711 197.58 104.567 197.516 104.383L197.792 104.224C197.886 104.516 198.101 104.662 198.437 104.662C198.602 104.662 198.728 104.629 198.816 104.562C198.903 104.493 198.947 104.402 198.947 104.29C198.947 104.175 198.903 104.089 198.816 104.031C198.728 103.974 198.583 103.913 198.378 103.848C198.277 103.816 198.2 103.791 198.147 103.773C198.094 103.752 198.027 103.722 197.947 103.683C197.869 103.642 197.81 103.6 197.771 103.559C197.732 103.515 197.697 103.459 197.664 103.39C197.634 103.321 197.62 103.243 197.62 103.155C197.62 102.946 197.693 102.781 197.84 102.659C197.987 102.535 198.167 102.473 198.378 102.473C198.569 102.473 198.734 102.521 198.874 102.618C199.017 102.714 199.124 102.842 199.195 103L198.926 103.155C198.823 102.907 198.64 102.783 198.378 102.783C198.247 102.783 198.141 102.815 198.061 102.88C197.98 102.944 197.94 103.031 197.94 103.142C197.94 103.247 197.978 103.328 198.054 103.383C198.13 103.438 198.261 103.496 198.447 103.555C198.514 103.576 198.561 103.591 198.588 103.6C198.616 103.609 198.658 103.625 198.716 103.648C198.776 103.671 198.819 103.69 198.847 103.704C198.874 103.717 198.911 103.737 198.957 103.762C199.005 103.788 199.041 103.812 199.064 103.835C199.087 103.858 199.113 103.886 199.143 103.921C199.175 103.953 199.198 103.986 199.212 104.021C199.226 104.055 199.238 104.095 199.247 104.141C199.258 104.185 199.264 104.232 199.264 104.283C199.264 104.494 199.187 104.663 199.033 104.79C198.879 104.914 198.678 104.976 198.43 104.976ZM200.04 102.518H200.361V104.931H200.04V102.518ZM202.792 102.518H203.113V104.931H202.854L201.613 103.128V104.931H201.292V102.518H201.551L202.792 104.317V102.518ZM204.363 104.628H205.484V104.931H204.043V102.518H205.466V102.821H204.363V103.562H205.38V103.862H204.363V104.628ZM207.063 104.976C206.838 104.976 206.645 104.923 206.484 104.817C206.326 104.711 206.214 104.567 206.15 104.383L206.426 104.224C206.52 104.516 206.735 104.662 207.07 104.662C207.236 104.662 207.362 104.629 207.45 104.562C207.537 104.493 207.581 104.402 207.581 104.29C207.581 104.175 207.537 104.089 207.45 104.031C207.362 103.974 207.216 103.913 207.012 103.848C206.911 103.816 206.834 103.791 206.781 103.773C206.728 103.752 206.661 103.722 206.581 103.683C206.503 103.642 206.444 103.6 206.405 103.559C206.366 103.515 206.33 103.459 206.298 103.39C206.268 103.321 206.253 103.243 206.253 103.155C206.253 102.946 206.327 102.781 206.474 102.659C206.621 102.535 206.8 102.473 207.012 102.473C207.202 102.473 207.368 102.521 207.508 102.618C207.651 102.714 207.758 102.842 207.829 103L207.56 103.155C207.456 102.907 207.274 102.783 207.012 102.783C206.881 102.783 206.775 102.815 206.695 102.88C206.614 102.944 206.574 103.031 206.574 103.142C206.574 103.247 206.612 103.328 206.688 103.383C206.764 103.438 206.895 103.496 207.081 103.555C207.147 103.576 207.194 103.591 207.222 103.6C207.25 103.609 207.292 103.625 207.35 103.648C207.409 103.671 207.453 103.69 207.481 103.704C207.508 103.717 207.545 103.737 207.591 103.762C207.639 103.788 207.675 103.812 207.698 103.835C207.721 103.858 207.747 103.886 207.777 103.921C207.809 103.953 207.832 103.986 207.846 104.021C207.86 104.055 207.871 104.095 207.88 104.141C207.892 104.185 207.898 104.232 207.898 104.283C207.898 104.494 207.821 104.663 207.667 104.79C207.513 104.914 207.312 104.976 207.063 104.976ZM209.386 104.976C209.161 104.976 208.968 104.923 208.807 104.817C208.648 104.711 208.537 104.567 208.472 104.383L208.748 104.224C208.842 104.516 209.057 104.662 209.393 104.662C209.558 104.662 209.685 104.629 209.772 104.562C209.859 104.493 209.903 104.402 209.903 104.29C209.903 104.175 209.859 104.089 209.772 104.031C209.685 103.974 209.539 103.913 209.334 103.848C209.233 103.816 209.156 103.791 209.103 103.773C209.05 103.752 208.984 103.722 208.903 103.683C208.825 103.642 208.767 103.6 208.728 103.559C208.688 103.515 208.653 103.459 208.621 103.39C208.591 103.321 208.576 103.243 208.576 103.155C208.576 102.946 208.649 102.781 208.796 102.659C208.944 102.535 209.123 102.473 209.334 102.473C209.525 102.473 209.691 102.521 209.831 102.618C209.973 102.714 210.08 102.842 210.151 103L209.882 103.155C209.779 102.907 209.596 102.783 209.334 102.783C209.203 102.783 209.098 102.815 209.017 102.88C208.937 102.944 208.896 103.031 208.896 103.142C208.896 103.247 208.934 103.328 209.01 103.383C209.086 103.438 209.217 103.496 209.403 103.555C209.47 103.576 209.517 103.591 209.545 103.6C209.572 103.609 209.615 103.625 209.672 103.648C209.732 103.671 209.776 103.69 209.803 103.704C209.831 103.717 209.867 103.737 209.913 103.762C209.962 103.788 209.997 103.812 210.02 103.835C210.043 103.858 210.07 103.886 210.1 103.921C210.132 103.953 210.155 103.986 210.169 104.021C210.182 104.055 210.194 104.095 210.203 104.141C210.215 104.185 210.22 104.232 210.22 104.283C210.22 104.494 210.143 104.663 209.989 104.79C209.835 104.914 209.634 104.976 209.386 104.976ZM213.423 104.976C213.058 104.976 212.756 104.855 212.517 104.614C212.28 104.372 212.162 104.076 212.162 103.724C212.162 103.373 212.28 103.076 212.517 102.835C212.756 102.594 213.058 102.473 213.423 102.473C213.644 102.473 213.846 102.526 214.03 102.631C214.216 102.737 214.361 102.88 214.464 103.059L214.185 103.221C214.116 103.088 214.013 102.982 213.875 102.904C213.739 102.823 213.589 102.783 213.423 102.783C213.145 102.783 212.918 102.873 212.741 103.052C212.566 103.231 212.479 103.455 212.479 103.724C212.479 103.991 212.566 104.214 212.741 104.393C212.918 104.572 213.145 104.662 213.423 104.662C213.589 104.662 213.739 104.623 213.875 104.545C214.013 104.464 214.116 104.359 214.185 104.228L214.464 104.386C214.363 104.565 214.22 104.709 214.034 104.817C213.847 104.923 213.644 104.976 213.423 104.976ZM215.562 104.628H216.682V104.931H215.241V102.518H216.665V102.821H215.562V103.562H216.579V103.862H215.562V104.628ZM218.983 102.518H219.303V104.931H219.045L217.804 103.128V104.931H217.483V102.518H217.742L218.983 104.317V102.518ZM221.778 102.518V102.821H221.064V104.931H220.747V102.821H220.037V102.518H221.778ZM222.829 104.628H223.95V104.931H222.509V102.518H223.932V102.821H222.829V103.562H223.846V103.862H222.829V104.628ZM226.181 104.931L225.64 104.007H225.071V104.931H224.75V102.518H225.716C225.922 102.518 226.099 102.591 226.246 102.738C226.394 102.883 226.467 103.059 226.467 103.266C226.467 103.422 226.42 103.565 226.326 103.693C226.234 103.822 226.114 103.913 225.967 103.966L226.536 104.931H226.181ZM225.071 102.818V103.717H225.716C225.835 103.717 225.936 103.674 226.019 103.586C226.104 103.497 226.147 103.39 226.147 103.266C226.147 103.142 226.104 103.036 226.019 102.949C225.936 102.861 225.835 102.818 225.716 102.818H225.071Z" fill="#333333"/>
<path d="M177.617 94.8037H182.501C182.977 94.8037 183.363 94.4178 183.363 93.9419V87.2154C183.363 87.0138 183.434 86.8186 183.563 86.6637L183.989 86.1527C184.05 86.0791 184.123 86.0163 184.205 85.9667L190.232 82.3253C190.642 82.0777 190.772 81.5436 190.521 81.1359L187.961 76.9773C187.719 76.5841 187.211 76.4514 186.807 76.6764L181.548 79.612C181.419 79.6837 181.275 79.7213 181.128 79.7213H178.991C178.844 79.7213 178.699 79.6837 178.571 79.612L173.339 76.692C172.925 76.4608 172.401 76.6079 172.168 77.0211L169.817 81.1885C169.598 81.5775 169.712 82.0698 170.08 82.3225L176.381 86.6466C176.615 86.8073 176.755 87.0732 176.755 87.3572V93.9419C176.755 94.4178 177.141 94.8037 177.617 94.8037Z" fill="#E5819D"/>
<path d="M188.58 76.5864L191.232 80.7243C191.488 81.1231 192.017 81.2408 192.418 80.9879L194.213 79.8545C194.35 79.7675 194.51 79.7213 194.673 79.7213H197.221C197.365 79.7213 197.506 79.7571 197.632 79.8253L200.134 81.1808C200.551 81.4065 201.072 81.2535 201.3 80.8383L203.649 76.5665C203.872 76.162 203.736 75.654 203.342 75.4144L200.2 73.5073C200.085 73.4374 199.988 73.3416 199.917 73.2274L199.438 72.4615C199.353 72.3245 199.307 72.1663 199.307 72.0047V56.4332C199.307 56.2579 199.361 56.0868 199.46 55.9426L200.499 54.4427C200.566 54.3464 200.651 54.2646 200.751 54.2025L203.322 52.5956C203.723 52.3446 203.847 51.8165 203.599 51.4131L201.041 47.2569C200.796 46.8582 200.277 46.7283 199.873 46.9641L197.354 48.4336C197.222 48.5105 197.072 48.551 196.92 48.551H194.794C194.645 48.551 194.499 48.5124 194.369 48.4389L190.499 46.2458C190.342 46.1569 190.217 46.0209 190.142 45.8572L189.475 44.4136C189.423 44.3003 189.396 44.1771 189.396 44.0524V41.0816C189.396 40.6056 189.01 40.2197 188.534 40.2197H183.794C183.318 40.2197 182.932 40.6056 182.932 41.0816V43.9978C182.932 44.1573 182.888 44.3136 182.804 44.4495L181.9 45.9182C181.823 46.0434 181.716 46.1467 181.587 46.2185L178.972 47.683C178.546 47.9217 178.403 48.4666 178.657 48.8837L181.326 53.2593C181.577 53.6712 182.117 53.7967 182.524 53.5377L184.731 52.1331C184.87 52.0451 185.03 51.9984 185.194 51.9984H187.307C187.452 51.9984 187.595 52.0353 187.723 52.1056L191.495 54.187C191.626 54.2589 191.735 54.3632 191.813 54.4899L192.715 55.9562C192.799 56.0921 192.843 56.2484 192.843 56.4079V72.0047C192.843 72.1663 192.798 72.3245 192.712 72.4615L192.234 73.2274C192.162 73.3416 192.065 73.4374 191.95 73.5073L188.858 75.3846C188.444 75.6359 188.318 76.1788 188.58 76.5864Z" fill="#E5819D"/>
<path d="M182.501 101.411H176.755C176.517 101.411 176.325 101.604 176.325 101.842V108.751C176.325 108.837 176.312 108.922 176.286 109.005L175.848 110.429C175.785 110.634 175.648 110.808 175.463 110.918L170.142 114.062C169.744 114.297 169.602 114.804 169.821 115.211L172.154 119.559C172.39 119.999 172.949 120.147 173.371 119.881L178.556 116.626C178.694 116.539 178.852 116.494 179.015 116.494H181.113C181.269 116.494 181.423 116.536 181.557 116.616L192.659 123.278C192.78 123.35 192.881 123.452 192.954 123.573L193.582 124.62C193.663 124.754 193.705 124.907 193.705 125.064V131.576C193.705 132.052 194.091 132.438 194.567 132.438H199.164C199.64 132.438 200.025 132.052 200.025 131.576V125.064C200.025 124.907 200.068 124.754 200.148 124.62L200.778 123.571C200.85 123.451 200.95 123.351 201.069 123.278L206.763 119.812C207.168 119.565 207.298 119.038 207.054 118.632L204.494 114.365C204.248 113.955 203.715 113.824 203.306 114.073L198.365 117.086C198.23 117.168 198.074 117.212 197.916 117.212H195.94C195.793 117.212 195.649 117.175 195.521 117.103L184.355 110.9C184.178 110.802 184.041 110.645 183.969 110.456L183.42 109.03C183.382 108.931 183.363 108.826 183.363 108.721V102.273C183.363 101.797 182.977 101.411 182.501 101.411Z" fill="#E5819D"/>
<path d="M217.682 114.426L215.367 118.634C215.143 119.042 215.283 119.555 215.684 119.792L217.996 121.158C218.081 121.208 218.157 121.273 218.22 121.348L219.361 122.718C219.49 122.873 219.561 123.068 219.561 123.27V142.237C219.561 142.404 219.512 142.567 219.422 142.707L217.982 144.921C217.805 145.194 217.796 145.543 217.959 145.824L220.018 149.369C220.179 149.646 220.479 149.811 220.798 149.798L223.601 149.686C223.776 149.679 223.949 149.725 224.097 149.819L228.025 152.306C228.127 152.371 228.214 152.456 228.281 152.556L229.184 153.911C229.278 154.052 229.328 154.219 229.328 154.389V157.432C229.328 157.908 229.714 158.294 230.19 158.294H235.074C235.55 158.294 235.936 157.908 235.936 157.432V154.389C235.936 154.219 235.986 154.052 236.081 153.911L236.982 152.559C237.05 152.457 237.139 152.371 237.242 152.306L239.815 150.698C240.213 150.449 240.339 149.927 240.097 149.524L237.537 145.256C237.289 144.843 236.75 144.714 236.341 144.969L233.869 146.514C233.719 146.608 233.542 146.653 233.365 146.643L231.304 146.529C231.139 146.52 230.981 146.464 230.848 146.368L227.536 143.983C227.486 143.947 227.44 143.906 227.399 143.861L226.39 142.739C226.247 142.58 226.168 142.375 226.168 142.162V123.245C226.168 123.058 226.229 122.877 226.341 122.728L227.353 121.378C227.424 121.283 227.515 121.204 227.618 121.145L230.009 119.794C230.426 119.558 230.571 119.029 230.332 118.614L227.91 114.402C227.666 113.976 227.115 113.841 226.701 114.105L224.513 115.497C224.374 115.585 224.214 115.632 224.05 115.632H221.535C221.372 115.632 221.211 115.585 221.073 115.497L218.899 114.114C218.48 113.847 217.921 113.99 217.682 114.426Z" fill="#E5819D"/>
<path d="M217.565 47.3115L215.347 51.4307C215.132 51.8308 215.264 52.3294 215.649 52.5702L218.218 54.1756C218.345 54.2549 218.449 54.366 218.52 54.4978L219.314 55.9727C219.382 56.0983 219.417 56.2387 219.417 56.3813V72.0009C219.417 72.1648 219.37 72.3254 219.282 72.4636L218.524 73.6556C218.45 73.7715 218.35 73.8681 218.231 73.9373L215.676 75.4277C215.278 75.66 215.133 76.1645 215.347 76.5727L217.582 80.8286C217.802 81.2488 218.321 81.4116 218.742 81.1926L221.385 79.8185C221.508 79.7546 221.644 79.7213 221.782 79.7213H224.09C224.229 79.7213 224.365 79.7546 224.488 79.8185L227.115 81.1847C227.542 81.4067 228.068 81.236 228.284 80.8054L230.428 76.5172C230.621 76.1311 230.498 75.6618 230.141 75.4191L227.241 73.4468C227.196 73.4164 227.155 73.3818 227.116 73.3435L226.277 72.5043C226.115 72.3427 226.025 72.1235 226.025 71.8949V56.4079C226.025 56.2484 226.069 56.0921 226.153 55.9562L227.042 54.5108C227.128 54.3709 227.252 54.2586 227.4 54.187L231.736 52.0847C231.853 52.0279 231.982 51.9984 232.112 51.9984H233.529C233.694 51.9984 233.855 52.0456 233.994 52.1343L236.611 53.8095C237.026 54.0747 237.578 53.9397 237.823 53.5132L240.257 49.2797C240.49 48.8743 240.358 48.357 239.958 48.1139L237.547 46.6462C237.432 46.5763 237.335 46.4807 237.264 46.3668L236.067 44.4513C235.981 44.3143 235.936 44.1561 235.936 43.9945V41.0816C235.936 40.6056 235.55 40.2197 235.074 40.2197H230.047C229.571 40.2197 229.185 40.6056 229.185 41.0816V44.0159C229.185 44.164 229.147 44.3095 229.074 44.4385L228.025 46.3041C227.938 46.4576 227.807 46.581 227.648 46.6577L223.904 48.4653C223.787 48.5217 223.659 48.551 223.529 48.551H221.797C221.649 48.551 221.504 48.5131 221.376 48.4411L218.745 46.9681C218.325 46.7328 217.794 46.8875 217.565 47.3115Z" fill="#E5819D"/>
<path d="M230.778 76.8014L228.547 81.1586C228.34 81.5623 228.481 82.0572 228.87 82.2906L234.428 85.6251C234.569 85.7095 234.682 85.8321 234.755 85.9787L235.27 87.0087C235.33 87.1284 235.361 87.2603 235.361 87.3941V93.9419C235.361 94.4178 235.747 94.8037 236.223 94.8037H241.107C241.583 94.8037 241.969 94.4179 241.969 93.9419V87.4624C241.969 87.2855 242.023 87.113 242.125 86.9681L242.867 85.9082C242.938 85.8068 243.03 85.7218 243.136 85.6592L248.809 82.3297C249.231 82.082 249.362 81.5332 249.098 81.1213L246.433 76.9634C246.185 76.5771 245.678 76.4526 245.28 76.6803L240.157 79.6077C240.026 79.6822 239.879 79.7213 239.729 79.7213H237.752C237.597 79.7213 237.446 79.6799 237.313 79.6014L231.984 76.4523C231.557 76.1998 231.005 76.3596 230.778 76.8014Z" fill="#E5819D"/>
</g>
<defs>
<clipPath id="clip0_10053_26804">
<rect width="310" height="183" rx="16" fill="white"/>
</clipPath>
</defs>
</svg>
