<svg width="164" height="120" viewBox="0 0 164 120" fill="none" xmlns="http://www.w3.org/2000/svg">
<path d="M137.409 96.7241C137.203 96.886 136.993 97.0332 136.782 97.1853H31.73C14.9918 85.6594 16.4416 64.3905 28.8942 55.5945C32.5528 53.0089 36.8481 51.7529 40.7076 49.5499C44.567 47.347 48.2208 43.7016 48.7105 38.9376C49.1758 34.4434 46.7318 30.1062 46.918 25.5924C47.5571 10.48 77.9791 -0.242709 97.0368 18.7089C106.012 27.6197 106.222 28.2968 119.905 23.1442C130.267 19.2417 137.68 24.0273 133.79 37.5197C132.614 41.6017 131.125 45.9634 132.34 50.0258C133.32 53.3131 135.866 55.6632 137.933 58.2635C147.958 70.8742 146.222 89.6654 137.409 96.7241Z" fill="#FBFAFA"/>
<path d="M96.6376 63.5175H44.166V111.428H96.6376V63.5175Z" fill="#F1C275"/>
<path d="M124.525 63.5175H96.6348V111.428H124.525V63.5175Z" fill="#D9A059"/>
<path d="M124.525 63.6365H96.6348L106.188 50.5606C106.279 50.4354 106.399 50.3335 106.537 50.2634C106.675 50.1932 106.827 50.1566 106.982 50.1566H132.43C132.612 50.1566 132.791 50.2072 132.946 50.3028C133.101 50.3984 133.226 50.5352 133.309 50.6981C133.391 50.861 133.427 51.0436 133.412 51.2256C133.397 51.4076 133.332 51.5819 133.224 51.7292L124.525 63.6365Z" fill="#CF9449"/>
<path d="M44.2923 63.6365H72.1826L62.6294 50.5606C62.538 50.4354 62.4184 50.3335 62.2804 50.2634C62.1424 50.1932 61.9899 50.1566 61.8352 50.1566H36.3872C36.2052 50.1566 36.0268 50.2072 35.8717 50.3028C35.7166 50.3984 35.591 50.5352 35.5087 50.6981C35.4265 50.861 35.3908 51.0436 35.4056 51.2256C35.4205 51.4076 35.4853 51.5819 35.5929 51.7292L44.2923 63.6365Z" fill="#D9A059"/>
<path d="M140.256 81.0966L124.521 63.6372V82.7304H139.511C139.699 82.7303 139.884 82.676 140.043 82.5737C140.201 82.4715 140.327 82.3257 140.406 82.1536C140.484 81.9815 140.512 81.7904 140.486 81.6031C140.459 81.4157 140.379 81.2399 140.256 81.0966Z" fill="#CF9449"/>
<path d="M90.1852 37.8215H53.7949V63.6367H90.1852V37.8215Z" fill="#D5033E"/>
<path d="M70.9233 65.23H60.9116C60.7183 65.23 60.5284 65.179 60.3611 65.082C60.1937 64.985 60.0547 64.8455 59.9581 64.6776C59.8614 64.5096 59.8105 64.3191 59.8105 64.1252C59.8105 63.9312 59.8614 63.7407 59.9581 63.5727L64.9639 54.8721L69.9698 46.1714C70.0664 46.0035 70.2054 45.864 70.3728 45.767C70.5402 45.6701 70.73 45.619 70.9233 45.619C71.1166 45.619 71.3064 45.6701 71.4738 45.767C71.6412 45.864 71.7802 46.0035 71.8768 46.1714L76.8827 54.8721L81.8886 63.5727C81.9852 63.7407 82.0361 63.9312 82.0361 64.1252C82.0361 64.3191 81.9852 64.5096 81.8886 64.6776C81.7919 64.8455 81.6529 64.985 81.4856 65.082C81.3182 65.179 81.1283 65.23 80.9351 65.23H70.9233Z" fill="#FFC7D7"/>
<path d="M71.4747 51.0592C71.4747 50.754 71.2281 50.5065 70.9239 50.5065C70.6197 50.5065 70.373 50.754 70.373 51.0592V59.2987C70.373 59.604 70.6197 59.8514 70.9239 59.8514C71.2281 59.8514 71.4747 59.604 71.4747 59.2987V51.0592Z" fill="#D5033E"/>
<path d="M72.2348 62.1454C72.3065 61.4187 71.7776 60.7712 71.0534 60.6993C70.3292 60.6273 69.684 61.1581 69.6123 61.8848C69.5406 62.6116 70.0695 63.259 70.7937 63.331C71.5179 63.4029 72.1631 62.8722 72.2348 62.1454Z" fill="#D5033E"/>
<path d="M79.652 82.7304H29.7817C29.5931 82.7304 29.4084 82.676 29.2497 82.5738C29.091 82.4715 28.9649 82.3257 28.8863 82.1536C28.8078 81.9815 28.7801 81.7905 28.8067 81.6031C28.8332 81.4157 28.9128 81.2399 29.036 81.0966L44.0453 63.6372H96.5168L80.3977 82.3876C80.3052 82.4952 80.1908 82.5815 80.0621 82.6406C79.9334 82.6997 79.7935 82.7304 79.652 82.7304Z" fill="#FACE85"/>
</svg>
