<svg width="164" height="120" viewBox="0 0 164 120" fill="none" xmlns="http://www.w3.org/2000/svg">
<path d="M143.777 107.821C143.548 108.001 143.313 108.166 143.078 108.336H25.8231C7.14079 95.4633 8.75893 71.7098 22.6579 61.8863C26.7415 58.9986 31.5358 57.5959 35.8435 55.1356C40.1513 52.6753 44.2294 48.6041 44.7761 43.2835C45.2954 38.2644 42.5675 33.4205 42.7753 28.3794C43.4887 11.5016 77.4443 -0.47372 98.7157 20.6918C108.734 30.6435 108.968 31.3997 124.24 25.6452C135.805 21.2868 144.079 26.6315 139.738 41.7C138.426 46.2589 136.764 51.1301 138.119 55.6671C139.213 59.3383 142.055 61.963 144.362 64.8671C155.551 78.9509 153.614 99.9372 143.777 107.821Z" fill="#FBFAFA"/>
<path d="M64.7481 108.197C64.1515 108.197 63.5796 107.959 63.1577 107.536C62.7359 107.113 62.4986 106.54 62.498 105.942V33.2826C62.4988 32.6847 62.7361 32.1116 63.1579 31.6889C63.5797 31.2661 64.1516 31.0284 64.7481 31.0278H119.604C120.201 31.0284 120.773 31.2661 121.195 31.6889C121.617 32.1116 121.854 32.6847 121.855 33.2826V105.942C121.854 106.54 121.617 107.114 121.195 107.536C120.773 107.959 120.201 108.197 119.604 108.198H64.7481V108.197Z" fill="#A1172F"/>
<path d="M69.8355 108.197C69.239 108.196 68.6671 107.959 68.2454 107.536C67.8237 107.113 67.5865 106.54 67.5859 105.942V33.2826C67.5867 32.6848 67.8239 32.1117 68.2456 31.689C68.6673 31.2663 69.2391 31.0286 69.8355 31.0278H124.692C125.289 31.0286 125.861 31.2663 126.282 31.689C126.704 32.1117 126.941 32.6848 126.942 33.2826V105.942C126.941 106.54 126.704 107.113 126.282 107.536C125.861 107.959 125.289 108.197 124.692 108.198H69.8355V108.197Z" fill="#D5033E"/>
<path d="M122.022 33.5083H72.5067C72.2703 33.5083 72.0362 33.555 71.8178 33.6457C71.5995 33.7363 71.4011 33.8693 71.2339 34.0368C71.0668 34.2044 70.9343 34.4033 70.8439 34.6222C70.7535 34.8411 70.707 35.0758 70.707 35.3127V103.912C70.707 104.149 70.7535 104.383 70.8439 104.602C70.9343 104.821 71.0668 105.02 71.2339 105.187C71.4011 105.355 71.5995 105.488 71.8178 105.579C72.0362 105.669 72.2703 105.716 72.5067 105.716H122.023C122.259 105.716 122.493 105.669 122.711 105.579C122.93 105.488 123.128 105.355 123.295 105.187C123.462 105.02 123.595 104.821 123.685 104.602C123.776 104.383 123.822 104.149 123.822 103.912V35.3127C123.822 35.0758 123.776 34.8411 123.685 34.6222C123.595 34.4033 123.462 34.2044 123.295 34.0368C123.128 33.8693 122.93 33.7363 122.711 33.6457C122.493 33.555 122.259 33.5083 122.023 33.5083H122.022Z" fill="white"/>
<path d="M112.964 28.2336H77.0739C76.8954 28.2336 76.7187 28.2689 76.5538 28.3373C76.3889 28.4058 76.2391 28.5061 76.1129 28.6326C75.9867 28.7591 75.8866 28.9093 75.8183 29.0745C75.75 29.2398 75.7148 29.4169 75.7148 29.5958V32.146C75.7148 32.3249 75.75 32.502 75.8183 32.6673C75.8866 32.8325 75.9867 32.9827 76.1129 33.1092C76.2391 33.2357 76.3889 33.336 76.5538 33.4045C76.7187 33.4729 76.8954 33.5082 77.0739 33.5082H112.964C113.142 33.5082 113.319 33.4729 113.484 33.4045C113.648 33.336 113.798 33.2357 113.924 33.1092C114.051 32.9827 114.151 32.8325 114.219 32.6672C114.287 32.502 114.322 32.3248 114.322 32.146V29.5958C114.322 29.2347 114.179 28.8883 113.924 28.6328C113.669 28.3774 113.324 28.2338 112.964 28.2336H112.964Z" fill="#D5033E"/>
<path d="M106.192 23.0267H103.595C101.937 23.0267 100.54 21.6837 100.583 20.0218C100.586 19.8976 100.585 19.7733 100.58 19.6492C100.493 17.4958 99.1432 15.6251 97.2638 14.7791V14.2969H95.0197L95.0088 14.304C91.942 14.3106 89.4546 16.7993 89.4546 19.8788V19.9133C89.4601 21.6256 88.0667 23.0267 86.3583 23.0267H83.8469C83.3965 23.0267 82.9644 23.2061 82.6459 23.5254C82.3274 23.8447 82.1484 24.2777 82.1484 24.7292V29.4043H107.89V24.7287C107.89 24.2771 107.711 23.8441 107.393 23.5248C107.074 23.2056 106.642 23.0262 106.192 23.0262V23.0267ZM95.0192 22.7571C93.4355 22.7571 92.1437 21.4667 92.1437 19.8788C92.1444 19.1146 92.4476 18.3819 92.9867 17.8416C93.5258 17.3012 94.2568 16.9973 95.0192 16.9966C95.7816 16.9973 96.5125 17.3012 97.0516 17.8416C97.5907 18.3819 97.8939 19.1146 97.8946 19.8788C97.8946 21.4667 96.6034 22.7571 95.0192 22.7571Z" fill="#A1172F"/>
<path d="M108.436 23.0271H105.839C104.181 23.0271 102.785 21.6841 102.827 20.0222C102.829 19.8994 102.829 19.7756 102.824 19.6496C102.709 16.7838 100.356 14.4189 97.4962 14.3016C94.3179 14.1718 91.6982 16.7181 91.6982 19.8792V19.9137C91.7037 21.626 90.3108 23.0271 88.6025 23.0271H86.0911C85.6406 23.0271 85.2086 23.2065 84.8901 23.5258C84.5715 23.845 84.3926 24.2781 84.3926 24.7296V29.4046H110.134V24.7296C110.134 24.2781 109.955 23.845 109.637 23.5258C109.318 23.2065 108.886 23.0271 108.436 23.0271H108.436ZM97.2633 22.7575C95.6791 22.7575 94.3878 21.4671 94.3878 19.8792C94.3886 19.115 94.6917 18.3823 95.2308 17.842C95.7699 17.3016 96.5009 16.9977 97.2633 16.997C98.0257 16.9977 98.7567 17.3016 99.2958 17.842C99.8349 18.3823 100.138 19.115 100.139 19.8792C100.139 21.4671 98.8475 22.7575 97.2633 22.7575Z" fill="#D5033E"/>
<path d="M115.207 28.2336H79.3175C78.9571 28.2338 78.6116 28.3774 78.3568 28.6328C78.1021 28.8883 77.959 29.2347 77.959 29.5958V32.146C77.959 32.5072 78.1021 32.8535 78.3568 33.109C78.6116 33.3644 78.9571 33.508 79.3175 33.5082H115.207C115.386 33.5082 115.562 33.4729 115.727 33.4045C115.892 33.336 116.042 33.2357 116.168 33.1092C116.294 32.9827 116.394 32.8325 116.462 32.6672C116.531 32.502 116.566 32.3248 116.566 32.146V29.5958C116.566 29.2347 116.423 28.8883 116.168 28.6328C115.913 28.3774 115.568 28.2338 115.207 28.2336Z" fill="#EB275E"/>
<path d="M78.2599 46.7736C80.3537 46.7736 82.051 45.0723 82.051 42.9736C82.051 40.8749 80.3537 39.1736 78.2599 39.1736C76.1661 39.1736 74.4688 40.8749 74.4688 42.9736C74.4688 45.0723 76.1661 46.7736 78.2599 46.7736Z" fill="#FFC7D7"/>
<path d="M86.584 40.1294L120.055 40.0714L120.057 41.6731L86.5867 41.731L86.584 40.1294Z" fill="#FFC7D7"/>
<path d="M113.203 44.1638L120.058 44.1498L120.062 45.7514L113.206 45.7655L113.203 44.1638Z" fill="#FFC7D7"/>
<path d="M86.584 44.2261L103.45 44.1989L103.452 45.8006L86.5866 45.8277L86.584 44.2261Z" fill="#FFC7D7"/>
<path d="M77.3933 44.6957L76.195 43.4952C76.1528 43.4539 76.1192 43.4047 76.0961 43.3503C76.073 43.2959 76.0609 43.2375 76.0606 43.1784C76.0602 43.1193 76.0715 43.0607 76.0939 43.006C76.1163 42.9513 76.1492 42.9017 76.1909 42.8599C76.2326 42.818 76.2821 42.7849 76.3366 42.7625C76.3912 42.74 76.4496 42.7286 76.5086 42.7289C76.5675 42.7293 76.6258 42.7413 76.6801 42.7644C76.7344 42.7875 76.7836 42.8211 76.8248 42.8634L77.7087 43.7489L79.6986 41.7544C79.7398 41.7121 79.789 41.6784 79.8432 41.6554C79.8975 41.6323 79.9558 41.6202 80.0148 41.6199C80.0737 41.6195 80.1322 41.631 80.1867 41.6534C80.2412 41.6759 80.2908 41.709 80.3325 41.7508C80.3741 41.7926 80.4071 41.8423 80.4295 41.897C80.4519 41.9517 80.4632 42.0102 80.4628 42.0693C80.4624 42.1284 80.4503 42.1869 80.4273 42.2413C80.4042 42.2956 80.3706 42.3449 80.3284 42.3862L78.0236 44.6963C77.9822 44.7378 77.9331 44.7707 77.879 44.7932C77.825 44.8156 77.767 44.8272 77.7085 44.8272C77.6499 44.8272 77.592 44.8156 77.5379 44.7932C77.4838 44.7707 77.4347 44.7378 77.3933 44.6963V44.6957Z" fill="#D5033E"/>
<path d="M78.2599 59.3383C80.3537 59.3383 82.051 57.637 82.051 55.5383C82.051 53.4396 80.3537 51.7383 78.2599 51.7383C76.1661 51.7383 74.4688 53.4396 74.4688 55.5383C74.4688 57.637 76.1661 59.3383 78.2599 59.3383Z" fill="#FFC7D7"/>
<path d="M86.584 52.6941L120.055 52.6361L120.057 54.2378L86.5867 54.2957L86.584 52.6941Z" fill="#FFC7D7"/>
<path d="M113.203 56.7286L120.058 56.7146L120.062 58.3162L113.206 58.3303L113.203 56.7286Z" fill="#FFC7D7"/>
<path d="M86.584 56.792L103.45 56.7648L103.452 58.3665L86.5866 58.3936L86.584 56.792Z" fill="#FFC7D7"/>
<path d="M77.3933 57.2619L76.195 56.0608C76.1528 56.0195 76.1192 55.9703 76.0961 55.9159C76.073 55.8615 76.0609 55.8031 76.0606 55.744C76.0602 55.6849 76.0715 55.6263 76.0939 55.5716C76.1163 55.517 76.1492 55.4673 76.1909 55.4255C76.2326 55.3837 76.2821 55.3506 76.3366 55.3281C76.3912 55.3056 76.4496 55.2942 76.5086 55.2945C76.5675 55.2949 76.6258 55.3069 76.6801 55.33C76.7344 55.3531 76.7836 55.3867 76.8248 55.429L77.7087 56.3145L79.6986 54.32C79.7398 54.2777 79.789 54.2441 79.8432 54.221C79.8975 54.1979 79.9558 54.1858 80.0148 54.1855C80.0737 54.1852 80.1322 54.1966 80.1867 54.219C80.2412 54.2415 80.2908 54.2746 80.3325 54.3164C80.3741 54.3582 80.4071 54.4079 80.4295 54.4626C80.4519 54.5173 80.4632 54.5759 80.4628 54.635C80.4624 54.6941 80.4503 54.7525 80.4273 54.8069C80.4042 54.8612 80.3706 54.9105 80.3284 54.9518L78.0236 57.2619C77.9822 57.3034 77.9331 57.3363 77.879 57.3588C77.825 57.3812 77.767 57.3928 77.7085 57.3928C77.6499 57.3928 77.592 57.3812 77.5379 57.3588C77.4838 57.3363 77.4347 57.3034 77.3933 57.2619Z" fill="#D5033E"/>
<path d="M78.2599 71.9027C80.3537 71.9027 82.051 70.2014 82.051 68.1027C82.051 66.0041 80.3537 64.3027 78.2599 64.3027C76.1661 64.3027 74.4688 66.0041 74.4688 68.1027C74.4688 70.2014 76.1661 71.9027 78.2599 71.9027Z" fill="#FFC7D7"/>
<path d="M86.584 65.2588L120.055 65.2008L120.057 66.8025L86.5867 66.8604L86.584 65.2588Z" fill="#FFC7D7"/>
<path d="M113.203 69.2932L120.058 69.2792L120.062 70.8808L113.206 70.8949L113.203 69.2932Z" fill="#FFC7D7"/>
<path d="M86.584 69.3567L103.45 69.3295L103.452 70.9312L86.5866 70.9583L86.584 69.3567Z" fill="#FFC7D7"/>
<path d="M77.3933 69.8268L76.195 68.6257C76.1528 68.5844 76.1192 68.5352 76.0961 68.4808C76.073 68.4264 76.0609 68.368 76.0606 68.3089C76.0602 68.2498 76.0715 68.1912 76.0939 68.1365C76.1163 68.0818 76.1492 68.0322 76.1909 67.9903C76.2326 67.9485 76.2821 67.9154 76.3366 67.893C76.3912 67.8705 76.4496 67.8591 76.5086 67.8594C76.5675 67.8597 76.6258 67.8718 76.6801 67.8949C76.7344 67.918 76.7836 67.9516 76.8248 67.9939L77.7087 68.8794L79.6986 66.8849C79.7398 66.8426 79.789 66.8089 79.8432 66.7858C79.8975 66.7628 79.9558 66.7507 80.0148 66.7504C80.0737 66.75 80.1322 66.7614 80.1867 66.7839C80.2412 66.8064 80.2908 66.8395 80.3325 66.8813C80.3741 66.9231 80.4071 66.9728 80.4295 67.0275C80.4519 67.0822 80.4632 67.1407 80.4628 67.1998C80.4624 67.2589 80.4503 67.3174 80.4273 67.3717C80.4042 67.4261 80.3706 67.4754 80.3284 67.5166L78.0236 69.8268C77.9822 69.8683 77.9331 69.9012 77.879 69.9237C77.825 69.9461 77.767 69.9577 77.7085 69.9577C77.6499 69.9577 77.592 69.9461 77.5379 69.9237C77.4838 69.9012 77.4347 69.8683 77.3933 69.8268Z" fill="#D5033E"/>
<path d="M78.2599 84.4689C80.3537 84.4689 82.051 82.7676 82.051 80.6689C82.051 78.5702 80.3537 76.8689 78.2599 76.8689C76.1661 76.8689 74.4688 78.5702 74.4688 80.6689C74.4688 82.7676 76.1661 84.4689 78.2599 84.4689Z" fill="#FFC7D7"/>
<path d="M86.584 77.8247L120.055 77.7667L120.057 79.3684L86.5867 79.4264L86.584 77.8247Z" fill="#FFC7D7"/>
<path d="M113.203 81.8579L120.058 81.8439L120.062 83.4455L113.206 83.4596L113.203 81.8579Z" fill="#FFC7D7"/>
<path d="M86.584 81.9214L103.45 81.8942L103.452 83.4959L86.5866 83.523L86.584 81.9214Z" fill="#FFC7D7"/>
<path d="M77.3933 82.3904L76.195 81.1893C76.1528 81.148 76.1192 81.0988 76.0961 81.0444C76.073 80.99 76.0609 80.9316 76.0606 80.8725C76.0602 80.8134 76.0715 80.7548 76.0939 80.7001C76.1163 80.6454 76.1492 80.5958 76.1909 80.5539C76.2326 80.5121 76.2821 80.479 76.3366 80.4566C76.3912 80.4341 76.4496 80.4227 76.5086 80.423C76.5675 80.4233 76.6258 80.4354 76.6801 80.4585C76.7344 80.4816 76.7836 80.5152 76.8248 80.5575L77.7087 81.443L79.6986 79.4485C79.7398 79.4062 79.789 79.3725 79.8432 79.3494C79.8975 79.3264 79.9558 79.3143 80.0148 79.314C80.0737 79.3136 80.1322 79.325 80.1867 79.3475C80.2412 79.37 80.2908 79.4031 80.3325 79.4449C80.3741 79.4867 80.4071 79.5364 80.4295 79.5911C80.4519 79.6457 80.4632 79.7043 80.4628 79.7634C80.4624 79.8225 80.4503 79.881 80.4273 79.9353C80.4042 79.9897 80.3706 80.039 80.3284 80.0802L78.0236 82.3904C77.9822 82.4319 77.9331 82.4648 77.879 82.4873C77.825 82.5097 77.767 82.5213 77.7085 82.5213C77.6499 82.5213 77.592 82.5097 77.5379 82.4873C77.4838 82.4648 77.4347 82.4319 77.3933 82.3904Z" fill="#D5033E"/>
<path d="M78.2599 97.0336C80.3537 97.0336 82.051 95.3323 82.051 93.2336C82.051 91.1349 80.3537 89.4336 78.2599 89.4336C76.1661 89.4336 74.4688 91.1349 74.4688 93.2336C74.4688 95.3323 76.1661 97.0336 78.2599 97.0336Z" fill="#FFC7D7"/>
<path d="M86.584 90.3894L120.055 90.3314L120.057 91.9331L86.5867 91.991L86.584 90.3894Z" fill="#FFC7D7"/>
<path d="M113.203 94.4226L120.058 94.4086L120.062 96.0102L113.206 96.0243L113.203 94.4226Z" fill="#FFC7D7"/>
<path d="M86.584 94.4861L103.45 94.4589L103.452 96.0606L86.5866 96.0877L86.584 94.4861Z" fill="#FFC7D7"/>
<path d="M77.3933 94.9551L76.195 93.754C76.1528 93.7127 76.1192 93.6635 76.0961 93.6091C76.073 93.5547 76.0609 93.4963 76.0606 93.4372C76.0602 93.3781 76.0715 93.3195 76.0939 93.2648C76.1163 93.2101 76.1492 93.1605 76.1909 93.1186C76.2326 93.0768 76.2821 93.0437 76.3366 93.0213C76.3912 92.9988 76.4496 92.9874 76.5086 92.9877C76.5675 92.988 76.6258 93.0001 76.6801 93.0232C76.7344 93.0463 76.7836 93.0799 76.8248 93.1222L77.7087 94.0077L79.6986 92.0132C79.7398 91.9709 79.789 91.9372 79.8432 91.9141C79.8975 91.8911 79.9558 91.879 80.0148 91.8787C80.0737 91.8783 80.1322 91.8897 80.1867 91.9122C80.2412 91.9347 80.2908 91.9678 80.3325 92.0096C80.3741 92.0514 80.4071 92.1011 80.4295 92.1558C80.4519 92.2104 80.4632 92.269 80.4628 92.3281C80.4624 92.3872 80.4503 92.4457 80.4273 92.5C80.4042 92.5544 80.3706 92.6037 80.3284 92.6449L78.0236 94.9551C77.9822 94.9966 77.9331 95.0295 77.879 95.052C77.825 95.0744 77.767 95.086 77.7085 95.086C77.6499 95.086 77.592 95.0744 77.5379 95.052C77.4838 95.0295 77.4347 94.9966 77.3933 94.9551Z" fill="#D5033E"/>
<path d="M45.4645 84.1583H39.4036C39.0447 84.1591 38.7004 84.3015 38.4453 84.5546C38.1902 84.8078 38.0447 85.1514 38.0403 85.5111L37.8243 106.982C37.8221 107.159 37.8551 107.335 37.9213 107.499C37.9875 107.663 38.0856 107.813 38.2099 107.939C38.3342 108.065 38.4823 108.164 38.6454 108.233C38.8086 108.301 38.9836 108.336 39.1604 108.335H45.2213C45.5803 108.334 45.9247 108.192 46.1798 107.939C46.4349 107.685 46.5803 107.342 46.5847 106.982L46.8006 85.5111C46.8028 85.334 46.7698 85.1582 46.7036 84.9939C46.6374 84.8297 46.5393 84.6802 46.415 84.5543C46.2907 84.4284 46.1426 84.3285 45.9795 84.2604C45.8163 84.1923 45.6413 84.1574 45.4645 84.1577V84.1583Z" fill="#D9A059"/>
<path d="M70.5641 85.4854C70.5616 85.132 70.4197 84.794 70.1694 84.5452C69.919 84.2965 69.5806 84.1571 69.228 84.1577H44.4968C44.1378 84.1586 43.7935 84.301 43.5383 84.5543C43.2832 84.8075 43.1378 85.1513 43.1335 85.5111L42.9181 106.982C42.9159 107.159 42.9489 107.335 43.0151 107.499C43.0813 107.663 43.1794 107.813 43.3037 107.939C43.428 108.065 43.576 108.164 43.7392 108.233C43.9023 108.301 44.0774 108.336 44.2541 108.335H69.3571C69.537 108.335 69.7152 108.299 69.8812 108.229C70.0472 108.16 70.1979 108.058 70.3246 107.93C70.4513 107.801 70.5515 107.649 70.6194 107.482C70.6873 107.315 70.7217 107.136 70.7204 106.956L70.5646 85.4854H70.5641Z" fill="#FACE85"/>
<path d="M53.39 84.1583L53.3086 92.2613H60.1939L60.2759 84.1577L53.39 84.1583Z" fill="#D9A059"/>
<path d="M47.28 64.303H42.3026C41.6904 64.303 41.1891 64.8005 41.1831 65.4142L41.0059 83.0471C41.0042 83.1925 41.0313 83.3369 41.0857 83.4717C41.1401 83.6066 41.2206 83.7293 41.3227 83.8327C41.4248 83.936 41.5463 84.0181 41.6803 84.074C41.8143 84.1299 41.958 84.1586 42.1031 84.1583H47.0805C47.6928 84.1583 48.1941 83.6608 48.2006 83.0471L48.3777 65.4142C48.3795 65.2687 48.3523 65.1243 48.2979 64.9895C48.2435 64.8546 48.1629 64.7318 48.0608 64.6285C47.9586 64.5251 47.837 64.4431 47.703 64.3872C47.569 64.3313 47.4252 64.3027 47.28 64.303Z" fill="#D9A059"/>
<path d="M67.8942 65.3931C67.8924 65.1028 67.7758 64.8251 67.5701 64.6207C67.3643 64.4163 67.0862 64.302 66.7965 64.3027H46.4862C45.874 64.3027 45.3727 64.8008 45.3667 65.4145L45.1895 83.0474C45.1877 83.1929 45.2148 83.3372 45.2691 83.4721C45.3235 83.607 45.4041 83.7297 45.5061 83.8331C45.6082 83.9365 45.7298 84.0185 45.8638 84.0744C45.9978 84.1303 46.1416 84.1589 46.2867 84.1586H66.902C67.0498 84.1583 67.1961 84.1288 67.3325 84.0717C67.4689 84.0146 67.5927 83.931 67.6967 83.8259C67.8008 83.7207 67.8831 83.5959 67.939 83.4587C67.9948 83.3216 68.0231 83.1747 68.0222 83.0266L67.8942 65.3937V65.3931Z" fill="#FACE85"/>
<path d="M53.7893 64.3027L53.7227 70.9575H59.3768L59.4435 64.3027H53.7893Z" fill="#D9A059"/>
<path d="M134.751 36.6553H146.394C146.917 36.6553 147.342 37.0805 147.342 37.606V42.6164C147.342 43.1413 146.917 43.5671 146.394 43.5671H137.846L135.701 45.4646C135.67 45.4925 135.631 45.5106 135.589 45.5169C135.548 45.5231 135.505 45.5172 135.467 45.4998C135.429 45.4825 135.396 45.4544 135.374 45.419C135.351 45.3836 135.339 45.3423 135.339 45.3002V43.5671H134.751C134.5 43.5671 134.258 43.4669 134.081 43.2886C133.903 43.1103 133.803 42.8685 133.803 42.6164V37.606C133.803 37.0805 134.227 36.6553 134.751 36.6553Z" fill="#FFC7D7"/>
<path d="M145.299 38.7618C145.371 38.7618 145.44 38.733 145.491 38.6819C145.542 38.6308 145.571 38.5615 145.571 38.4892C145.571 38.4169 145.542 38.3475 145.491 38.2964C145.44 38.2453 145.371 38.2166 145.299 38.2166H135.846C135.774 38.2166 135.705 38.2453 135.654 38.2964C135.603 38.3475 135.574 38.4169 135.574 38.4892C135.574 38.5615 135.603 38.6308 135.654 38.6819C135.705 38.733 135.774 38.7618 135.846 38.7618H145.299ZM145.299 40.3848C145.371 40.3848 145.44 40.356 145.491 40.3049C145.542 40.2538 145.571 40.1845 145.571 40.1122C145.571 40.0399 145.542 39.9705 145.491 39.9194C145.44 39.8683 145.371 39.8396 145.299 39.8396H142.146C142.074 39.8396 142.005 39.8683 141.954 39.9194C141.903 39.9705 141.874 40.0399 141.874 40.1122C141.874 40.1845 141.903 40.2538 141.954 40.3049C142.005 40.356 142.074 40.3848 142.146 40.3848H145.299ZM140.8 40.3848C140.872 40.3848 140.941 40.356 140.992 40.3049C141.043 40.2538 141.071 40.1845 141.071 40.1122C141.071 40.0399 141.043 39.9705 140.992 39.9194C140.941 39.8683 140.872 39.8396 140.8 39.8396H135.847C135.775 39.8396 135.705 39.8683 135.654 39.9194C135.603 39.9705 135.575 40.0399 135.575 40.1122C135.575 40.1845 135.603 40.2538 135.654 40.3049C135.705 40.356 135.775 40.3848 135.847 40.3848H140.8ZM139.672 42.0078C139.744 42.0078 139.814 41.9791 139.865 41.9279C139.916 41.8768 139.944 41.8075 139.944 41.7352C139.944 41.6629 139.916 41.5935 139.865 41.5424C139.814 41.4913 139.744 41.4626 139.672 41.4626H135.847C135.775 41.4626 135.705 41.4913 135.654 41.5424C135.603 41.5935 135.575 41.6629 135.575 41.7352C135.575 41.8075 135.603 41.8768 135.654 41.9279C135.705 41.9791 135.775 42.0078 135.847 42.0078H139.672Z" fill="white"/>
<path d="M50.6445 58.2136C54.9214 58.2136 58.3885 54.7383 58.3885 50.4514C58.3885 46.1645 54.9214 42.6892 50.6445 42.6892C46.3675 42.6892 42.9004 46.1645 42.9004 50.4514C42.9004 54.7383 46.3675 58.2136 50.6445 58.2136Z" fill="#FFC7D7"/>
<path d="M55.9414 51.251V49.6521L54.8333 49.4505C54.7279 49.0064 54.5524 48.5821 54.3134 48.1935L54.9546 47.2647L53.8268 46.1343L52.9002 46.777C52.5126 46.5375 52.0892 46.3616 51.6462 46.2559L51.445 45.1453H49.8498L49.6487 46.2559C49.2056 46.3616 48.7823 46.5375 48.3946 46.777L47.468 46.1343L46.3402 47.2647L46.9815 48.1935C46.7425 48.5821 46.567 49.0064 46.4616 49.4505L45.3535 49.6521V51.251L46.4616 51.4527C46.567 51.8967 46.7425 52.3211 46.9815 52.7096L46.3402 53.6384L47.468 54.7688L48.3946 54.1261C48.7773 54.3623 49.1982 54.5398 49.6487 54.6472L49.8498 55.7579H51.445L51.6462 54.6472C52.0892 54.5415 52.5126 54.3656 52.9002 54.1261L53.8268 54.7688L54.9546 53.6384L54.3134 52.7096C54.549 52.3261 54.7261 51.9036 54.8333 51.4527L55.9414 51.251ZM50.6474 52.7354C50.3482 52.7354 50.0519 52.6763 49.7755 52.5616C49.499 52.4468 49.2479 52.2786 49.0363 52.0665C48.8247 51.8544 48.6569 51.6026 48.5424 51.3256C48.4279 51.0485 48.3689 50.7515 48.3689 50.4516C48.3689 50.1516 48.4279 49.8547 48.5424 49.5776C48.6569 49.3005 48.8247 49.0487 49.0363 48.8366C49.2479 48.6246 49.499 48.4564 49.7755 48.3416C50.0519 48.2268 50.3482 48.1677 50.6474 48.1677C51.2517 48.1677 51.8313 48.4083 52.2586 48.8366C52.6859 49.265 52.9259 49.8459 52.9259 50.4516C52.9259 51.0573 52.6859 51.6382 52.2586 52.0665C51.8313 52.4948 51.2517 52.7354 50.6474 52.7354Z" fill="#D5033E"/>
<path d="M150.005 108.335H13.9918C13.4713 108.335 12.9722 108.542 12.6041 108.911C12.2361 109.28 12.0293 109.78 12.0293 110.302V110.306C12.0293 110.828 12.2361 111.329 12.6041 111.697C12.9722 112.066 13.4713 112.274 13.9918 112.274H150.005C150.526 112.274 151.025 112.066 151.393 111.697C151.761 111.329 151.968 110.828 151.968 110.306V110.302C151.968 109.78 151.761 109.28 151.393 108.911C151.025 108.542 150.526 108.335 150.005 108.335Z" fill="#FBFAFA"/>
</svg>
