<svg width="146" height="145" viewBox="0 0 146 145" fill="none" xmlns="http://www.w3.org/2000/svg">
<path d="M72.6492 140.298C111.392 140.298 142.798 108.892 142.798 70.1492C142.798 31.4069 111.392 0 72.6492 0C33.9069 0 2.5 31.4069 2.5 70.1492C2.5 108.892 33.9069 140.298 72.6492 140.298Z" fill="#F5F5F5"/>
<path d="M143.836 75.5355C143.846 85.5811 141.646 95.5059 137.39 104.606C133.135 113.705 126.928 121.757 119.212 128.189C107.305 138.145 91.9704 144.136 75.2357 144.136C37.3484 144.136 6.63477 113.423 6.63477 75.5355C6.63477 37.649 37.3484 6.9353 75.2357 6.9353C113.123 6.9353 143.836 37.649 143.836 75.5355Z" fill="#EFEFEF"/>
<path opacity="0.2" d="M137.934 103.41C133.663 112.989 127.259 121.464 119.211 128.189V84.6868L137.934 103.41Z" fill="#EFEFEF"/>
<path d="M72.6038 49.0935L30.1367 85.5785L30.9271 102.087C30.9271 104.056 33.3025 131.974 35.5618 131.974L75.2151 105.437L110.945 129.25C113.204 129.25 117.566 103.305 117.566 101.336L120.207 85.5398L77.7014 49.0935C76.2099 48.058 74.0954 48.058 72.6038 49.0935Z" fill="#F43F62"/>
<path d="M109.89 56.936C109.89 59.2075 108.093 61.0489 105.877 61.0489C103.661 61.0489 101.865 59.2075 101.865 56.936H99.6479C99.6479 59.2075 97.8514 61.0489 95.6354 61.0489C93.4194 61.0489 91.623 59.2075 91.623 56.936H89.4062C89.4062 59.2075 87.6098 61.0489 85.3938 61.0489C83.1778 61.0489 81.3813 59.2075 81.3813 56.936H79.1645C79.1645 59.2075 77.3681 61.0489 75.1521 61.0489C72.9361 61.0489 71.1397 59.2075 71.1397 56.936H68.9229C68.9229 59.2075 67.1264 61.0489 64.9104 61.0489C62.6944 61.0489 60.898 59.2075 60.898 56.936H58.6812C58.6812 59.2075 56.8848 61.0489 54.6688 61.0489C52.4528 61.0489 50.6563 59.2075 50.6563 56.936H48.4395C48.4395 59.2075 46.6431 61.0489 44.4271 61.0489C42.2111 61.0489 40.4147 59.2075 40.4147 56.936H37.5979V136.832H112.872V56.936H109.89Z" fill="white"/>
<path d="M76.0855 113.17L96.5772 93.0077C101.959 87.7127 109.64 84.6873 117.702 84.6873H117.702C119.595 84.6873 121.13 85.8902 121.13 87.3741V141.263C121.13 142.747 118.571 145 116.677 145H105.034L76.0855 116.518C75.1173 115.565 75.1173 114.122 76.0855 113.17Z" fill="#F43F62"/>
<path d="M74.3435 113.133L53.8518 92.9708C48.4702 87.6758 40.789 84.6504 32.727 84.6504H32.727C30.8337 84.6504 29.2988 85.8533 29.2988 87.3372V141.549C29.2988 143.033 31.4963 145 33.3897 145L45.3953 144.963L74.3435 116.481C75.3117 115.528 75.3117 114.085 74.3435 113.133Z" fill="#F43F62"/>
<path d="M121.129 130.233V141.855C121.129 143.592 119.297 145 117.038 145H33.3893C31.1305 145 29.2988 143.592 29.2988 141.855V130.233L72.6648 103.676C73.3935 103.244 74.2222 103.008 75.0694 102.993C76.0183 102.967 76.9767 103.195 77.7628 103.676L121.129 130.233Z" fill="#F43F62"/>
<path d="M29.2988 125.387L67.0375 105.944L67.7753 106.67L29.2988 130.233V125.387Z" fill="#D5033E"/>
<path d="M121.129 125.387L83.3901 105.944L82.6523 106.67L121.129 130.233V125.387Z" fill="#D5033E"/>
<path d="M100.525 141.033C100.525 140.889 100.583 140.75 100.685 140.648C100.787 140.546 100.926 140.489 101.07 140.489V140.001C100.926 140.001 100.787 139.944 100.685 139.842C100.583 139.74 100.525 139.601 100.525 139.457C100.525 139.312 100.583 139.174 100.685 139.072C100.787 138.97 100.926 138.912 101.07 138.912V138.425C100.926 138.425 100.787 138.368 100.685 138.266C100.583 138.164 100.525 138.025 100.525 137.881C100.525 137.736 100.583 137.598 100.685 137.496C100.787 137.394 100.926 137.336 101.07 137.336V136.849C100.926 136.849 100.788 136.791 100.686 136.689C100.584 136.587 100.527 136.449 100.527 136.304C100.527 136.16 100.584 136.022 100.686 135.92C100.788 135.818 100.926 135.76 101.07 135.76V135.273C100.926 135.273 100.787 135.215 100.685 135.113C100.583 135.011 100.525 134.873 100.525 134.728C100.525 134.584 100.583 134.445 100.685 134.343C100.787 134.241 100.926 134.184 101.07 134.184V133.762H100.648C100.648 133.764 100.648 133.767 100.648 133.77C100.648 133.914 100.591 134.052 100.489 134.155C100.386 134.257 100.248 134.314 100.103 134.314C99.9591 134.314 99.8205 134.257 99.7184 134.155C99.6163 134.052 99.5589 133.914 99.5589 133.77C99.5589 133.767 99.5593 133.764 99.5593 133.762H99.0714C99.0714 133.764 99.0718 133.767 99.0718 133.77C99.0718 133.914 99.0144 134.052 98.9123 134.155C98.8102 134.257 98.6717 134.314 98.5273 134.314C98.3828 134.314 98.2443 134.257 98.1422 134.155C98.0401 134.052 97.9827 133.914 97.9827 133.77C97.9827 133.767 97.9831 133.764 97.9831 133.762H97.4952C97.4952 133.764 97.4956 133.767 97.4956 133.77C97.4951 133.914 97.4375 134.052 97.3354 134.153C97.2333 134.255 97.0951 134.312 96.951 134.312C96.8069 134.312 96.6687 134.255 96.5667 134.153C96.4646 134.052 96.407 133.914 96.4065 133.77C96.4065 133.767 96.4068 133.764 96.4069 133.762H95.9189C95.919 133.764 95.9193 133.767 95.9193 133.77C95.9193 133.914 95.862 134.052 95.7598 134.155C95.6577 134.257 95.5192 134.314 95.3748 134.314C95.2304 134.314 95.0919 134.257 94.9897 134.155C94.8876 134.052 94.8302 133.914 94.8302 133.77C94.8302 133.767 94.8306 133.764 94.8306 133.762H94.3427C94.3428 133.764 94.3431 133.767 94.3431 133.77C94.3431 133.914 94.2857 134.052 94.1836 134.155C94.0815 134.257 93.943 134.314 93.7986 134.314C93.6542 134.314 93.5156 134.257 93.4135 134.155C93.3114 134.052 93.254 133.914 93.254 133.77C93.254 133.767 93.2544 133.764 93.2544 133.762H92.832V134.184C92.9765 134.184 93.115 134.241 93.2171 134.343C93.3192 134.445 93.3766 134.584 93.3766 134.728C93.3766 134.873 93.3192 135.011 93.2171 135.113C93.115 135.215 92.9765 135.273 92.832 135.273V135.76C92.9765 135.76 93.115 135.817 93.2171 135.919C93.3192 136.022 93.3766 136.16 93.3766 136.304C93.3766 136.449 93.3192 136.587 93.2171 136.69C93.115 136.792 92.9765 136.849 92.832 136.849V137.336C92.9765 137.336 93.115 137.394 93.2171 137.496C93.3192 137.598 93.3766 137.736 93.3766 137.881C93.3766 138.025 93.3192 138.164 93.2171 138.266C93.115 138.368 92.9765 138.425 92.832 138.425V138.912C92.9765 138.912 93.115 138.97 93.2171 139.072C93.3192 139.174 93.3766 139.312 93.3766 139.457C93.3766 139.601 93.3192 139.74 93.2171 139.842C93.115 139.944 92.9765 140.001 92.832 140.001V140.489C92.9765 140.489 93.115 140.546 93.2171 140.648C93.3192 140.75 93.3766 140.889 93.3766 141.033C93.3766 141.178 93.3192 141.316 93.2171 141.418C93.115 141.52 92.9765 141.578 92.832 141.578V142H93.254C93.254 141.855 93.3114 141.717 93.4135 141.615C93.5156 141.512 93.6542 141.455 93.7986 141.455C93.943 141.455 94.0815 141.512 94.1836 141.615C94.2857 141.717 94.3431 141.855 94.3431 142H94.8302C94.8302 141.855 94.8876 141.717 94.9897 141.615C95.0919 141.512 95.2304 141.455 95.3748 141.455C95.5192 141.455 95.6577 141.512 95.7598 141.615C95.862 141.717 95.9193 141.855 95.9193 142H96.4065C96.4065 141.855 96.4638 141.717 96.566 141.615C96.6681 141.512 96.8066 141.455 96.951 141.455C97.0954 141.455 97.234 141.512 97.3361 141.615C97.4382 141.717 97.4956 141.855 97.4956 142H97.9827C97.9827 141.855 98.0401 141.717 98.1422 141.615C98.2443 141.512 98.3828 141.455 98.5273 141.455C98.6717 141.455 98.8102 141.512 98.9123 141.615C99.0144 141.717 99.0718 141.855 99.0718 142H99.5589C99.5589 141.855 99.6163 141.717 99.7184 141.615C99.8205 141.513 99.9591 141.455 100.103 141.455C100.248 141.455 100.386 141.513 100.489 141.615C100.591 141.717 100.648 141.855 100.648 142H101.07V141.578C100.926 141.578 100.787 141.52 100.685 141.418C100.583 141.316 100.525 141.178 100.525 141.033ZM112.953 141.033C112.953 140.889 113.011 140.75 113.113 140.648C113.215 140.546 113.353 140.489 113.498 140.489V140.001C113.353 140.001 113.215 139.944 113.113 139.842C113.011 139.74 112.953 139.601 112.953 139.457C112.953 139.312 113.011 139.174 113.113 139.072C113.215 138.97 113.353 138.912 113.498 138.912V138.425C113.353 138.425 113.215 138.368 113.113 138.266C113.011 138.164 112.953 138.025 112.953 137.881C112.953 137.736 113.011 137.598 113.113 137.496C113.215 137.394 113.353 137.336 113.498 137.336V136.849C113.426 136.849 113.355 136.835 113.289 136.808C113.223 136.781 113.162 136.741 113.111 136.69C113.061 136.64 113.02 136.579 112.993 136.513C112.965 136.447 112.951 136.376 112.951 136.304C112.951 136.233 112.965 136.162 112.993 136.096C113.02 136.029 113.061 135.969 113.111 135.919C113.162 135.868 113.223 135.828 113.289 135.801C113.355 135.774 113.426 135.76 113.498 135.76V135.273C113.353 135.273 113.215 135.215 113.113 135.113C113.011 135.011 112.953 134.873 112.953 134.728C112.953 134.584 113.011 134.445 113.113 134.343C113.215 134.241 113.353 134.184 113.498 134.184V133.762H113.075C113.075 133.764 113.076 133.767 113.076 133.77C113.076 133.914 113.018 134.052 112.916 134.155C112.814 134.257 112.676 134.314 112.531 134.314C112.387 134.314 112.248 134.257 112.146 134.155C112.044 134.052 111.987 133.914 111.987 133.77C111.987 133.767 111.987 133.764 111.987 133.762H111.499C111.499 133.764 111.5 133.767 111.5 133.77C111.5 133.914 111.442 134.052 111.34 134.155C111.238 134.257 111.099 134.314 110.955 134.314C110.811 134.314 110.672 134.257 110.57 134.155C110.468 134.052 110.41 133.914 110.41 133.77C110.41 133.767 110.411 133.764 110.411 133.762H109.923C109.923 133.764 109.923 133.767 109.923 133.77C109.923 133.914 109.865 134.052 109.763 134.153C109.661 134.255 109.523 134.312 109.379 134.312C109.235 134.312 109.097 134.255 108.994 134.153C108.892 134.052 108.835 133.914 108.834 133.77C108.834 133.767 108.835 133.764 108.835 133.762H108.347C108.347 133.764 108.347 133.767 108.347 133.77C108.347 133.914 108.29 134.052 108.188 134.155C108.086 134.257 107.947 134.314 107.803 134.314C107.658 134.314 107.52 134.257 107.418 134.155C107.315 134.052 107.258 133.914 107.258 133.77C107.258 133.767 107.258 133.764 107.258 133.762H106.771C106.771 133.764 106.771 133.767 106.771 133.77C106.771 133.914 106.714 134.052 106.611 134.155C106.509 134.257 106.371 134.314 106.226 134.314C106.082 134.314 105.943 134.257 105.841 134.155C105.739 134.052 105.682 133.914 105.682 133.77C105.682 133.767 105.682 133.764 105.682 133.762H105.26V134.184C105.404 134.184 105.543 134.241 105.645 134.343C105.747 134.445 105.804 134.584 105.804 134.728C105.804 134.873 105.747 135.011 105.645 135.113C105.543 135.215 105.404 135.273 105.26 135.273V135.76C105.404 135.76 105.543 135.817 105.645 135.919C105.747 136.022 105.804 136.16 105.804 136.304C105.804 136.449 105.747 136.587 105.645 136.69C105.543 136.792 105.404 136.849 105.26 136.849V137.336C105.404 137.336 105.543 137.394 105.645 137.496C105.747 137.598 105.804 137.736 105.804 137.881C105.804 138.025 105.747 138.164 105.645 138.266C105.543 138.368 105.404 138.425 105.26 138.425V138.912C105.404 138.912 105.543 138.97 105.645 139.072C105.747 139.174 105.804 139.312 105.804 139.457C105.804 139.601 105.747 139.74 105.645 139.842C105.543 139.944 105.404 140.001 105.26 140.001V140.489C105.404 140.489 105.543 140.546 105.645 140.648C105.747 140.75 105.804 140.889 105.804 141.033C105.804 141.178 105.747 141.316 105.645 141.418C105.543 141.52 105.404 141.578 105.26 141.578V142H105.682C105.682 141.855 105.739 141.717 105.841 141.615C105.943 141.512 106.082 141.455 106.226 141.455C106.371 141.455 106.509 141.512 106.611 141.615C106.714 141.717 106.771 141.855 106.771 142H107.258C107.258 141.855 107.315 141.717 107.418 141.615C107.52 141.512 107.658 141.455 107.803 141.455C107.947 141.455 108.086 141.512 108.188 141.615C108.29 141.717 108.347 141.855 108.347 142H108.834C108.834 141.928 108.848 141.857 108.875 141.791C108.902 141.724 108.942 141.664 108.993 141.613C109.044 141.563 109.104 141.522 109.17 141.495C109.236 141.467 109.307 141.453 109.379 141.453C109.45 141.453 109.521 141.467 109.588 141.495C109.654 141.522 109.714 141.563 109.765 141.613C109.815 141.664 109.855 141.724 109.882 141.791C109.91 141.857 109.924 141.928 109.923 142H110.41C110.41 141.855 110.468 141.717 110.57 141.615C110.672 141.512 110.811 141.455 110.955 141.455C111.099 141.455 111.238 141.512 111.34 141.615C111.442 141.717 111.5 141.855 111.5 142H111.987C111.987 141.855 112.044 141.717 112.146 141.615C112.248 141.513 112.387 141.455 112.531 141.455C112.676 141.455 112.814 141.513 112.916 141.615C113.018 141.717 113.076 141.855 113.076 142H113.498V141.578C113.353 141.578 113.215 141.52 113.113 141.418C113.011 141.316 112.953 141.178 112.953 141.033Z" fill="white"/>
<path d="M31.291 18.9243L46.9555 34.6218L49.6477 41.3834L51.1263 32.7465L31.291 18.9243Z" fill="white"/>
<path d="M62.7018 67.3322L43.891 85.5022C43.7027 85.2736 43.6022 84.9853 43.6076 84.6892V68.1452C43.6076 67.5477 43.9845 67.0588 44.4452 67.0588H62.1476C62.2543 67.0616 62.3591 67.0874 62.4547 67.1346C62.5504 67.1818 62.6347 67.2493 62.7018 67.3322Z" fill="#F7D5DE"/>
<path d="M62.9848 68.1453V84.6892C62.9848 85.2867 62.6079 85.7756 62.1472 85.7756H44.4448C44.3382 85.7729 44.2334 85.747 44.1377 85.6998C44.042 85.6526 43.9577 85.5852 43.8906 85.5022L62.7014 67.3323C62.8897 67.5608 62.9902 67.8492 62.9848 68.1453Z" fill="#D5033E"/>
<path d="M98.9254 69.0112H71.3414C71.2132 69.0112 71.0863 68.986 70.9678 68.9369C70.8494 68.8878 70.7418 68.8159 70.6511 68.7253C70.5605 68.6346 70.4886 68.527 70.4395 68.4086C70.3905 68.2902 70.3652 68.1632 70.3652 68.035C70.3652 67.9068 70.3905 67.7799 70.4395 67.6615C70.4886 67.543 70.5605 67.4354 70.6511 67.3448C70.7418 67.2541 70.8494 67.1822 70.9678 67.1331C71.0863 67.0841 71.2132 67.0588 71.3414 67.0588H98.9254C99.0536 67.0588 99.1805 67.0841 99.299 67.1331C99.4174 67.1822 99.525 67.2541 99.6157 67.3448C99.7063 67.4354 99.7782 67.543 99.8273 67.6615C99.8763 67.7799 99.9016 67.9068 99.9016 68.035C99.9016 68.1632 99.8763 68.2902 99.8273 68.4086C99.7782 68.527 99.7063 68.6346 99.6157 68.7253C99.525 68.8159 99.4174 68.8878 99.299 68.9369C99.1805 68.986 99.0536 69.0112 98.9254 69.0112ZM102.461 81.489H71.3414C71.2132 81.489 71.0863 81.4638 70.9678 81.4147C70.8494 81.3657 70.7418 81.2938 70.6511 81.2031C70.5605 81.1125 70.4886 81.0049 70.4395 80.8864C70.3905 80.768 70.3652 80.6411 70.3652 80.5129C70.3652 80.3847 70.3905 80.2577 70.4395 80.1393C70.4886 80.0209 70.5605 79.9132 70.6511 79.8226C70.7418 79.7319 70.8494 79.66 70.9678 79.611C71.0863 79.5619 71.2132 79.5367 71.3414 79.5367H102.461C102.719 79.5367 102.968 79.6395 103.151 79.8226C103.334 80.0057 103.437 80.254 103.437 80.5129C103.437 80.6411 103.411 80.768 103.362 80.8864C103.313 81.0049 103.241 81.1125 103.151 81.2031C103.06 81.2938 102.953 81.3657 102.834 81.4147C102.716 81.4638 102.589 81.489 102.461 81.489Z" fill="#F7D5DE"/>
<path d="M90.4971 73.2979H71.3414C70.8023 73.2979 70.3652 73.7349 70.3652 74.274C70.3652 74.8131 70.8023 75.2502 71.3414 75.2502H90.4971C91.0362 75.2502 91.4733 74.8131 91.4733 74.274C91.4733 73.7349 91.0362 73.2979 90.4971 73.2979Z" fill="#F7D5DE"/>
<path d="M83.3499 93.9669H71.3414C71.2132 93.9669 71.0863 93.9417 70.9678 93.8926C70.8494 93.8436 70.7418 93.7716 70.6511 93.681C70.5605 93.5904 70.4886 93.4827 70.4395 93.3643C70.3905 93.2459 70.3652 93.1189 70.3652 92.9907C70.3652 92.8625 70.3905 92.7356 70.4395 92.6172C70.4886 92.4987 70.5605 92.3911 70.6511 92.3005C70.7418 92.2098 70.8494 92.1379 70.9678 92.0888C71.0863 92.0398 71.2132 92.0145 71.3414 92.0145H83.3499C83.4781 92.0145 83.605 92.0398 83.7235 92.0888C83.8419 92.1379 83.9495 92.2098 84.0402 92.3005C84.1308 92.3911 84.2027 92.4987 84.2518 92.6172C84.3008 92.7356 84.3261 92.8625 84.3261 92.9907C84.3261 93.1189 84.3008 93.2459 84.2518 93.3643C84.2027 93.4827 84.1308 93.5904 84.0402 93.681C83.9495 93.7716 83.8419 93.8436 83.7235 93.8926C83.605 93.9417 83.4781 93.9669 83.3499 93.9669ZM96.5727 87.728H71.3414C71.2132 87.728 71.0863 87.7028 70.9678 87.6537C70.8494 87.6046 70.7418 87.5327 70.6511 87.4421C70.5605 87.3514 70.4886 87.2438 70.4395 87.1254C70.3905 87.0069 70.3652 86.88 70.3652 86.7518C70.3652 86.6236 70.3905 86.4967 70.4395 86.3782C70.4886 86.2598 70.5605 86.1522 70.6511 86.0615C70.7418 85.9709 70.8494 85.899 70.9678 85.8499C71.0863 85.8009 71.2132 85.7756 71.3414 85.7756H96.5727C96.7009 85.7756 96.8279 85.8009 96.9463 85.8499C97.0648 85.899 97.1724 85.9709 97.263 86.0615C97.3537 86.1522 97.4256 86.2598 97.4746 86.3782C97.5237 86.4967 97.5489 86.6236 97.5489 86.7518C97.5489 87.0107 97.4461 87.259 97.263 87.4421C97.0799 87.6252 96.8316 87.728 96.5727 87.728Z" fill="#F7D5DE"/>
<path d="M116.943 61.171C120.771 57.3429 120.771 51.1362 116.943 47.308C113.115 43.4798 106.908 43.4798 103.08 47.308C99.2518 51.1362 99.2518 57.3429 103.08 61.171C106.908 64.9992 113.115 64.9992 116.943 61.171Z" fill="#F43F62"/>
<path d="M110.012 67.0801C102.932 67.0801 97.1719 61.3199 97.1719 54.2395C97.1719 47.1592 102.932 41.3989 110.012 41.3989C117.093 41.3989 122.853 47.1592 122.853 54.2395C122.853 61.3199 117.093 67.0801 110.012 67.0801ZM110.012 42.8472C103.731 42.8472 98.6201 47.9578 98.6201 54.2395C98.6201 60.5213 103.731 65.6318 110.012 65.6318C116.294 65.6318 121.405 60.5213 121.405 54.2395C121.405 47.9578 116.294 42.8472 110.012 42.8472Z" fill="#D5033E"/>
<path d="M109.289 54.8902L109.079 51.7422C109.039 51.1288 109.02 50.6885 109.02 50.4212C109.02 50.0576 109.115 49.7739 109.305 49.5701C109.402 49.4684 109.519 49.3886 109.649 49.3359C109.778 49.2831 109.918 49.2588 110.058 49.2645C110.435 49.2645 110.687 49.3948 110.814 49.6555C110.941 49.9163 111.004 50.292 111.004 50.7826C111.004 51.0768 110.989 51.3707 110.958 51.6633L110.676 54.9034C110.645 55.289 110.579 55.5847 110.479 55.7906C110.437 55.8868 110.366 55.9678 110.277 56.023C110.188 56.0782 110.084 56.1048 109.979 56.0995C109.743 56.0995 109.578 55.9998 109.486 55.8005C109.394 55.6011 109.328 55.2977 109.289 54.8902ZM110.019 59.2147C109.761 59.2183 109.511 59.1258 109.319 58.9551C109.119 58.7821 109.019 58.54 109.02 58.2289C109.019 58.0996 109.044 57.9715 109.094 57.8521C109.143 57.7327 109.216 57.6243 109.308 57.5332C109.399 57.4421 109.508 57.3701 109.628 57.3214C109.748 57.2728 109.876 57.2483 110.005 57.2496C110.136 57.2473 110.266 57.2715 110.388 57.3206C110.509 57.3697 110.619 57.4428 110.712 57.5355C110.806 57.6245 110.881 57.7321 110.931 57.8514C110.981 57.9708 111.006 58.0993 111.004 58.2289C111.004 58.5356 110.906 58.7766 110.709 58.9518C110.52 59.1237 110.274 59.2177 110.019 59.2147Z" fill="white"/>
<path d="M31.291 18.9243L36.3325 42.1417L46.9555 34.6218L31.291 18.9243Z" fill="#70BC2D"/>
<path d="M31.291 18.9243L51.1263 32.7465L60.8824 30.4091L31.291 18.9243Z" fill="#70BC2D"/>
<path d="M31.291 18.9243L46.9555 34.6218L49.6477 41.3834L51.1263 32.7465L31.291 18.9243Z" fill="#60AD1D"/>
</svg>
