<svg width="25" height="25" viewBox="0 0 25 25" fill="none" xmlns="http://www.w3.org/2000/svg">
<path d="M21 16.3278C18.4985 22.256 10.3641 23.9835 5.70143 19.3641C1.12948 14.8347 2.54493 6.62883 8.55653 4" stroke="#1F1E1E" stroke-width="1.5" stroke-linecap="round"/>
<path d="M18.1831 13C20.0708 13 21.0146 13 21.6241 12.155C21.6469 12.1234 21.6848 12.0667 21.7052 12.0336C22.2527 11.1471 21.9705 10.466 21.4063 9.10378C20.8946 7.86853 20.1447 6.74615 19.1993 5.80073C18.2538 4.85531 17.1315 4.10536 15.8962 3.5937C14.534 3.02946 13.8529 2.74733 12.9664 3.29477C12.9333 3.31523 12.8766 3.35309 12.845 3.37587C12 3.9854 12 4.92922 12 6.81686V8.92748C12 10.8473 12 11.8072 12.5964 12.4036C13.1928 13 14.1527 13 16.0725 13H18.1831Z" stroke="#1F1E1E" stroke-width="1.5"/>
</svg>
