<svg width="390" height="474" viewBox="0 0 390 474" fill="none" xmlns="http://www.w3.org/2000/svg">
<path d="M-60.7272 392.557C-60.7272 392.557 -83.2497 362.475 -72.4872 326.25C-61.7247 290.025 -34.1097 262.83 -43.0347 221.25C-53.5347 171.742 -28.8072 129.952 15.0303 135.36C88.5303 144.39 141.345 88.1097 168.225 82.5447C247.868 65.7447 262.41 126.75 305.25 132.577C398.07 145.387 426.735 186.337 423.428 264.982C422.325 290.865 493.358 342.63 452.565 392.557H-60.7272Z" fill="white"/>
<mask id="mask0_10053_28915" style="mask-type:luminance" maskUnits="userSpaceOnUse" x="-76" y="79" width="542" height="314">
<path d="M-60.7288 392.557C-60.7288 392.557 -83.2513 362.475 -72.4888 326.25C-61.7263 290.025 -34.1113 262.83 -43.0363 221.25C-53.5363 171.742 -28.9663 131.265 15.0287 135.36C94.2512 142.71 141.344 88.1097 168.224 82.5447C247.866 65.7447 262.409 126.75 305.249 132.577C398.069 145.387 426.734 186.337 423.426 264.982C422.324 290.865 493.356 342.63 452.564 392.557H-60.7288Z" fill="white"/>
</mask>
<g mask="url(#mask0_10053_28915)">
<path d="M182.03 130.057V122.077L-14.4251 122.077V130.057H182.03Z" fill="#F5F2F3"/>
<path d="M182.03 190.484V182.504H-14.4251V190.484H182.03Z" fill="#F5F2F3"/>
<path d="M182.03 250.912V242.932H-14.4251V250.912H182.03Z" fill="#F5F2F3"/>
<path d="M56.5555 73.8822H48.6805V250.912H56.5555V73.8822Z" fill="#F5F2F3"/>
<path d="M121.235 73.8822H113.36V250.912H121.235V73.8822Z" fill="#F5F2F3"/>
<path d="M185.916 73.8822H178.041V250.912H185.916V73.8822Z" fill="#F5F2F3"/>
<path d="M35.1349 214.214C33.6918 216.562 32.7117 219.164 32.2474 221.879C31.7749 223.769 31.3549 225.659 30.9349 227.549H29.7274C30.4408 222.246 31.4575 216.987 32.7724 211.799C33.2399 210.206 34.14 208.774 35.3727 207.662C36.6054 206.55 38.1223 205.801 39.7549 205.499L48.6274 203.084C44.6389 203.132 40.6648 203.572 36.7624 204.397C35.2367 204.674 33.729 205.042 32.2474 205.499C34.2473 199.87 36.543 194.35 39.1249 188.962C34.1859 193.97 30.5101 200.081 28.4012 206.791C26.2924 213.501 25.8112 220.617 26.9974 227.549H25.7899C24.8634 221.698 23.6368 215.898 22.1149 210.172C19.7895 205.231 16.1589 201.02 11.6149 197.992C11.1949 197.677 10.8274 198.254 10.9849 198.569C13.1374 203.819 16.7074 207.599 18.9124 212.482C20.6974 216.472 22.1674 220.672 23.5849 224.819C21.7085 222.649 19.0853 221.262 16.2349 220.934C11.2474 220.357 9.04241 223.297 7.46741 227.707C7.46741 228.179 7.99241 228.442 8.25491 228.022C9.23302 226.758 10.5188 225.767 11.9894 225.142C13.46 224.517 15.0664 224.279 16.6549 224.452C19.4815 224.605 22.1614 225.759 24.2149 227.707H20.6974L23.4274 244.559H32.9824L35.7124 227.707H33.3499C34.1374 225.764 34.8199 223.822 35.7124 221.879C36.6049 219.937 38.0224 217.102 40.9624 217.574C43.0215 218.023 45.0546 218.584 47.0524 219.254C47.9974 219.254 37.9699 210.749 35.1349 214.214ZM364.782 138.982V250.912H475.4V138.982H364.782ZM458.862 234.164H381.32V155.729H458.862V234.164ZM316.692 198.622V238.154H355.7V198.622H316.692ZM349.872 232.222H322.52V204.554H349.872V232.222ZM268.812 198.622V238.154H307.872V198.622H268.812ZM302.045 232.222H274.692V204.554H302.045V232.222ZM268.812 143.602V183.134H307.872V143.602H268.812ZM302.045 177.202H274.692V149.534H302.045V177.202ZM220.722 198.622V238.154H259.73V198.622H220.722ZM253.902 232.222H226.497V204.554H253.85L253.902 232.222Z" fill="#F5F2F3"/>
</g>
<path d="M294.381 42.8978H103.227C98.0815 42.8978 93.9106 47.0688 93.9106 52.2139V421.955C93.9106 427.1 98.0815 431.271 103.227 431.271H294.381C299.526 431.271 303.697 427.1 303.697 421.955V52.2139C303.697 47.0688 299.526 42.8978 294.381 42.8978Z" fill="#C60D41"/>
<path d="M287.876 42.8979H96.7215C91.5764 42.8979 87.4055 47.0688 87.4055 52.2139V421.955C87.4055 427.1 91.5764 431.271 96.7215 431.271H287.876C293.021 431.271 297.192 427.1 297.192 421.955V52.2139C297.192 47.0688 293.021 42.8979 287.876 42.8979Z" fill="#E92058"/>
<path d="M276.013 58.1027H108.5C103.986 58.1027 100.327 61.7621 100.327 66.2762V387.328C100.327 391.842 103.986 395.502 108.5 395.502H276.013C280.527 395.502 284.187 391.842 284.187 387.328V66.2762C284.187 61.7621 280.527 58.1027 276.013 58.1027Z" fill="#C60D41"/>
<path d="M214.405 45.4476H170.11C166.421 45.4476 163.43 48.4381 163.43 52.127V62.8492C163.43 66.5382 166.421 69.5287 170.11 69.5287H214.405C218.094 69.5287 221.084 66.5382 221.084 62.8492V52.127C221.084 48.4381 218.094 45.4476 214.405 45.4476Z" fill="#E92058"/>
<path d="M276.977 89.9188H107.531V384.429H276.977V89.9188Z" fill="white"/>
<path d="M146.553 89.9183V157.24L107.531 178.245V183.255L151.738 158.558V112.066L179.071 109.078L181.444 89.9183L177.577 89.7426L175.819 105.123L151.562 107.32L151.299 89.7426L146.553 89.9183Z" fill="#FBE6EC"/>
<path d="M205.35 89.9183V138.959L173.799 142.035V211.906L225.74 221.134V296.277L199.814 332.223V384.428H207.108L206.229 333.102L233.123 297.156L231.365 214.982L181.445 206.633V149.506L213.172 145.551L210.712 89.7426L205.35 89.9183Z" fill="#FBE6EC"/>
<path d="M205.002 212.872L207.287 172.708L276.982 166.38V171.39L212.297 177.278L210.012 212.872H205.002Z" fill="#FBE6EC"/>
<path d="M252.018 171.391L255.27 223.068L276.978 229.044V224.035L258.785 219.465L255.885 171.391H252.018Z" fill="#FBE6EC"/>
<path d="M107.531 264.198L169.843 256.289L183.641 298.826L161.581 343.209L169.843 384.428H163.691L154.111 341.451L176.698 297.508L165.888 262.001L107.531 269.472V264.198Z" fill="#FBE6EC"/>
<path d="M137.237 263.32L144.531 306.296L107.531 340.133V331.344L138.906 303.748L131.963 263.32H137.237Z" fill="#FBE6EC"/>
<path d="M155.431 194.679L120.012 206.017L116.497 194.591L151.827 183.166L155.431 194.679Z" fill="#FBE6EC"/>
<path d="M161.053 212.432L125.635 223.857L122.032 212.432L157.45 201.007L161.053 212.432Z" fill="#FBE6EC"/>
<path d="M242.44 101.169H225.741V118.043H242.44V101.169Z" fill="#FBE6EC"/>
<path d="M261.334 128.06H236.462V156.536H261.334V128.06Z" fill="#FBE6EC"/>
<path d="M241.034 324.753H227.06V367.818H241.034V324.753Z" fill="#FBE6EC"/>
<path d="M262.83 324.753H248.856V367.818H262.83V324.753Z" fill="#FBE6EC"/>
<path d="M264.499 241.348H244.812V250.576H264.499V241.348Z" fill="#FBE6EC"/>
<path d="M264.499 254.091H244.812V263.32H264.499V254.091Z" fill="#FBE6EC"/>
<path d="M264.499 266.834H244.812V276.063H264.499V266.834Z" fill="#FBE6EC"/>
<path d="M264.499 279.492H244.812V288.72H264.499V279.492Z" fill="#FBE6EC"/>
<path d="M237.693 145.552C232.254 140.024 225.77 135.635 218.618 132.639C211.466 129.642 203.789 128.099 196.034 128.099C188.28 128.099 180.603 129.642 173.451 132.639C166.299 135.635 159.815 140.024 154.376 145.552C131.35 168.842 136.799 202.327 154.376 229.835C163.165 243.458 180.742 275.537 188.388 285.38C191.067 285.922 193.836 285.832 196.474 285.116C196.474 285.116 227.41 245.743 238.132 229.572C255.886 202.503 260.719 168.842 237.693 145.552ZM196.474 214.192C190.268 214.261 184.181 212.483 178.987 209.084C173.794 205.685 169.729 200.818 167.31 195.102C164.89 189.387 164.225 183.08 165.4 176.986C166.574 170.891 169.535 165.283 173.905 160.876C178.275 156.468 183.857 153.46 189.942 152.234C196.026 151.008 202.338 151.62 208.074 153.99C213.81 156.361 218.712 160.385 222.155 165.549C225.598 170.713 227.427 176.785 227.41 182.992C227.433 187.073 226.651 191.119 225.108 194.898C223.564 198.676 221.291 202.113 218.417 205.012C215.543 207.91 212.125 210.213 208.36 211.788C204.595 213.363 200.556 214.18 196.474 214.192Z" fill="#9C0B33"/>
<path d="M230.046 145.552C224.608 140.024 218.123 135.635 210.971 132.639C203.819 129.642 196.142 128.099 188.388 128.099C180.634 128.099 172.957 129.642 165.805 132.639C158.653 135.635 152.168 140.024 146.729 145.552C123.703 168.842 129.152 202.327 146.729 229.835C157.452 246.446 188.388 285.116 188.388 285.116C188.388 285.116 219.236 245.743 230.046 229.572C248.151 202.503 252.985 168.842 230.046 145.552ZM188.388 214.192C182.178 214.279 176.083 212.516 170.878 209.127C165.673 205.739 161.595 200.878 159.162 195.164C156.729 189.45 156.051 183.141 157.216 177.041C158.38 170.941 161.333 165.325 165.7 160.909C170.066 156.492 175.648 153.475 181.735 152.242C187.822 151.009 194.138 151.615 199.879 153.983C205.62 156.351 210.527 160.374 213.974 165.54C217.421 170.706 219.253 176.781 219.236 182.992C219.26 191.213 216.028 199.109 210.248 204.955C204.468 210.801 196.609 214.122 188.388 214.192Z" fill="#D5033E"/>
</svg>
