<svg width="390" height="364" viewBox="0 0 390 364" fill="none" xmlns="http://www.w3.org/2000/svg">
<path opacity="0.44" d="M220.031 34.3528C183.912 27.2918 145.234 33.587 113.812 48.4067C79.865 64.4742 51.6817 90.5949 33.0852 123.225C21.685 143.136 15.5194 166.261 20.9893 188.082C23.2561 196.555 27.2284 204.476 32.6631 211.361C38.0978 218.246 44.8804 223.949 52.5958 228.121C72.0918 239.088 83.9243 237.027 106.452 235.075C147.189 231.547 188.07 239.871 227.056 250.988C240.088 254.704 253.144 258.765 266.757 259.962C280.37 261.16 294.871 259.197 305.826 251.863C319.631 242.621 325.476 226.687 328.355 211.481C335.787 172.226 326.586 125.36 307.014 93.7881C285.737 59.467 254.017 40.9972 220.031 34.3528Z" fill="#E3E3E3"/>
<path opacity="0.44" d="M230.892 325.549C265.692 311.967 297.19 291.108 323.277 264.37C348.989 237.778 363.793 209.25 369.467 178.989C373.071 159.768 370.855 140.436 358.549 126.973C349.189 116.731 334.023 111.132 316.451 111.395C295.112 111.714 285.1 118.211 265.372 129.155C229.699 148.946 189.9 160.225 150.874 168.684C137.83 171.511 124.645 174.1 111.923 178.995C99.2016 183.889 86.7418 191.444 79.3007 201.384C69.9243 213.908 70.0065 227.904 72.5275 240.118C78.646 269.761 97.8965 294.749 125.531 311.481C152.814 328 190.244 341.187 230.892 325.549Z" fill="white"/>
<path d="M360.837 210.006C360.23 198.714 354.258 194.682 346.968 194.682C344.785 194.679 342.629 195.154 340.65 196.074C339.972 194.405 338.803 192.983 337.297 191.995C335.791 191.008 334.02 190.502 332.22 190.546C330.208 190.48 328.235 191.114 326.638 192.339C325.04 193.564 323.917 195.305 323.459 197.265C321.252 195.575 318.547 194.666 315.767 194.682C313.669 194.646 311.598 195.158 309.758 196.166C307.918 197.175 306.373 198.645 305.274 200.433C303.235 199.448 300.972 199.02 298.715 199.194C295.827 199.338 293.099 200.566 291.076 202.632C289.052 204.698 287.881 207.451 287.797 210.341C287.927 213.052 289.125 215.6 291.13 217.429C293.134 219.258 295.781 220.218 298.492 220.1H349.834C352.638 220.222 355.376 219.229 357.45 217.337C359.523 215.446 360.763 212.81 360.897 210.006L360.837 210.006ZM341.35 130.223C340.957 122.801 337.08 120.15 332.348 120.15C330.93 120.149 329.53 120.461 328.248 121.066C327.815 119.974 327.059 119.041 326.081 118.392C325.103 117.742 323.949 117.407 322.775 117.432C321.463 117.395 320.177 117.815 319.14 118.621C318.103 119.426 317.378 120.567 317.089 121.849C315.662 120.739 313.904 120.141 312.096 120.15C310.73 120.13 309.382 120.469 308.187 121.132C306.992 121.795 305.991 122.76 305.285 123.931C303.965 123.284 302.494 123.002 301.028 123.116C299.142 123.223 297.366 124.037 296.052 125.395C294.739 126.752 293.985 128.555 293.941 130.444C294.014 132.214 294.786 133.883 296.087 135.085C297.388 136.288 299.113 136.925 300.883 136.858H334.209C336.04 136.927 337.824 136.268 339.17 135.024C340.516 133.781 341.314 132.054 341.389 130.223H341.35ZM153.926 182.285C153.086 166.193 144.825 160.445 134.741 160.445C131.716 160.442 128.73 161.121 126.003 162.429C125.102 160.078 123.5 158.061 121.414 156.652C119.327 155.242 116.858 154.509 114.341 154.551C111.522 154.488 108.77 155.41 106.558 157.158C104.346 158.906 102.813 161.371 102.222 164.127C99.197 161.727 95.4447 160.429 91.583 160.445C88.6558 160.411 85.7715 161.151 83.2224 162.59C80.6733 164.029 78.55 166.117 77.0678 168.641C74.2599 167.24 71.1234 166.629 67.9948 166.876C63.9425 167.143 60.1393 168.926 57.3411 171.87C54.543 174.813 52.9549 178.702 52.8925 182.763C53.0137 186.567 54.6396 190.169 57.4133 192.776C60.187 195.383 63.8819 196.784 67.687 196.67H138.706C142.642 196.788 146.464 195.339 149.333 192.642C152.202 189.946 153.884 186.22 154.009 182.285H153.926Z" fill="white"/>
<path d="M274.353 235.169C274.32 235.169 274.287 235.165 274.255 235.158C274.195 235.144 274.139 235.117 274.091 235.08C274.042 235.042 274.002 234.995 273.973 234.94L242.292 175.1C242.24 174.999 242.229 174.882 242.263 174.773C242.297 174.665 242.372 174.574 242.472 174.521C242.573 174.468 242.69 174.457 242.799 174.49C242.907 174.523 242.998 174.597 243.052 174.697L274.503 234.102L329.078 194.866C329.124 194.833 329.176 194.809 329.231 194.796C329.286 194.783 329.343 194.781 329.399 194.791C329.454 194.8 329.508 194.82 329.556 194.849C329.604 194.879 329.645 194.918 329.678 194.964C329.711 195.01 329.735 195.061 329.748 195.116C329.761 195.171 329.763 195.228 329.754 195.284C329.745 195.34 329.725 195.393 329.695 195.441C329.665 195.489 329.626 195.531 329.58 195.564L274.604 235.088C274.531 235.141 274.443 235.169 274.353 235.169Z" fill="#E3E3E3"/>
<path d="M274.354 235.169C274.32 235.169 274.287 235.165 274.255 235.158C274.166 235.137 274.086 235.088 274.027 235.019C273.968 234.949 273.932 234.863 273.925 234.772L269.833 181.399C269.824 181.286 269.861 181.173 269.935 181.087C270.01 181 270.115 180.947 270.229 180.938C270.343 180.929 270.455 180.966 270.542 181.04C270.628 181.115 270.682 181.22 270.69 181.334L274.678 233.353L301.371 188.526C301.429 188.429 301.524 188.359 301.634 188.331C301.745 188.303 301.861 188.32 301.959 188.379C302.057 188.437 302.127 188.531 302.156 188.641C302.184 188.752 302.167 188.868 302.11 188.966L274.723 234.959C274.685 235.023 274.631 235.076 274.566 235.113C274.501 235.15 274.428 235.169 274.354 235.169Z" fill="#E3E3E3"/>
<path d="M295.609 144.074C284.678 141.512 273.196 142.808 263.11 147.742C253.025 152.676 244.955 160.945 240.267 171.147C236.877 185.609 329.762 207.385 333.152 192.924C333.488 181.701 329.934 170.707 323.092 161.804C316.25 152.902 306.541 146.638 295.609 144.074Z" fill="#E5819D"/>
<path d="M295.609 144.074C302.641 145.723 303.7 167.719 298.759 195.793C305.067 196.882 311.446 197.511 317.845 197.675C320.776 170.726 311.839 147.879 295.609 144.074ZM251.867 182.207C257.672 184.904 263.666 187.176 269.801 189.004C277.853 161.659 288.577 142.426 295.609 144.074C279.38 140.269 261.22 156.763 251.867 182.207Z" fill="#D5033E"/>
<path d="M257.065 226.87C256.91 226.833 256.748 226.828 256.59 226.854C256.432 226.879 256.281 226.936 256.145 227.02C256.009 227.105 255.891 227.215 255.798 227.345C255.704 227.475 255.637 227.622 255.601 227.778L249.679 253.037C249.643 253.193 249.637 253.354 249.663 253.512C249.689 253.67 249.746 253.821 249.83 253.957C249.914 254.093 250.025 254.211 250.155 254.304C250.285 254.398 250.432 254.465 250.587 254.501L278.863 261.13L285.34 233.499L257.065 226.87Z" fill="#FBB2C6"/>
<path d="M293.338 235.374L285.341 233.499L278.863 261.13L286.86 263.005C287.016 263.041 287.178 263.047 287.335 263.021C287.493 262.995 287.645 262.938 287.781 262.854C287.917 262.77 288.035 262.659 288.128 262.53C288.221 262.4 288.288 262.253 288.325 262.097L294.246 236.838C294.32 236.523 294.266 236.192 294.096 235.918C293.925 235.643 293.653 235.447 293.338 235.374Z" fill="#C60D41"/>
<path d="M282.666 244.913L253.204 238.006L252.077 242.81L281.54 249.717L282.666 244.913Z" fill="#C60D41"/>
<path d="M268.207 229.483L261.729 257.115L266.532 258.241L273.01 230.609L268.207 229.483Z" fill="#C60D41"/>
<path d="M255.048 246.259L254.656 247.934L261.483 249.534L261.875 247.86L255.048 246.259ZM254.092 250.338L260.919 251.939L261.311 250.264L254.484 248.664L254.092 250.338ZM253.528 252.743L260.355 254.344L260.748 252.669L253.921 251.068L253.528 252.743Z" fill="#C60D41"/>
<path d="M50.9945 190.808C50.9388 190.808 50.8841 190.792 50.8364 190.764C50.7886 190.735 50.7496 190.694 50.7235 190.645L28.1358 147.98C28.0978 147.908 28.09 147.824 28.1139 147.746C28.1379 147.669 28.1917 147.604 28.2635 147.566C28.3353 147.528 28.4193 147.52 28.497 147.544C28.5747 147.568 28.6397 147.621 28.6778 147.693L51.101 190.047L90.0116 162.072C90.0776 162.025 90.1598 162.006 90.24 162.019C90.3203 162.032 90.3921 162.076 90.4396 162.142C90.4871 162.208 90.5064 162.29 90.4933 162.371C90.4803 162.451 90.4358 162.523 90.3698 162.57L51.1736 190.75C51.1214 190.787 51.0588 190.808 50.9945 190.808Z" fill="#E3E3E3"/>
<path d="M50.9943 190.808C50.917 190.808 50.8426 190.778 50.7859 190.726C50.7292 190.673 50.6944 190.601 50.6885 190.524L47.7711 152.472C47.7649 152.39 47.7911 152.31 47.844 152.248C47.897 152.187 47.9723 152.149 48.0533 152.142C48.1344 152.136 48.2147 152.162 48.2764 152.215C48.3381 152.268 48.3763 152.344 48.3825 152.425L51.2258 189.513L70.2564 157.553C70.2984 157.483 70.366 157.433 70.4445 157.414C70.5231 157.394 70.6062 157.406 70.6757 157.448C70.7453 157.489 70.7956 157.557 70.8158 157.635C70.836 157.713 70.8243 157.797 70.7834 157.866L51.2577 190.658C51.2305 190.703 51.1919 190.741 51.1458 190.767C51.0996 190.794 51.0474 190.808 50.9943 190.808Z" fill="#E3E3E3"/>
<path d="M66.1488 125.86C58.3548 124.033 50.169 124.957 42.9781 128.475C35.7873 131.993 30.0335 137.888 26.6915 145.162C24.2742 155.473 90.4986 170.998 92.9158 160.688C93.1551 152.686 90.621 144.848 85.7429 138.501C80.8648 132.153 73.9425 127.688 66.1488 125.86Z" fill="#E5819D"/>
<path d="M66.1486 125.859C71.1622 127.035 71.917 142.718 68.3945 162.733C72.8919 163.51 77.4398 163.958 82.0022 164.076C84.0915 144.861 77.7198 128.572 66.1486 125.859ZM34.9617 153.047C39.1008 154.97 43.3742 156.59 47.748 157.893C53.4887 138.397 61.135 124.684 66.1486 125.859C54.5774 123.147 41.63 134.907 34.9617 153.047Z" fill="#D5033E"/>
<path d="M38.6689 184.891C38.5578 184.865 38.4427 184.861 38.3301 184.879C38.2176 184.898 38.1097 184.938 38.0128 184.998C37.9158 185.058 37.8317 185.137 37.7651 185.23C37.6985 185.322 37.6509 185.427 37.6249 185.538L33.4029 203.547C33.3768 203.658 33.3729 203.773 33.3913 203.886C33.4098 203.998 33.4502 204.106 33.5103 204.203C33.5705 204.3 33.6491 204.384 33.7418 204.451C33.8344 204.517 33.9393 204.565 34.0504 204.591L54.2097 209.317L58.8283 189.617L38.6689 184.891Z" fill="#FBB2C6"/>
<path d="M64.5298 190.954L58.828 189.617L54.2095 209.317L59.9112 210.654C60.1355 210.707 60.3715 210.668 60.5673 210.546C60.7631 210.425 60.9027 210.231 60.9553 210.006L65.1773 191.998C65.2298 191.773 65.1912 191.537 65.0697 191.341C64.9483 191.146 64.7541 191.006 64.5298 190.954Z" fill="#C60D41"/>
<path d="M56.9201 197.755L35.9153 192.831L35.1127 196.254L56.1175 201.178L56.9201 197.755Z" fill="#C60D41"/>
<path d="M46.6124 186.751L41.9938 206.451L45.4172 207.254L50.0358 187.553L46.6124 186.751Z" fill="#C60D41"/>
<path d="M37.231 198.714L36.9512 199.908L41.8186 201.049L42.0984 199.855L37.231 198.714ZM36.5491 201.622L41.4167 202.764L41.6965 201.57L36.8291 200.428L36.5491 201.622ZM36.1472 203.337L41.0146 204.478L41.2947 203.284L36.4271 202.143L36.1472 203.337Z" fill="#C60D41"/>
<path d="M165.509 255.084C165.436 255.084 165.364 255.075 165.293 255.059C165.161 255.028 165.038 254.969 164.931 254.887C164.824 254.804 164.736 254.7 164.672 254.58L94.9397 122.866C94.8223 122.644 94.7978 122.385 94.8717 122.145C94.9455 121.905 95.1116 121.704 95.3335 121.587C95.5554 121.469 95.8148 121.445 96.0547 121.518C96.2946 121.592 96.4953 121.758 96.6128 121.98L165.838 252.735L285.964 166.373C286.064 166.3 286.179 166.248 286.3 166.22C286.42 166.191 286.546 166.187 286.668 166.207C286.791 166.227 286.909 166.271 287.014 166.336C287.12 166.401 287.212 166.487 287.284 166.588C287.357 166.689 287.409 166.803 287.437 166.924C287.466 167.045 287.47 167.17 287.45 167.293C287.43 167.416 287.386 167.533 287.321 167.639C287.255 167.744 287.17 167.836 287.069 167.909L166.062 254.906C165.901 255.022 165.707 255.084 165.509 255.084Z" fill="#E3E3E3"/>
<path d="M165.508 255.084C165.436 255.084 165.363 255.076 165.292 255.059C165.096 255.013 164.92 254.906 164.79 254.753C164.659 254.6 164.58 254.41 164.565 254.21L155.558 136.733C155.549 136.609 155.564 136.484 155.602 136.366C155.641 136.248 155.703 136.138 155.784 136.044C155.865 135.95 155.963 135.872 156.074 135.816C156.185 135.76 156.306 135.726 156.43 135.717C156.554 135.707 156.678 135.722 156.796 135.761C156.915 135.8 157.024 135.861 157.118 135.942C157.213 136.023 157.29 136.122 157.346 136.233C157.402 136.344 157.436 136.464 157.446 136.588L166.224 251.087L224.975 152.419C225.039 152.312 225.123 152.218 225.222 152.144C225.322 152.069 225.436 152.015 225.556 151.984C225.677 151.953 225.802 151.947 225.926 151.965C226.049 151.982 226.167 152.024 226.274 152.088C226.381 152.152 226.475 152.236 226.549 152.336C226.623 152.436 226.677 152.549 226.708 152.67C226.738 152.791 226.745 152.916 226.727 153.039C226.708 153.163 226.666 153.281 226.602 153.388L166.322 254.622C166.238 254.763 166.119 254.879 165.976 254.96C165.834 255.041 165.672 255.084 165.508 255.084Z" fill="#E3E3E3"/>
<path d="M212.293 54.5763C188.231 48.9377 162.96 51.79 140.76 62.6501C118.561 73.5102 100.798 91.7103 90.4801 114.167C83.0176 145.998 287.466 193.929 294.928 162.098C295.667 137.395 287.844 113.197 272.784 93.6017C257.724 74.0065 236.354 60.2195 212.293 54.5763Z" fill="#E5819D"/>
<path d="M212.293 54.576C227.772 58.2045 230.102 106.62 219.227 168.413C233.112 170.81 247.152 172.195 261.237 172.557C267.687 113.238 248.016 62.9508 212.293 54.576ZM116.013 138.511C128.791 144.447 141.984 149.446 155.487 153.47C173.21 93.2824 196.816 50.9473 212.293 54.576C176.571 46.201 136.599 82.5061 116.013 138.511Z" fill="#D5033E"/>
<path d="M127.455 236.817C127.112 236.737 126.757 236.725 126.409 236.781C126.062 236.838 125.729 236.963 125.43 237.149C125.13 237.335 124.871 237.577 124.665 237.863C124.46 238.149 124.312 238.473 124.232 238.816L111.198 294.413C111.118 294.756 111.106 295.111 111.162 295.459C111.219 295.806 111.344 296.139 111.53 296.438C111.716 296.738 111.958 296.998 112.244 297.203C112.53 297.408 112.854 297.556 113.197 297.636L175.433 312.227L189.691 251.407L127.455 236.817Z" fill="#FBB2C6"/>
<path d="M207.295 255.534L189.692 251.407L175.433 312.227L193.036 316.353C193.379 316.434 193.734 316.446 194.082 316.389C194.429 316.332 194.762 316.207 195.062 316.021C195.361 315.836 195.621 315.593 195.826 315.307C196.032 315.021 196.179 314.697 196.259 314.354L209.293 258.757C209.456 258.065 209.336 257.336 208.961 256.732C208.587 256.127 207.987 255.697 207.295 255.534Z" fill="#C60D41"/>
<path d="M183.801 276.531L118.955 261.329L116.476 271.9L181.323 287.103L183.801 276.531Z" fill="#C60D41"/>
<path d="M151.982 242.568L137.723 303.387L148.295 305.865L162.553 245.046L151.982 242.568Z" fill="#C60D41"/>
<path d="M123.017 279.494L122.153 283.18L137.179 286.703L138.044 283.016L123.017 279.494ZM120.912 288.472L135.939 291.995L136.803 288.309L121.776 284.786L120.912 288.472ZM119.671 293.765L134.698 297.288L135.562 293.602L120.535 290.079L119.671 293.765Z" fill="#C60D41"/>
</svg>
