<svg width="366" height="403" viewBox="0 0 366 403" fill="none" xmlns="http://www.w3.org/2000/svg">
<circle cx="297.478" cy="201.633" r="201.367" fill="#D5033E"/>
<path d="M371.775 81.254C370.785 81.953 369.837 82.7074 368.933 83.5135C368.744 81.5681 368.617 80.3756 368.491 79.1204H364.954C364.575 83.89 363.817 84.9568 360.912 84.7684C362.049 83.4507 361.607 82.1955 360.28 81.3796C358.322 80.1244 356.112 79.1832 354.028 78.1161C351.88 76.9865 349.354 76.2334 347.522 74.7274C343.606 71.4014 340.954 70.9621 336.469 73.6606C335.333 74.3508 333.943 74.7901 332.869 75.5432C329.838 77.7396 325.985 79.497 324.28 82.4464C322.006 86.3372 318.912 89.0362 315.88 91.9856C314.175 93.6801 312.343 95.9393 312.09 98.0733C311.838 100.646 313.101 103.407 313.985 105.98C314.175 106.483 315.438 106.671 316.196 106.922C316.669 107.058 317.156 107.142 317.648 107.173C317.08 109.37 316.575 111.315 316.069 113.26C315.69 114.013 314.554 114.264 313.543 114.829C312.3 115.412 311.151 116.173 310.132 117.089C308.427 118.783 306.911 120.666 305.332 122.486C302.238 124.368 299.206 126.251 295.353 128.51C296.995 129.075 297.753 129.577 298.448 129.577C301.227 129.577 302.048 131.836 302.995 133.657C303.374 134.347 302.932 135.728 302.364 136.481C301.985 136.92 300.785 136.732 299.901 136.857C297.374 137.108 294.848 137.297 292.322 137.61C292.006 137.673 291.627 138.489 291.564 138.928V150.036C293.585 150.538 295.164 151.479 296.427 151.166C299.016 150.664 302.238 152.547 304.132 149.66C305.269 147.902 305.395 145.58 306.532 143.823C307.985 141.501 309.69 139.054 311.901 137.673C313.417 136.732 316.006 137.485 317.522 137.485C317.711 140.309 317.901 143.447 318.09 146.898C323.269 145.392 319.227 141.941 320.68 140.12C322.701 141.313 324.848 142.442 326.869 143.698C327.438 144.074 328.259 144.953 328.132 145.329C327.88 146.02 327.122 146.522 326.491 147.024C325.888 147.376 325.254 147.67 324.595 147.902C325.859 148.781 326.806 149.409 327.753 150.099L326.617 148.781C328.827 146.961 331.038 145.078 333.185 143.195C333.681 143.378 334.165 143.588 334.638 143.823C335.396 146.208 336.09 148.656 336.848 151.166C340.827 151.668 341.143 151.417 340.701 147.589C340.575 146.898 340.385 146.02 340.701 145.392C341.017 144.639 341.775 144.011 342.343 143.384C341.775 152.295 346.575 153.237 353.27 152.107V154.743C353.585 154.869 353.838 155.057 354.091 155.182C354.975 154.053 355.859 152.986 356.743 151.856C356.996 151.919 357.248 151.982 357.501 152.044C357.059 154.617 356.743 157.316 356.049 159.889C355.922 160.391 354.659 161.019 353.964 160.893C350.875 160.574 347.814 160.028 344.806 159.262C340.512 158.006 336.533 157.191 334.511 162.4C332.048 161.207 330.027 159.889 327.817 159.199C323.269 157.693 320.68 155.182 322.322 149.722C321.122 149.677 319.92 149.698 318.722 149.785C314.49 150.287 310.259 150.852 306.027 151.479C305.186 151.571 304.36 151.761 303.564 152.044C301.48 153.048 299.395 154.366 297.059 152.421C296.815 152.317 296.549 152.275 296.285 152.297C296.021 152.319 295.766 152.404 295.543 152.547C293.964 153.927 291.753 155.182 291.122 156.939C289.227 162.274 286.448 166.855 283.163 171.499C279.629 176.59 278.204 182.838 279.184 188.946C279.563 191.331 278.427 194.657 279.627 196.163C282.595 199.803 283.732 204.384 287.585 207.647C292.511 211.852 297.501 209.718 302.553 209.656C302.743 209.656 302.869 209.405 303.059 209.279C304.638 207.961 305.964 203.882 308.048 208.903C308.174 209.091 308.869 208.965 309.311 209.091C312.28 210.095 315.185 211.162 318.596 208.965C318.432 211.897 318.052 214.813 317.459 217.689C317.269 218.693 316.764 220.136 317.206 220.764C319.859 224.278 320.617 228.42 321.943 232.499C323.774 237.959 323.017 243.043 321.754 248.189C321.185 250.574 321.248 252.205 323.017 254.025C324.255 255.321 325.164 256.891 325.67 258.606C326.364 261.493 326.238 264.568 327.059 267.392C328.159 270.946 329.488 274.426 331.038 277.81C331.859 279.818 333.059 281.262 335.775 280.007C339.185 278.438 342.785 277.496 346.259 276.053C347.227 275.584 347.991 274.781 348.406 273.794C349.985 269.464 355.164 267.141 354.975 261.807C354.975 261.493 355.67 260.865 356.049 260.74C358.954 260.175 358.828 257.79 359.017 255.845C359.333 252.08 360.47 249.005 364.07 247.122C364.954 246.683 365.901 245.553 365.965 244.674C366.406 239.967 367.291 235.198 366.659 230.617C365.902 225.219 368.049 220.889 371.27 217.751C376.449 212.668 380.112 206.894 382.954 200.493C383.523 199.175 382.954 197.293 382.891 195.661C381.438 195.912 379.859 195.849 378.47 196.351C374.617 197.857 371.964 196.979 370.07 193.464C369.438 192.272 368.68 190.954 367.544 190.201C364.575 188.13 364.323 184.616 362.617 181.854C361.986 180.725 361.859 179.093 360.912 178.277C358.891 176.52 358.765 174.574 359.27 172.252C359.522 172.315 359.838 172.315 359.838 172.441C362.428 179.72 369.185 184.615 370.954 192.335C371.459 194.468 373.164 195.912 375.817 193.904C377.775 192.46 380.301 191.958 382.386 190.766C385.986 188.82 389.649 186.875 392.87 184.427C394.386 183.297 395.27 181.038 395.712 179.156C395.902 178.403 394.133 177.21 393.502 176.081C393.051 175.155 392.691 174.188 392.428 173.194C392.653 173.075 392.885 172.97 393.123 172.88C393.691 173.507 394.26 174.198 394.26 174.198C397.544 174.198 400.386 174.009 403.102 174.135C403.154 173.53 403.175 172.922 403.165 172.315C403.23 139.33 392.18 107.272 371.775 81.254ZM319.985 105.353C322.575 107.11 321.88 111.754 325.985 111.942C325.67 112.57 325.291 113.7 325.038 113.7C324.027 113.637 322.448 113.386 322.133 112.695C321.144 110.335 320.423 107.872 319.985 105.353ZM332.996 143.195C331.227 139.807 324.975 140.623 325.038 134.535C328.322 137.485 331.101 139.932 333.817 142.38C333.576 142.682 333.3 142.956 332.996 143.195ZM336.659 99.1401C339.817 100.458 338.743 102.78 338.68 104.788C337.922 104.349 337.164 103.972 336.469 103.533C336.048 104.277 335.689 105.053 335.396 105.855C335.017 107.424 334.954 109.056 334.259 110.499C334.007 110.926 333.659 111.29 333.243 111.562C332.827 111.834 332.353 112.007 331.859 112.068C330.004 112.131 328.147 112.068 326.301 111.88C329.143 111.064 328.891 108.114 330.09 106.169C331.29 104.161 332.301 102.215 330.532 99.7674C330.027 99.0144 330.47 97.1946 331.038 96.1902C333.059 92.9271 335.396 89.7264 337.543 86.5258C338.048 86.8394 338.554 87.1531 338.996 87.4672C337.796 89.1615 336.722 90.9816 335.396 92.4878C332.49 95.6884 332.68 97.4455 336.659 99.1401ZM358.701 86.9651C357.817 87.8438 356.87 88.7221 355.607 89.9773C353.333 89.6007 353.333 89.6007 352.322 84.0781C355.228 84.3294 357.943 84.5803 360.659 84.894C360.028 85.5843 359.396 86.2749 358.701 86.9651ZM386.933 173.005C385.228 170.181 383.523 167.357 381.628 164.345C383.838 162.901 384.786 164.219 385.733 166.039C387.059 168.612 387.754 171.938 391.796 172.064C390.217 172.378 388.575 172.691 386.933 173.005ZM248.869 224.027C248.743 223.65 246.911 223.902 245.9 223.776C245.385 223.643 244.923 223.359 244.574 222.96C242.616 220.701 240.089 220.136 237.248 220.325C236.294 220.383 235.34 220.211 234.469 219.822C231.626 218.756 228.911 217.5 225.69 216.12C225.753 214.97 225.753 213.818 225.69 212.668C225.5 209.593 222.468 205.89 220.068 206.581C215.963 207.836 215.584 204.384 213.563 202.753C210.847 200.619 207.437 199.363 204.279 197.857C203.268 197.418 201.879 197.606 200.995 197.041C199.605 196.163 198.468 194.908 196.7 193.276C196.321 194.092 195.942 194.97 195.563 195.724C194.237 194.719 193.289 193.966 192.089 193.088C189.31 195.535 186.594 197.857 184.258 199.866C183.247 199.175 182.11 197.794 181.1 197.857C179.647 197.983 178.257 199.112 176.11 200.179C176.236 198.297 176.11 196.79 176.426 195.347C177.626 190.326 176.11 188.256 170.994 188.067C170.299 188.004 169.542 187.816 168.91 187.753C169.415 185.306 170.047 183.047 170.363 180.787C170.387 180.392 170.313 179.996 170.148 179.635C169.983 179.274 169.732 178.958 169.415 178.716C166.636 177.587 163.605 178.842 162.783 181.54C162.279 183.235 161.583 184.239 160.005 183.674C158.931 183.235 157.478 182.168 157.352 181.227C156.847 177.022 156.721 172.754 156.594 168.55C156.594 168.047 157.604 167.608 158.173 167.106C161.836 164.219 165.499 165.6 169.289 167.357C170.615 163.906 173.457 165.6 175.668 165.537C176.489 165.475 178.194 167.106 178.131 167.922C178.068 170.872 180.278 171.813 181.984 173.382C183.121 170.119 182.931 167.232 181.605 164.659C181.339 164.022 181.295 163.315 181.479 162.65C182.047 159.387 184.321 157.253 187.226 156.312C189.816 155.433 190.384 154.053 190.068 152.547C191.268 151.229 192.468 150.475 192.594 149.597C193.163 145.204 194.742 143.195 198.974 141.815C199.704 141.508 200.403 141.13 201.058 140.685C198.91 138.866 199.289 137.234 201.247 136.167C203.394 135.1 205.668 134.41 208.131 133.468C207.815 134.535 207.626 135.288 207.373 136.355C209.837 134.974 211.921 133.782 213.752 132.778C212.3 131.335 211.1 130.205 209.9 129.075C210.91 128.071 211.921 127.129 213.247 125.812V124.117C216.152 123.113 218.868 122.109 221.584 121.168C220.953 122.988 219.753 124.243 218.805 125.623C217.858 127.004 217.163 128.573 216.279 130.142C218.3 130.142 220.763 129.703 220.953 130.205C222.216 133.28 224.426 131.836 226.826 132.025C226.068 129.891 225.437 128.197 224.805 126.502C224.237 125.059 223.416 123.741 223.1 122.235C222.847 120.666 223.289 118.971 222.974 117.402C222.696 116.369 222.044 115.475 221.142 114.892C220.068 114.327 216.026 110.311 216.216 109.244C216.974 105.541 214.51 103.219 212.679 100.646C212.552 100.458 212.11 100.52 211.858 100.458C211.668 101.462 211.479 102.403 211.352 103.282H206.426V97.0061C205.163 96.7552 204.153 96.6924 203.268 96.3159C201.184 95.5628 199.289 94.4333 197.205 93.9939C196.321 93.8683 194.426 95.0607 194.299 95.8137C193.605 100.081 193.352 104.474 192.91 108.993H189.437C190.131 110.123 190.637 110.938 190.763 111.127C190.131 113.825 189.626 115.959 188.994 118.846C188.237 117.214 187.415 116.273 187.479 115.394C187.668 111.064 184.952 110.876 181.542 110.248C178.952 109.746 176.615 107.612 174.405 106.294C173.71 104.976 173.142 103.721 172.257 102.027C173.197 100.66 174.231 99.3603 175.352 98.1356C178.194 95.3743 181.921 93.178 183.879 89.8516C185.458 87.216 187.542 86.212 189.689 86.1492C194.931 86.0863 192.721 82.0698 193.542 79.8106C193.858 78.9948 192.658 77.6143 192.089 76.3591C195.5 77.7395 200.174 76.2962 203.332 80.5008C204.721 82.3211 204.658 84.0781 202.51 85.0824C200.878 85.8616 199.295 86.7419 197.774 87.7181C197.016 88.1575 196.573 89.0361 196.005 89.7264C196.889 90.2285 197.837 91.2325 198.595 91.1697C201.753 90.7303 203.9 92.3621 206.173 93.9938C208.321 95.5 210.468 96.9433 213.5 98.9515V87.4044C214.51 87.8438 215.9 88.4712 217.984 89.4127C218.489 86.9651 219.879 84.2666 219.058 82.8857C217.921 81.0031 215.079 80.1872 212.931 78.8691C214.637 75.2923 212.616 72.2169 208.068 71.966C207.311 71.966 206.047 71.8404 205.794 71.3385C203.9 67.8242 201.121 68.1379 197.963 69.3931C196.447 66.6317 194.426 65.8159 191.773 67.7613C190.321 64.3721 189.121 64.1212 186.721 66.6945C183.942 69.7068 182.994 73.0956 185.142 77.6771C182.679 75.2923 181.036 73.472 179.078 71.9659C178.384 71.4014 176.236 71.2757 176.047 71.6523C175.478 72.7191 174.973 74.6017 175.478 75.2295C177.626 77.6143 176.363 79.246 174.973 81.9446C174.215 80.1872 173.836 79.3085 173.268 77.9908C169.542 80.6265 165.752 82.3839 162.468 77.4259C168.784 77.363 168.784 77.363 168.026 74.1623C168.468 73.8745 168.933 73.6226 169.415 73.4092C172.889 71.7151 177.373 70.8992 175.542 65.2509C175.478 65 175.352 64.6862 175.226 64.2469C169.92 64.2469 164.426 62.9289 160.636 67.4476C158.804 66.6317 157.226 65.8787 155.836 65.2509C159.752 64.0585 163.668 62.8661 167.584 61.6108C169.036 61.109 170.236 59.9795 171.752 61.9249C172.257 62.5524 174.973 62.113 175.984 61.3599C176.678 60.7954 176.173 58.7871 176.236 57.4062C175.036 57.4062 173.71 57.0926 172.636 57.4062C170.552 57.9712 168.531 58.9752 166.257 59.8539C166.131 58.6614 166.131 57.9712 166.005 57.2181C165.815 55.3979 164.236 54.7705 163.289 56.151C162.72 57.0296 162.973 58.4105 162.847 59.9166C160.699 59.54 156.943 59.3007 154.985 59.5516C150.553 63.2881 147.901 67.0913 143.962 71.3385C145.731 72.1544 147.12 72.7819 148.51 73.4093C148.068 73.6606 147.373 74.037 146.11 74.7273C148.763 76.0454 150.91 77.1122 153.057 78.1789C155.015 78.6182 157.1 78.9319 158.868 79.8735C159.562 80.1872 159.562 81.9446 159.752 82.6976C155.836 81.3796 152.426 80.0616 149.015 79.0576C146.299 78.1789 143.331 78.1161 140.868 76.8613C140.426 76.61 140.047 76.3591 139.668 76.1706C130.194 87.2168 122.405 99.5868 116.552 112.884C116.93 113.574 117.31 114.264 117.752 114.955C118.085 115.628 118.38 116.32 118.636 117.026C119.268 115.645 119.647 114.829 120.468 113.135C120.468 116.085 119.962 118.155 120.53 119.976C122.552 126.753 121.605 133.657 121.162 140.434C120.72 146.647 119.078 152.923 125.52 157.316C126.088 157.693 126.278 158.634 126.467 159.324C127.794 164.157 129.499 168.801 132.594 172.817C133.668 174.198 135.373 175.139 136.762 176.331C137.015 176.018 137.268 175.766 137.457 175.516C137.015 173.759 136.573 172.001 135.941 169.554C137.331 171.123 138.215 172.252 139.226 173.194C141.184 174.951 142.51 176.771 142.573 179.72C142.636 181.917 143.899 184.804 145.668 186.059C148.375 187.967 151.486 189.234 154.763 189.762C157.984 190.263 161.079 189.95 162.531 193.653C162.657 193.966 163.479 194.029 163.984 194.217C165.563 194.97 167.394 195.472 168.784 196.539C171.5 198.673 173.963 201.309 176.742 203.38C177.626 204.007 179.331 203.443 181.226 203.443C183.5 206.581 182.805 210.597 180.468 213.986C178.636 216.747 179.015 219.446 179.331 222.019C179.647 224.404 178.447 228.044 183.121 228.295C178.7 231.809 180.152 236.077 185.837 238.336C185.837 239.403 185.394 240.658 185.9 241.285C187.352 243.231 189.247 244.8 190.763 246.683C192.342 248.628 194.047 250.636 194.868 252.833C195.5 254.778 194.868 257.1 194.995 259.234C195.184 262.434 195.626 265.572 195.879 268.71C195.942 269.903 196.195 271.346 195.626 272.225C193.542 275.802 193.416 279.693 193.1 283.646C192.847 286.283 193.352 286.973 196.826 286.22C195.563 288.102 194.931 289.169 194.237 290.173C193.795 290.864 192.91 291.554 192.91 292.244C193.163 295.57 193.605 298.834 194.11 302.16C194.489 304.482 194.805 306.867 195.374 309.126C198.405 310.444 201.437 311.574 204.595 312.64C204.562 311.805 204.735 310.974 205.098 310.219C205.461 309.465 206.004 308.81 206.679 308.31C209.837 305.8 209.331 303.98 207.311 301.658C208.574 298.52 210.974 295.633 208.131 292.182C211.352 292.495 211.731 290.048 211.984 288.291C214.447 287.224 217.163 286.847 218.363 285.341C219.437 283.898 218.868 281.262 219.058 278.94C221.963 279.254 224.553 278.438 226.069 274.923C227.332 271.974 229.984 269.589 230.805 266.577C231.816 262.623 233.269 259.799 237.5 258.795C238.511 258.543 240.09 258.104 240.279 257.414C241.163 254.276 241.606 251.013 242.363 247.812C242.806 245.867 242.868 243.419 244.069 242.038C247.016 238.641 249.057 234.563 250.005 230.177C250.384 228.295 249.5 226.035 248.869 224.027ZM166.194 68.6401C167.647 69.0166 168.91 69.3931 170.173 69.7069C170.299 69.9578 170.426 70.2714 170.552 70.5228C169.226 71.2757 167.899 71.966 166.005 72.9703C166.068 70.9621 166.131 69.9578 166.194 68.6401ZM264.843 73.1771C266.041 73.1771 267.287 72.9741 268.425 73.2354C269.517 73.4858 270.456 74.347 271.542 74.694C272.335 74.9476 273.257 74.802 274.122 74.8342C273.967 73.9842 273.813 73.1343 273.636 72.159C274.15 72.2084 274.811 72.272 276.014 72.3873C275.386 71.0065 274.929 70.0014 274.393 68.8197C277.68 68.709 277.776 65.8875 278.192 63.7662C278.506 62.1655 276.93 59.8224 277.639 58.7813C278.338 57.7563 280.854 57.9548 282.573 57.6161C282.692 57.3342 282.811 57.0523 282.929 56.7704C281.347 55.8461 279.765 54.9218 278.151 53.9792C279.354 52.7569 282.48 52.7557 281.052 49.6865C280.945 49.4551 281.686 48.5507 282.182 48.3757C284.027 47.7245 285.942 47.2745 287.812 46.6896C288.482 46.5355 289.102 46.2141 289.612 45.7557C289.781 45.5668 289.348 44.3821 288.973 44.2495C285.509 43.023 282.303 40.1767 278.22 42.3815C277.629 42.6335 277.014 42.8277 276.384 42.9614C276.277 42.7135 276.17 42.4658 276.063 42.2183C278.234 41.0995 280.404 39.9801 283.179 38.5495C281.633 37.4694 280.852 36.5206 279.928 36.3532C277.209 35.7771 274.44 35.4674 271.66 35.4285C264.271 35.5568 256.886 35.933 249.503 36.2762C247.196 36.3834 245.787 37.3223 246.718 39.9737C246.921 40.8671 247.049 41.7753 247.103 42.6894C236.728 39.7082 227.85 43.2253 219.194 47.9241C219.842 48.6032 220.44 49.2302 221.422 50.2594C217.201 51.6101 213.471 52.8036 209.74 53.9976C209.825 54.5016 209.911 55.0056 209.996 55.5094H220.218C220.23 55.9288 220.241 56.3482 220.253 56.7677C217.526 57.0588 214.799 57.3497 212.072 57.6407C212.017 58.1884 211.962 58.7364 211.907 59.2847C214.055 59.9737 216.171 60.803 218.364 61.2864C219.31 61.4947 220.504 60.641 221.431 60.8739C223.631 61.4273 225.739 62.342 228.256 63.2438C228.753 66.0058 229.331 69.2176 229.981 72.8305C230.877 72.408 231.957 71.8976 233.223 71.2995C233.342 71.8449 233.655 72.6704 233.519 72.7515C232.44 73.3939 231.275 73.8946 229.674 74.6598C231.808 75.8665 233.599 76.8796 235.891 78.1762C234.565 79.0549 233.423 79.4348 232.926 80.2186C231.869 81.8844 229.948 84.7017 230.493 85.3885C233.015 88.5615 232.486 92.0373 232.777 95.5302C232.937 97.4535 233.364 99.5479 236.105 99.9693C238.002 100.261 239.815 101.091 241.666 101.68C241.888 102.061 242.109 102.442 242.331 102.823C244.09 98.8868 245.788 94.922 247.64 91.0298C248.334 89.572 249.538 87.0359 250.255 87.1201C254.958 87.6737 258.166 84.7392 261.721 82.7765C264.972 80.982 267.936 78.673 271.78 76.0825C268.835 75.3133 266.837 74.7909 264.838 74.2687C264.839 73.9049 264.841 73.541 264.843 73.1771ZM275.901 40.3394C272.283 45.5565 268.361 40.1448 265.313 42.8331C265.261 42.3064 265.209 41.7796 265.156 41.2526C268.461 40.9719 271.766 40.6907 275.901 40.3394Z" fill="white" fill-opacity="0.2"/>
<path d="M403.604 183.651L402.966 183.135C403.39 182.61 403.807 182.074 404.217 181.527L404.873 182.021C404.456 182.574 404.033 183.118 403.604 183.651ZM407.182 178.742L406.498 178.29C407.21 177.21 407.913 176.078 408.586 174.923L409.294 175.337C408.614 176.504 407.903 177.65 407.182 178.742ZM411.216 171.821L410.485 171.446C411.082 170.282 411.66 169.08 412.203 167.872L412.951 168.208C412.402 169.429 411.818 170.644 411.216 171.821ZM414.501 164.511L413.736 164.213C414.213 162.99 414.667 161.734 415.084 160.48L415.863 160.74C415.441 162.007 414.982 163.275 414.501 164.511ZM417.031 156.903L416.239 156.685C416.594 155.4 416.916 154.105 417.194 152.833L417.995 153.01C417.714 154.295 417.389 155.605 417.031 156.903ZM418.742 149.069L417.931 148.939C418.142 147.622 418.312 146.3 418.436 145.01L419.253 145.088C419.127 146.396 418.955 147.735 418.742 149.069V149.069ZM419.503 141.08L418.682 141.058C418.696 140.574 418.702 140.093 418.702 139.615C418.702 138.768 418.681 137.923 418.64 137.104L419.458 137.062C419.501 137.895 419.523 138.754 419.523 139.615C419.523 140.102 419.516 140.59 419.503 141.08ZM418.268 133.172C418.086 131.87 417.836 130.577 417.52 129.3L418.316 129.101C418.639 130.406 418.894 131.726 419.08 133.057L418.268 133.172ZM355.443 130.411L354.801 129.902C355.631 128.854 356.495 127.817 357.37 126.821L357.987 127.363C357.121 128.349 356.265 129.375 355.443 130.411ZM416.342 125.546C415.873 124.323 415.318 123.134 414.681 121.99L415.397 121.589C416.054 122.768 416.625 123.991 417.108 125.251L416.342 125.546ZM360.679 124.448L360.092 123.874C361.043 122.899 362.011 121.958 362.969 121.078L363.524 121.683C362.577 122.553 361.619 123.483 360.679 124.448H360.679ZM366.521 119.091L366.005 118.453C367.064 117.595 368.14 116.781 369.208 116.031L369.679 116.703C368.628 117.441 367.565 118.244 366.521 119.091H366.521ZM412.501 118.741C411.687 117.72 410.785 116.774 409.806 115.912L410.347 115.295C411.363 116.189 412.298 117.17 413.142 118.228L412.501 118.741ZM372.999 114.557L372.582 113.85C373.758 113.155 374.951 112.518 376.131 111.958L376.483 112.699C375.326 113.249 374.154 113.875 372.999 114.557L372.999 114.557ZM406.653 113.606C406.076 113.258 405.471 112.928 404.855 112.626C404.283 112.347 403.714 112.086 403.147 111.844L403.469 111.089C404.048 111.336 404.631 111.602 405.216 111.889C405.853 112.202 406.48 112.542 407.078 112.904L406.653 113.606ZM380.126 111.183L379.851 110.411C381.117 109.958 382.409 109.578 383.718 109.271L383.904 110.072C382.625 110.371 381.364 110.742 380.126 111.183V111.183ZM399.445 110.509C398.188 110.138 396.908 109.847 395.614 109.638L395.744 108.826C397.073 109.042 398.387 109.341 399.678 109.722L399.445 110.509ZM387.778 109.418L387.694 108.602C388.777 108.489 389.865 108.434 390.954 108.436C391.209 108.436 391.466 108.44 391.725 108.447L391.701 109.268C391.428 109.26 391.168 109.26 390.884 109.257C389.847 109.257 388.81 109.311 387.778 109.418ZM351.16 136.494V135.063C351.16 134.38 351.153 133.699 351.14 133.019L351.96 133.003C351.965 133.241 351.969 133.479 351.971 133.717C352.094 133.54 352.23 133.344 352.382 133.13L353.051 133.603C352.316 134.646 351.922 135.275 351.918 135.281L351.16 136.494ZM350.984 128.964C350.905 127.614 350.799 126.255 350.67 124.922L351.487 124.841C351.617 126.186 351.723 127.557 351.802 128.916L350.984 128.964ZM144.841 128.883L144.022 128.835C144.102 127.483 144.21 126.112 144.342 124.76L145.159 124.841C145.027 126.182 144.92 127.541 144.841 128.883ZM350.198 120.894C350.014 119.56 349.803 118.212 349.569 116.887L350.376 116.745C350.613 118.08 350.826 119.438 351.01 120.782L350.198 120.894ZM145.633 120.813L144.821 120.701C145.005 119.366 145.219 118.007 145.459 116.664L146.266 116.808C146.029 118.141 145.816 119.489 145.633 120.813ZM348.781 112.909C348.494 111.593 348.177 110.266 347.838 108.965L348.632 108.758C348.973 110.07 349.293 111.408 349.582 112.734L348.781 112.909ZM147.056 112.83L146.255 112.654C146.543 111.338 146.864 110.001 147.209 108.68L148.003 108.887C147.66 110.198 147.342 111.525 147.056 112.83ZM346.74 105.061C346.351 103.777 345.929 102.476 345.484 101.194L346.26 100.924C346.708 102.217 347.133 103.528 347.525 104.824L346.74 105.061ZM149.105 104.985L148.32 104.746C148.715 103.445 149.14 102.137 149.584 100.859L150.36 101.128C149.918 102.396 149.497 103.694 149.105 104.985ZM344.077 97.3795C343.589 96.1329 343.065 94.8695 342.52 93.626L343.271 93.2958C343.821 94.5504 344.349 95.8234 344.841 97.0796L344.077 97.3795ZM151.767 97.3233L151.002 97.0236C151.498 95.7617 152.024 94.4951 152.565 93.2589L153.317 93.5892C152.779 94.8149 152.258 96.0712 151.767 97.3233ZM340.816 89.9376C340.232 88.7351 339.61 87.5173 338.97 86.3204L339.692 85.9324C340.338 87.1398 340.965 88.3663 341.554 89.5784L340.816 89.9376ZM155.013 89.9168L154.276 89.5576C154.871 88.3335 155.495 87.1109 156.131 85.9252L156.854 86.3133C156.224 87.4901 155.603 88.7022 155.013 89.9167V89.9168ZM158.836 82.7827L158.13 82.3659C158.823 81.1866 159.542 80.017 160.266 78.8882L160.956 79.3323C160.238 80.4515 159.525 81.6123 158.836 82.7827L158.836 82.7827ZM336.982 82.7787C336.302 81.6211 335.586 80.4571 334.856 79.3203L335.547 78.8762C336.283 80.0226 337.004 81.1962 337.689 82.3635L336.982 82.7787ZM163.209 75.9661L162.536 75.4963C163.314 74.3828 164.123 73.2717 164.939 72.1951L165.593 72.6905C164.782 73.7599 163.98 74.8614 163.209 75.9661ZM332.597 75.9469C331.825 74.8398 331.021 73.7367 330.209 72.6673L330.862 72.1702C331.68 73.2485 332.49 74.3612 333.27 75.4771L332.597 75.9469ZM168.104 69.5103L167.469 68.9892C168.324 67.9478 169.217 66.9033 170.123 65.8835L170.736 66.4286C169.837 67.4404 168.951 68.4769 168.104 69.5103ZM327.695 69.483C326.837 68.4393 325.95 67.4019 325.059 66.4006L325.671 65.8539C326.57 66.864 327.464 67.9094 328.329 68.9619L327.695 69.483ZM173.489 63.4529L172.897 62.8837C173.837 61.9065 174.809 60.9341 175.786 59.9937L176.354 60.5853C175.385 61.5185 174.421 62.4829 173.489 63.4529ZM322.304 63.4232C321.368 62.45 320.404 61.4856 319.437 60.5573L320.005 59.9656C320.98 60.9012 321.952 61.8728 322.895 62.8541L322.304 63.4232ZM179.33 57.8308L178.785 57.2167C179.8 56.3148 180.844 55.4209 181.892 54.56L182.412 55.1949C181.373 56.0487 180.336 56.9353 179.33 57.8308ZM316.461 57.8059C315.456 56.9121 314.42 56.027 313.38 55.1732L313.9 54.5383C314.948 55.3985 315.993 56.2916 317.006 57.1918L316.461 57.8059ZM185.596 52.6809L185.101 52.0267C186.182 51.2074 187.294 50.3977 188.407 49.6193L188.876 50.2927C187.772 51.0639 186.669 51.868 185.596 52.6809ZM310.2 52.6624C309.129 51.8512 308.028 51.0495 306.925 50.2791L307.395 49.6056C308.506 50.3817 309.616 51.1905 310.696 52.0083L310.2 52.6624ZM192.248 48.0344L191.806 47.3433C192.945 46.6114 194.118 45.8915 195.291 45.2021L195.706 45.9108C194.542 46.5938 193.379 47.3089 192.248 48.0344ZM303.558 48.0256C302.419 47.2944 301.258 46.5818 300.109 45.9076L300.524 45.1989C301.683 45.8795 302.853 46.5978 304.001 47.3345L303.558 48.0256ZM296.58 43.9259C295.398 43.2925 294.186 42.6736 292.977 42.0868L293.336 41.3477C294.555 41.9401 295.777 42.5638 296.968 43.2027L296.58 43.9259ZM199.247 43.9235L198.859 43.2003C200.052 42.5606 201.279 41.9345 202.505 41.338L202.864 42.0772C201.647 42.668 200.43 43.2893 199.247 43.9235ZM289.306 40.3897C288.083 39.8526 286.826 39.3315 285.573 38.84L285.872 38.0753C287.136 38.5707 288.401 39.0966 289.636 39.6377L289.306 40.3897ZM206.55 40.3744L206.221 39.6225C207.47 39.0758 208.743 38.5482 210.004 38.0544L210.302 38.8192C209.051 39.3083 207.789 39.8317 206.55 40.3744ZM281.769 37.4347C280.502 36.9938 279.205 36.573 277.916 36.1817L278.153 35.3961C279.453 35.7905 280.761 36.2154 282.038 36.6587L281.769 37.4347ZM214.116 37.4131L213.848 36.6371C215.135 36.1914 216.447 35.7657 217.745 35.3728L217.982 36.1585C216.695 36.5481 215.393 36.9706 214.116 37.4131ZM274.014 35.0818C272.706 34.7411 271.38 34.4237 270.073 34.1375L270.247 33.3358C271.566 33.6236 272.902 33.9443 274.22 34.2882L274.014 35.0818ZM221.885 35.061L221.678 34.2658C222.99 33.9259 224.326 33.6068 225.651 33.3182L225.826 34.1199C224.511 34.406 223.185 34.7227 221.885 35.061ZM266.098 33.3495C264.763 33.113 263.416 32.9005 262.093 32.7185L262.206 31.9056C263.538 32.0884 264.896 32.3025 266.24 32.5414L266.098 33.3495ZM229.803 33.335L229.66 32.5269C230.988 32.2912 232.346 32.0788 233.696 31.8944L233.807 32.7073C232.468 32.8909 231.121 33.1017 229.803 33.335ZM258.068 32.2463C256.729 32.1149 255.369 32.0091 254.028 31.9305L254.076 31.1112C255.428 31.1898 256.798 31.2972 258.148 31.4287L258.068 32.2463ZM237.832 32.2367L237.754 31.419C239.118 31.2883 240.488 31.1825 241.826 31.1055L241.874 31.9249C240.545 32.0019 239.186 32.1069 237.832 32.2367ZM249.977 31.7718C248.63 31.7453 247.273 31.7453 245.923 31.771L245.907 30.95C247.267 30.9244 248.637 30.9244 249.993 30.9508L249.977 31.7718ZM144.66 136.393L143.911 135.295C143.911 135.295 143.497 134.687 142.783 133.57L143.473 133.127C143.61 133.341 143.735 133.535 143.848 133.709C143.851 133.474 143.855 133.238 143.86 133.003L144.68 133.019C144.666 133.699 144.66 134.38 144.66 135.063L144.66 136.393ZM140.564 129.975C139.918 128.895 139.201 127.67 138.436 126.32L139.151 125.916C139.911 127.26 140.624 128.479 141.268 129.554L140.564 129.975ZM136.399 122.615C135.763 121.426 135.11 120.172 134.45 118.862L135.183 118.493C135.839 119.796 136.489 121.044 137.122 122.227L136.399 122.615ZM132.596 115.063C131.991 113.78 131.401 112.485 130.843 111.215L131.595 110.884C132.149 112.149 132.736 113.436 133.338 114.712L132.596 115.063ZM129.199 107.318C128.665 105.992 128.153 104.663 127.679 103.369L128.449 103.087C128.92 104.372 129.428 105.693 129.96 107.01L129.199 107.318ZM126.297 99.3708C125.854 98.012 125.441 96.6484 125.068 95.3184L125.858 95.0971C126.228 96.4159 126.638 97.7683 127.077 99.1159L126.297 99.3708ZM124.02 91.2131C123.698 89.8077 123.415 88.4096 123.181 87.058L123.988 86.9185C124.221 88.2549 124.5 89.6378 124.82 91.0287L124.02 91.2131ZM122.583 82.8596C122.426 81.4215 122.323 79.9969 122.276 78.6244L123.097 78.5972C123.142 79.9488 123.244 81.3525 123.399 82.7699L122.583 82.8596ZM123.133 74.4181L122.314 74.3732C122.389 72.9556 122.537 71.5428 122.758 70.1404L123.569 70.2686C123.352 71.6434 123.207 73.0284 123.133 74.4181V74.4181ZM124.464 66.205L123.676 65.9789C124.067 64.6094 124.552 63.2683 125.126 61.9649L125.876 62.2969C125.317 63.5659 124.845 64.8717 124.464 66.205V66.205ZM127.833 58.6397L127.141 58.1988C127.85 57.084 128.637 56.0204 129.496 55.0161L129.699 54.7796L130.319 55.3168L130.119 55.55C129.286 56.525 128.522 57.5574 127.833 58.6397V58.6397ZM133.175 52.2664L132.6 51.6812C133.62 50.6751 134.68 49.7163 135.749 48.8312L136.271 49.4646C135.221 50.3336 134.18 51.2764 133.175 52.2664H133.175ZM139.603 46.9521L139.14 46.2739C140.317 45.4707 141.536 44.7227 142.764 44.0509L143.158 44.7708C141.953 45.4306 140.757 46.1641 139.603 46.9521V46.9521ZM146.911 42.9566L146.592 42.1999C147.899 41.6485 149.233 41.1634 150.588 40.7464L150.83 41.5304C149.501 41.9396 148.193 42.4156 146.911 42.9566V42.9566ZM175.578 41.1537C174.236 40.8178 172.86 40.534 171.486 40.3095L171.617 39.4998C173.013 39.7275 174.413 40.0161 175.777 40.3568L175.578 41.1537ZM154.872 40.5099L154.712 39.7051C156.088 39.4293 157.502 39.2168 158.915 39.0742L158.998 39.8903C157.611 40.0313 156.223 40.2398 154.872 40.5099V40.5099ZM167.338 39.8077C166.086 39.7091 164.824 39.6594 163.587 39.6594L163.166 39.661L163.156 38.84L163.589 38.8384C164.845 38.8384 166.129 38.889 167.402 38.9899L167.338 39.8077ZM181.465 43.0729C181.459 43.0705 180.784 42.7667 179.588 42.3474L179.859 41.573C181.093 42.0051 181.775 42.3129 181.803 42.3257L181.465 43.0729ZM366.875 208.788L366.055 208.756C366.056 208.752 366.065 208.508 366.065 208.059C366.065 207.35 366.043 206.188 365.939 204.688L366.757 204.632C366.862 206.155 366.885 207.336 366.885 208.059C366.885 208.532 366.875 208.788 366.875 208.788ZM365.521 200.624C365.335 199.274 365.105 197.919 364.834 196.599L365.638 196.434C365.912 197.772 366.146 199.144 366.333 200.513L365.521 200.624ZM363.874 192.636C363.5 191.305 363.078 190.001 362.622 188.758L363.391 188.475C363.856 189.737 364.284 191.062 364.664 192.413L363.874 192.636ZM361.054 185.003C360.469 183.762 359.828 182.554 359.148 181.414L359.853 180.994C360.546 182.157 361.2 183.388 361.796 184.654L361.054 185.003ZM302.578 179.158L301.89 178.71C302.348 178.005 303.088 176.826 304.013 175.214L304.506 175.498C305.094 174.853 305.709 174.222 306.343 173.612L306.912 174.203C305.934 175.142 305.007 176.132 304.135 177.169L303.923 176.992C303.36 177.934 302.9 178.661 302.578 179.158ZM356.884 178.049C356.07 176.971 355.192 175.941 354.257 174.967L354.848 174.397C355.806 175.395 356.704 176.449 357.538 177.553L356.884 178.049ZM351.277 172.229C350.227 171.381 349.125 170.601 347.977 169.894L348.406 169.194C349.585 169.921 350.716 170.721 351.793 171.591L351.277 172.229ZM306.705 172.003L305.977 171.623C306.603 170.423 307.217 169.19 307.802 167.959L308.543 168.312C307.954 169.552 307.335 170.794 306.705 172.003H306.705ZM309.987 171.551L309.484 170.901C310.578 170.053 311.72 169.267 312.904 168.549L313.328 169.251C312.172 169.953 311.056 170.721 309.987 171.551H309.987ZM344.408 167.993C343.5 167.578 342.557 167.198 341.604 166.861C341.277 166.745 340.952 166.634 340.63 166.529L340.885 165.748C341.214 165.856 341.545 165.969 341.877 166.087C342.852 166.431 343.819 166.821 344.75 167.246L344.408 167.993ZM316.914 167.365L316.577 166.616C317.841 166.048 319.14 165.563 320.466 165.163L320.703 165.949C319.411 166.339 318.145 166.812 316.914 167.365ZM336.714 165.46C335.394 165.172 334.058 164.96 332.712 164.825L332.793 164.008C334.169 164.145 335.537 164.363 336.889 164.659L336.714 165.46ZM324.644 165.046L324.514 164.235C325.882 164.017 327.262 163.889 328.647 163.853L328.668 164.674C327.32 164.709 325.975 164.833 324.644 165.046ZM310.244 164.557L309.491 164.231C310.028 162.984 310.55 161.709 311.041 160.445L311.805 160.742C311.311 162.016 310.786 163.3 310.244 164.557L310.244 164.557ZM313.223 156.87L312.447 156.603C312.896 155.301 313.319 153.991 313.704 152.71L314.489 152.947C314.101 154.238 313.675 155.558 313.223 156.87L313.223 156.87ZM315.598 148.976L314.803 148.772C315.142 147.452 315.455 146.112 315.735 144.791L316.538 144.961C316.256 146.293 315.939 147.644 315.598 148.976V148.976ZM317.299 140.907L316.49 140.774C316.71 139.43 316.901 138.069 317.055 136.728L317.871 136.822C317.714 138.176 317.522 139.55 317.299 140.907V140.907ZM318.242 132.714L317.423 132.661C317.511 131.296 317.564 129.924 317.579 128.582L318.4 128.592C318.384 129.948 318.331 131.335 318.242 132.714V132.714ZM317.515 124.502C317.456 123.14 317.357 121.771 317.221 120.432L318.037 120.349C318.175 121.704 318.275 123.089 318.336 124.466L317.515 124.502ZM316.689 116.388C316.471 115.053 316.211 113.706 315.913 112.384L316.712 112.203C317.015 113.542 317.279 114.905 317.498 116.256L316.689 116.388ZM314.891 108.438C314.51 107.137 314.084 105.832 313.624 104.562L314.395 104.283C314.861 105.569 315.293 106.89 315.677 108.207L314.891 108.438ZM312.116 100.773C311.577 99.5351 310.991 98.2942 310.374 97.0868L311.105 96.7132C311.729 97.9358 312.323 99.192 312.868 100.446L312.116 100.773ZM308.411 93.5114C307.715 92.3265 306.988 91.1649 306.247 90.0578L306.929 89.6009C307.678 90.7216 308.415 91.8976 309.118 93.0961L308.411 93.5114ZM303.882 86.7389C303.06 85.6582 302.195 84.5953 301.311 83.5795L301.93 83.0408C302.825 84.0702 303.702 85.1468 304.534 86.2418L303.882 86.7389ZM298.535 80.6005C297.578 79.6425 296.577 78.7078 295.559 77.8236L296.097 77.203C297.129 78.1009 298.145 79.0485 299.115 80.0201L298.535 80.6005ZM292.39 75.2678C291.311 74.4597 290.184 73.6813 289.043 72.9534L289.484 72.2608C290.643 72.9999 291.786 73.7904 292.882 74.6105L292.39 75.2678ZM285.532 70.8907C284.347 70.2518 283.118 69.6457 281.881 69.0902L282.217 68.3414C283.473 68.905 284.719 69.5199 285.922 70.1676L285.532 70.8907ZM278.108 67.5582C276.841 67.0948 275.539 66.6692 274.236 66.2924L274.464 65.5035C275.784 65.8851 277.105 66.3172 278.39 66.787L278.108 67.5582ZM270.286 65.2903C268.979 65.0041 267.63 64.7532 266.279 64.5464L266.402 63.735C267.772 63.9443 269.137 64.1984 270.463 64.4886L270.286 65.2903ZM242.946 65.0466L242.437 64.6786C242.407 64.2794 242.401 64.196 245.836 63.6773L245.958 64.4886C244.051 64.7765 242.957 65.0434 242.946 65.0466V65.0466ZM262.231 64.0525C260.889 63.9299 259.519 63.8465 258.159 63.8032L258.184 62.9823C259.562 63.0264 260.948 63.1113 262.305 63.2348L262.231 64.0525ZM250.008 64.0165L249.938 63.1988C251.292 63.0833 252.679 63.0064 254.059 62.9703L254.08 63.7912C252.716 63.8265 251.346 63.9026 250.008 64.0165Z" fill="white"/>
<path d="M358.195 138.707C358.195 141.78 352.675 149.502 352.675 149.502C352.675 149.502 347.155 141.78 347.155 138.707C347.157 137.232 347.739 135.818 348.774 134.776C349.809 133.733 351.212 133.148 352.675 133.148C354.138 133.148 355.541 133.733 356.576 134.776C357.611 135.818 358.193 137.232 358.195 138.707Z" fill="#E50042"/>
<path d="M355.329 138.667C355.329 139.193 355.161 139.707 354.847 140.144C354.532 140.581 354.085 140.922 353.562 141.123C353.039 141.324 352.464 141.377 351.909 141.274C351.353 141.171 350.843 140.918 350.443 140.547C350.043 140.175 349.77 139.701 349.66 139.186C349.549 138.67 349.606 138.136 349.823 137.65C350.039 137.165 350.406 136.75 350.877 136.458C351.348 136.166 351.901 136.01 352.467 136.01C353.226 136.01 353.954 136.29 354.491 136.788C355.027 137.287 355.329 137.963 355.329 138.667Z" fill="white"/>
<path d="M150.487 137.959C150.487 142.875 141.492 155.227 141.492 155.227C141.492 155.227 132.497 142.875 132.497 137.959C132.497 135.599 133.444 133.335 135.131 131.666C136.818 129.997 139.106 129.059 141.492 129.059C143.877 129.059 146.165 129.997 147.852 131.666C149.539 133.335 150.487 135.599 150.487 137.959Z" fill="#E50042"/>
<path d="M145.992 138.054C145.992 138.944 145.728 139.813 145.234 140.553C144.739 141.293 144.037 141.869 143.215 142.209C142.393 142.55 141.489 142.639 140.617 142.465C139.744 142.292 138.943 141.863 138.314 141.234C137.685 140.605 137.257 139.804 137.083 138.932C136.909 138.059 136.999 137.155 137.339 136.333C137.679 135.511 138.256 134.809 138.995 134.315C139.735 133.82 140.605 133.557 141.494 133.557C142.687 133.557 143.831 134.031 144.674 134.874C145.518 135.717 145.992 136.861 145.992 138.054Z" fill="white"/>
<path d="M372.095 211.223C372.095 214.371 366.37 222.281 366.37 222.281C366.37 222.281 360.646 214.371 360.646 211.223C360.646 210.474 360.793 209.732 361.08 209.04C361.368 208.347 361.789 207.718 362.321 207.189C362.853 206.659 363.484 206.238 364.179 205.952C364.874 205.665 365.618 205.517 366.371 205.517C367.123 205.517 367.867 205.665 368.562 205.952C369.257 206.238 369.888 206.659 370.42 207.189C370.952 207.718 371.373 208.347 371.661 209.04C371.948 209.732 372.095 210.474 372.095 211.223Z" fill="#FED62F"/>
<path d="M369.233 211.241C369.233 211.807 369.065 212.361 368.751 212.831C368.436 213.302 367.989 213.669 367.466 213.885C366.943 214.102 366.368 214.159 365.813 214.048C365.258 213.938 364.748 213.665 364.347 213.265C363.947 212.865 363.674 212.355 363.564 211.8C363.454 211.244 363.51 210.669 363.727 210.146C363.944 209.623 364.31 209.176 364.781 208.862C365.252 208.547 365.805 208.379 366.371 208.379C366.747 208.379 367.119 208.453 367.466 208.597C367.814 208.741 368.129 208.952 368.395 209.217C368.661 209.483 368.872 209.799 369.015 210.146C369.159 210.493 369.233 210.865 369.233 211.241Z" fill="white"/>
<path d="M305.45 180.245C305.45 182.318 301.77 187.527 301.77 187.527C301.77 187.527 298.091 182.318 298.091 180.245C298.09 179.752 298.185 179.264 298.369 178.808C298.554 178.352 298.825 177.937 299.167 177.588C299.509 177.239 299.914 176.963 300.361 176.774C300.808 176.585 301.287 176.488 301.77 176.488C302.254 176.488 302.733 176.585 303.18 176.774C303.626 176.963 304.032 177.239 304.374 177.588C304.716 177.937 304.987 178.352 305.171 178.808C305.356 179.264 305.451 179.752 305.45 180.245Z" fill="#39B54A"/>
<path d="M303.403 179.963C303.403 180.327 303.295 180.683 303.093 180.985C302.891 181.288 302.604 181.524 302.268 181.663C301.931 181.802 301.561 181.838 301.205 181.767C300.848 181.696 300.52 181.521 300.263 181.264C300.005 181.007 299.83 180.679 299.759 180.322C299.688 179.965 299.724 179.595 299.864 179.259C300.003 178.923 300.239 178.635 300.541 178.433C300.844 178.231 301.2 178.123 301.563 178.123C301.805 178.123 302.044 178.171 302.268 178.263C302.491 178.356 302.694 178.491 302.865 178.662C303.035 178.833 303.171 179.036 303.263 179.259C303.356 179.482 303.403 179.721 303.403 179.963Z" fill="white"/>
<path d="M244.935 66.8473C244.935 68.8442 241.256 73.862 241.256 73.862C241.256 73.862 237.576 68.8442 237.576 66.8473C237.576 66.3724 237.671 65.9022 237.856 65.4636C238.041 65.0249 238.312 64.6263 238.654 64.2905C238.995 63.9547 239.401 63.6884 239.847 63.5067C240.294 63.325 240.772 63.2314 241.256 63.2314C241.739 63.2314 242.217 63.325 242.664 63.5067C243.11 63.6884 243.516 63.9547 243.858 64.2905C244.199 64.6263 244.47 65.0249 244.655 65.4636C244.84 65.9022 244.935 66.3724 244.935 66.8473Z" fill="#346BA2"/>
<path d="M243.302 66.7065C243.302 67.0704 243.194 67.4262 242.992 67.7287C242.79 68.0313 242.502 68.2672 242.166 68.4064C241.83 68.5457 241.46 68.5821 241.103 68.5112C240.746 68.4402 240.418 68.2649 240.161 68.0076C239.904 67.7503 239.728 67.4225 239.657 67.0656C239.586 66.7087 239.623 66.3387 239.762 66.0025C239.901 65.6663 240.137 65.379 240.44 65.1768C240.742 64.9746 241.098 64.8667 241.462 64.8667C241.95 64.8667 242.418 65.0605 242.763 65.4056C243.108 65.7506 243.302 66.2186 243.302 66.7065Z" fill="white"/>
<path d="M67.2587 190.325L80.5248 183.582C81.9047 183.012 87.0156 182.071 90.0854 186.285C92.4463 189.526 90.8374 194.262 88.4397 195.742L75.4662 203.685L67.2587 190.325Z" fill="#E5E5E5"/>
<path d="M90.0856 186.285C89.7144 185.775 89.2836 185.311 88.8023 184.903C88.7089 187.227 87.5174 189.445 86.0098 190.375L73.0362 198.318L67.9194 189.99L67.2587 190.326L75.4664 203.685L88.44 195.742C90.8377 194.263 92.4465 189.526 90.0856 186.285Z" fill="#D1D1D1"/>
<path d="M44.3794 198.039L65.3843 187.362C67.5689 186.459 75.6611 184.97 80.5216 191.642C84.2597 196.773 81.7125 204.273 77.916 206.615L57.3747 219.192L44.3794 198.039Z" fill="white"/>
<path d="M80.5216 191.642C80.4524 191.547 80.3691 191.49 80.2988 191.399C80.8632 195.708 78.769 200.222 75.9761 201.945L55.4348 214.522L45.0875 197.68L44.3794 198.04L57.3748 219.192L77.916 206.615C81.7126 204.273 84.2597 196.773 80.5216 191.642Z" fill="#E5E5E5"/>
<path d="M57.7192 204.41C61.3079 210.251 61.1521 216.869 57.3714 219.192C53.5907 221.515 47.6168 218.663 44.0282 212.822C40.4396 206.98 40.5954 200.362 44.3761 198.04C48.1568 195.717 54.1307 198.569 57.7192 204.41Z" fill="#494949"/>
<path d="M57.6787 205.603C60.686 210.498 60.5555 216.044 57.3872 217.991C54.2189 219.937 49.2126 217.547 46.2052 212.652C43.198 207.757 43.3285 202.211 46.4967 200.265C49.665 198.318 54.6714 200.708 57.6787 205.603Z" fill="#121212"/>
<path d="M49.7755 205.969C47.3827 207.84 46.2948 210.432 47.3598 212.028C48.4246 213.625 51.2537 213.643 53.9228 212.187C53.2165 209.735 51.7675 207.563 49.7755 205.969H49.7755Z" fill="#D1D1D1"/>
<path d="M45.0994 142.648L55.5662 137.327C56.6548 136.878 60.6873 136.135 63.1093 139.46C64.972 142.017 63.7027 145.754 61.8109 146.921L51.575 153.189L45.0994 142.648Z" fill="#B9B9BA"/>
<path d="M63.1094 139.46C62.8165 139.057 62.4767 138.691 62.097 138.369C62.0841 139.21 61.8788 140.036 61.4968 140.784C61.1149 141.533 60.5664 142.184 59.8936 142.687L49.6578 148.954L45.6207 142.383L45.0994 142.648L51.5751 153.188L61.8111 146.921C63.7029 145.754 64.9721 142.017 63.1094 139.46Z" fill="#003960"/>
<path d="M27.0475 148.734L43.62 140.31C45.3437 139.598 51.7283 138.422 55.5632 143.686C58.5125 147.735 56.5028 153.652 53.5072 155.5L37.3006 165.423L27.0475 148.734Z" fill="white"/>
<path d="M55.5632 143.686C55.5086 143.611 55.4429 143.566 55.3874 143.494C55.8327 146.894 54.1805 150.456 51.9769 151.815L35.7701 161.738L27.6062 148.45L27.0475 148.734L37.3007 165.423L53.5073 155.5C56.5029 153.652 58.5125 147.735 55.5632 143.686Z" fill="#E5E5E5"/>
<path d="M37.5723 153.76C40.4036 158.369 40.2808 163.591 37.2979 165.423C34.315 167.256 29.6017 165.005 26.7703 160.397C23.9389 155.788 24.0618 150.567 27.0447 148.734C30.0277 146.902 34.7409 149.152 37.5723 153.76Z" fill="#494949"/>
<path d="M37.5461 154.702C39.9188 158.564 39.8158 162.94 37.3161 164.475C34.8163 166.011 30.8664 164.125 28.4938 160.263C26.121 156.401 26.2239 152.025 28.7237 150.49C31.2234 148.954 35.1734 150.84 37.5461 154.702Z" fill="#121212"/>
<path d="M31.311 154.99C29.423 156.466 28.5647 158.511 29.405 159.771C30.2452 161.03 32.4772 161.045 34.5831 159.896C34.0258 157.962 32.8826 156.248 31.311 154.99V154.99Z" fill="#D1D1D1"/>
<path d="M95.784 203.711L33.4401 105.131L51.1455 100.619L143.742 180.541L95.784 203.711Z" fill="#E5E5E5"/>
<path d="M33.4401 105.131V109.467L91.9694 207.631L95.784 203.712L33.4401 105.131Z" fill="#B2B2B2"/>
<path d="M134.997 172.991L89.2511 193.379L86.5472 198.534L91.971 207.631L143.743 180.541L134.997 172.991Z" fill="#B2B2B2"/>
<path d="M220.544 104.432L207.705 109.068L211.272 151.756L241.943 139.026L220.544 104.432Z" fill="#E5E5E5"/>
<path d="M176.142 241.783L191.717 233.866C193.337 233.197 199.337 232.092 202.941 237.039C205.713 240.844 203.824 246.405 201.009 248.142L185.778 257.467L176.142 241.783Z" fill="#F2F2F3"/>
<path d="M202.941 237.039C202.505 236.44 202 235.895 201.435 235.417C201.325 238.145 199.926 240.749 198.156 241.841L182.925 251.166L176.918 241.388L176.142 241.783L185.778 257.467L201.009 248.141C203.824 246.405 205.713 240.844 202.941 237.039Z" fill="#D1D1D1"/>
<path d="M149.278 250.839L173.939 238.304C176.503 237.244 186.004 235.495 191.71 243.328C196.099 249.353 193.108 258.157 188.651 260.907L164.535 275.673L149.278 250.839Z" fill="white"/>
<path d="M191.71 243.328C191.628 243.217 191.531 243.15 191.448 243.043C192.111 248.102 189.652 253.401 186.373 255.424L162.257 270.189L150.11 250.417L149.278 250.839L164.535 275.673L188.651 260.907C193.108 258.158 196.098 249.353 191.71 243.328Z" fill="#E5E5E5"/>
<path d="M164.935 258.318C169.148 265.176 168.966 272.945 164.527 275.672C160.088 278.399 153.075 275.051 148.862 268.193C144.649 261.336 144.832 253.566 149.27 250.839C153.709 248.112 160.722 251.461 164.935 258.318Z" fill="#494949"/>
<path d="M164.893 259.719C168.424 265.466 168.271 271.977 164.551 274.262C160.832 276.547 154.954 273.741 151.423 267.994C147.893 262.247 148.046 255.736 151.766 253.451C155.485 251.166 161.363 253.972 164.893 259.719Z" fill="#121212"/>
<path d="M155.617 260.149C152.808 262.345 151.531 265.388 152.781 267.262C154.031 269.136 157.353 269.158 160.486 267.448C159.657 264.57 157.956 262.02 155.617 260.149V260.149Z" fill="#D1D1D1"/>
<path d="M283.502 243.354L299.077 235.436C300.696 234.767 306.697 233.663 310.301 238.61C313.072 242.415 311.184 247.976 308.368 249.712L293.137 259.038L283.502 243.354Z" fill="#F2F2F3"/>
<path d="M310.301 238.609C309.865 238.01 309.359 237.465 308.794 236.987C308.685 239.715 307.286 242.319 305.516 243.411L290.285 252.736L284.277 242.958L283.502 243.353L293.138 259.037L308.369 249.711C311.184 247.975 313.073 242.414 310.301 238.609Z" fill="#D1D1D1"/>
<path d="M256.631 252.409L281.291 239.874C283.856 238.814 293.356 237.065 299.062 244.899C303.451 250.923 300.461 259.728 296.003 262.477L271.888 277.243L256.631 252.409Z" fill="white"/>
<path d="M299.062 244.899C298.981 244.787 298.883 244.721 298.801 244.613C299.463 249.673 297.005 254.972 293.726 256.995L269.61 271.76L257.462 251.988L256.631 252.41L271.888 277.243L296.003 262.478C300.461 259.728 303.451 250.923 299.062 244.899Z" fill="#E5E5E5"/>
<path d="M272.3 259.889C276.514 266.747 276.331 274.516 271.892 277.243C267.454 279.97 260.44 276.622 256.227 269.764C252.014 262.907 252.197 255.137 256.635 252.41C261.074 249.683 268.087 253.032 272.3 259.889Z" fill="#494949"/>
<path d="M272.259 261.289C275.79 267.036 275.637 273.547 271.917 275.832C268.197 278.117 262.32 275.311 258.789 269.565C255.259 263.818 255.412 257.307 259.132 255.021C262.851 252.736 268.729 255.542 272.259 261.289Z" fill="#121212"/>
<path d="M262.976 261.72C260.167 263.916 258.89 266.959 260.14 268.833C261.39 270.707 264.712 270.729 267.845 269.019C267.016 266.141 265.315 263.591 262.976 261.72Z" fill="#D1D1D1"/>
<path d="M269.094 129.31C269.094 129.31 276.227 135.017 266.24 145.954C256.254 156.891 222.017 189.702 190.157 204.919C158.296 220.136 63.899 267.941 63.899 267.941C63.899 267.941 19.1997 289.815 3.98296 281.731C-11.2338 273.647 20.6263 233.227 41.0739 222.29C61.5215 211.353 199.191 145.478 199.191 145.478C199.191 145.478 240.562 126.457 269.094 129.31Z" fill="#E5E5E5"/>
<path d="M269.091 129.31C268.271 129.228 267.438 129.169 266.599 129.122C266.594 131.817 265.402 135.412 261.298 139.907C251.312 150.844 217.074 183.655 185.214 198.872C153.354 214.089 58.9567 261.894 58.9567 261.894C58.9567 261.894 16.2909 282.764 0.144165 276.175C0.278707 277.344 0.69897 278.463 1.3679 279.432C2.03683 280.401 2.93388 281.19 3.97995 281.731C19.1968 289.815 63.896 267.94 63.896 267.94C63.896 267.94 158.293 220.135 190.154 204.919C222.014 189.702 256.251 156.891 266.237 145.954C276.224 135.017 269.091 129.31 269.091 129.31Z" fill="#CE0045"/>
<path d="M67.4707 242.095C65.7513 242.955 64.5307 244.959 64.7448 246.572L65.0088 248.559C65.223 250.172 66.7907 250.782 68.5102 249.922C70.2297 249.062 71.45 247.058 71.2359 245.446L70.9719 243.458C70.7577 241.845 69.1902 241.235 67.4707 242.095ZM77.8252 236.917C76.1057 237.777 74.8852 239.781 75.0993 241.394L75.3633 243.382C75.5774 244.994 77.1452 245.604 78.8646 244.744C80.5842 243.884 81.8044 241.88 81.5903 240.268L81.3263 238.28C81.1122 236.668 79.5447 236.058 77.8252 236.917ZM88.1796 231.74C86.4601 232.599 85.2396 234.604 85.4538 236.216L85.7178 238.204C85.9319 239.816 87.4997 240.426 89.2191 239.566C90.9386 238.707 92.1589 236.703 91.9448 235.09L91.6808 233.102C91.4667 231.49 89.8991 230.88 88.1796 231.74ZM98.5341 226.562C96.8145 227.422 95.5941 229.426 95.8082 231.038L96.0722 233.026C96.2864 234.639 97.8541 235.249 99.5735 234.389C101.293 233.529 102.513 231.525 102.299 229.912L102.035 227.924C101.821 226.312 100.254 225.702 98.5341 226.562ZM108.889 221.384C107.169 222.244 105.949 224.248 106.163 225.861L106.427 227.848C106.641 229.461 108.209 230.071 109.928 229.211C111.647 228.351 112.868 226.347 112.654 224.734L112.39 222.747C112.176 221.134 110.608 220.524 108.889 221.384ZM119.243 216.206C117.523 217.066 116.303 219.07 116.517 220.683L116.781 222.67C116.995 224.283 118.563 224.893 120.282 224.033C122.002 223.173 123.222 221.169 123.008 219.557L122.744 217.569C122.53 215.956 120.963 215.346 119.243 216.206ZM129.597 211.028C127.878 211.888 126.658 213.892 126.872 215.505L127.136 217.493C127.35 219.105 128.917 219.715 130.637 218.855C132.356 217.995 133.577 215.991 133.363 214.379L133.099 212.391C132.885 210.779 131.317 210.169 129.597 211.028ZM139.952 205.851C138.232 206.711 137.012 208.715 137.226 210.327L137.49 212.315C137.704 213.927 139.272 214.537 140.991 213.678C142.711 212.818 143.931 210.814 143.717 209.201L143.453 207.213C143.239 205.601 141.671 204.991 139.952 205.851ZM150.306 200.673C148.587 201.533 147.366 203.537 147.581 205.149L147.845 207.137C148.059 208.75 149.626 209.36 151.346 208.5C153.065 207.64 154.286 205.636 154.072 204.023L153.808 202.035C153.593 200.423 152.026 199.813 150.306 200.673ZM160.661 195.495C158.941 196.355 157.721 198.359 157.935 199.971L158.199 201.959C158.413 203.572 159.981 204.182 161.7 203.322C163.42 202.462 164.64 200.458 164.426 198.845L164.162 196.858C163.948 195.245 162.38 194.635 160.661 195.495ZM171.015 190.317C169.296 191.177 168.075 193.181 168.289 194.794L168.553 196.781C168.768 198.394 170.335 199.004 172.055 198.144C173.774 197.284 174.995 195.28 174.781 193.668L174.517 191.68C174.302 190.067 172.735 189.457 171.015 190.317ZM181.37 185.139C179.65 185.999 178.43 188.003 178.644 189.616L178.908 191.604C179.122 193.216 180.69 193.826 182.409 192.966C184.129 192.106 185.349 190.102 185.135 188.49L184.871 186.502C184.657 184.89 183.089 184.28 181.37 185.139ZM191.724 179.962C190.005 180.821 188.784 182.826 188.998 184.438L189.262 186.426C189.477 188.038 191.044 188.648 192.764 187.788C194.483 186.929 195.704 184.925 195.489 183.312L195.225 181.324C195.011 179.712 193.444 179.102 191.724 179.962ZM202.079 174.784C200.359 175.644 199.139 177.648 199.353 179.26L199.617 181.248C199.831 182.861 201.399 183.47 203.118 182.611C204.838 181.751 206.058 179.747 205.844 178.134L205.58 176.146C205.366 174.534 203.798 173.924 202.079 174.784ZM212.433 169.606C210.714 170.466 209.493 172.47 209.707 174.082L209.971 176.07C210.185 177.683 211.753 178.293 213.473 177.433C215.192 176.573 216.413 174.569 216.198 172.956L215.934 170.969C215.72 169.356 214.153 168.746 212.433 169.606Z" fill="#003960"/>
<path d="M22.8548 259.519C20.8857 259.742 18.892 259.579 16.985 259.04L12.8779 266.163C15.1618 267.223 18.1595 267.255 21.0638 266.817L22.8548 259.519ZM11.2334 265.044L15.1952 258.173C12.3846 256.045 13.9017 252.318 13.9017 252.318C13.9017 252.318 6.3918 259.303 10.5669 264.406C10.7722 264.636 10.9951 264.849 11.2334 265.044ZM24.9431 259.318L23.2043 266.404C27.4425 265.44 31.0098 263.724 31.0969 263.156L32.3472 257.737C29.9156 258.422 27.4425 258.95 24.9431 259.318Z" fill="#005C98"/>
<path d="M126.844 229.601L360.599 231.35V236.937H126.844V229.601Z" fill="#B2B2B2"/>
<path d="M126.844 229.601L188.971 200.283L384.302 220.995L360.599 231.35L126.844 229.601Z" fill="#E5E5E5"/>
<path d="M239.685 160.964L312.284 159.221L327.289 150.05L263.097 142.547L239.685 160.964Z" fill="#E5E5E5"/>
<path d="M239.685 160.964V166.124L312.44 163.543L312.284 159.22L239.685 160.964Z" fill="#A3A3A3"/>
<path d="M327.282 150.05V154.597L312.432 163.543L312.276 159.22L327.282 150.05Z" fill="#B9B9BA"/>
<path d="M273.307 60.8148L266.342 129.718C266.342 129.718 256.218 141.185 219.783 149.678L258.326 66.9278L273.307 60.8148Z" fill="#E50042"/>
<path d="M219.784 149.678L216.223 146.672L255.41 65.9938L258.329 66.9283L219.784 149.678Z" fill="#CE0045"/>
<path d="M255.408 65.9938L270.502 60L273.306 60.8153L258.326 66.9284L255.408 65.9938Z" fill="#F71C55"/>
<path d="M384.219 226.355L360.601 236.937V231.35L384.305 220.995L384.219 226.355Z" fill="#F2F2F3"/>
<path d="M383.909 307.32C383.909 308.232 361.952 308.971 334.866 308.971C307.781 308.971 285.824 308.232 285.824 307.32C285.824 306.409 307.781 305.67 334.866 305.67C361.952 305.67 383.909 306.409 383.909 307.32Z" fill="#DD3565"/>
<path d="M326.504 275.789H294.973V307.32H326.504V275.789Z" fill="#FACE85"/>
<path d="M326.501 307.32L335.564 307.076V275.789H326.501V307.32Z" fill="#D9A059"/>
<path d="M314.335 275.789H307.138V284.17H314.335V275.789Z" fill="#D9A059"/>
<path d="M365.176 275.789H333.645V307.32H365.176V275.789Z" fill="#FACE85"/>
<path d="M365.178 307.32L374.241 307.076V275.789H365.178V307.32Z" fill="#D9A059"/>
<path d="M353.011 275.789H345.814V284.17H353.011V275.789Z" fill="#D9A059"/>
<path d="M336.856 248.448H309.515V275.789H336.856V248.448Z" fill="#FACE85"/>
<path d="M336.854 275.789L344.712 275.577V248.448H336.854V275.789Z" fill="#D9A059"/>
<path d="M326.303 248.448H320.062V255.715H326.303V248.448Z" fill="#D9A059"/>
</svg>
