<svg width="390" height="218" viewBox="0 0 390 218" fill="none" xmlns="http://www.w3.org/2000/svg">
<path d="M431.824 181.676C431.824 191.832 379.948 192.33 337.828 203.146C273.92 219.559 252.877 216.892 194.912 217.951C136.069 219.028 103.306 201.99 40.806 203.146C-9.99642 204.086 -42 192.699 -42 181.676C-42 174.17 -26.9463 169.601 -1.60434 161.407C70.4358 138.122 172.749 161.112 220.082 148.741C378.042 154.523 431.824 161.642 431.824 181.676Z" fill="white"/>
<path d="M171.995 73.4724H297.886V182.117H171.995V73.4724Z" fill="#D5033E"/>
<path d="M171.995 73.4723L197.11 67.5636H316.962L297.886 73.4723H171.995Z" fill="#E5819D"/>
<path d="M316.962 67.5636V166.911L297.886 182.117V73.4723L316.962 67.5636ZM223.015 182.079V162.454L225.435 162.773L226.089 163.921L226.478 162.564L228.645 162.535L229.662 165.975L230.881 162.357L233.089 162.466L233.917 164.365L234.761 162.773L236.486 164.559L236.9 162.847L239.642 163.417C239.642 163.417 240.751 165.16 240.805 165.25C240.884 165.262 241.193 163.371 241.193 163.371L244.084 162.748V182.12L223.015 182.079ZM244.084 73.5106V93.1383L241.661 92.8188L241.004 91.6713L240.616 93.0284L238.448 93.0566L237.431 89.6166L236.215 93.2355L234.007 93.1255L233.176 91.2267L232.333 92.8188L230.608 91.0324L230.194 92.7447L227.451 92.1748C227.451 92.1748 226.342 90.4318 226.289 90.345C226.209 90.3322 225.9 92.2234 225.9 92.2234L223.01 92.847V73.4749L244.084 73.5106ZM183.12 160.552H192.896V170.328H183.12V160.552ZM196.315 160.552H206.091V170.328H196.315V160.552Z" fill="#E5819D"/>
<path d="M273.54 0.637844C269.165 -2.17852 260.908 4.88028 254.922 11.0804C248.939 4.88283 240.684 -2.17597 236.301 0.637844C234.083 2.06647 233.194 4.77807 234.035 7.54843C235.341 11.8445 241.047 16.7821 252.786 17.6204C253.013 17.7021 253.251 17.7584 253.504 17.7584C253.992 17.7584 254.452 17.7354 254.922 17.7226C255.392 17.7354 255.852 17.7584 256.341 17.7584C256.591 17.7584 256.831 17.7021 257.059 17.6204C268.794 16.7795 274.501 11.842 275.81 7.54843C276.648 4.77807 275.759 2.06647 273.54 0.637844ZM238.085 6.36003C237.94 5.87956 237.699 4.70139 238.589 4.1238C238.671 4.09825 238.765 4.08546 238.87 4.08546C240.723 4.08546 245.944 8.04935 251.227 13.3319C242.348 12.302 238.783 8.65504 238.085 6.36003ZM271.757 6.36003C271.059 8.65504 267.494 12.302 258.615 13.3319C263.905 8.04168 269.132 4.0727 270.951 4.0727C271.051 4.0727 271.143 4.08545 271.222 4.10846C272.142 4.70137 271.905 5.87956 271.757 6.36003Z" fill="#D5033E"/>
<path d="M252.111 15.683H290.878V72.3962H252.111V15.683Z" fill="#F7D5DE"/>
<path d="M252.111 15.683H290.878V26.4117H252.111V15.683Z" fill="#F4A7BB"/>
<path d="M271.493 15.3433H278.089V72.3708H271.493V15.3433Z" fill="#AB1640"/>
<path d="M218.064 15.683H256.831V72.3962H218.064V15.683Z" fill="#ECB1C1"/>
<path d="M218.064 15.683H256.831V26.4117H218.064V15.683Z" fill="#EC8EA6"/>
<path d="M234.149 15.3433H240.746V72.3708H234.149V15.3433Z" fill="#D5033E"/>
<path d="M275.5 65.1128H347.716L357.645 182.043L344.675 181.729L333.571 188.854H302.591L275.5 65.1128Z" fill="#D5033E"/>
<path d="M343.167 65.1128H270.951L261.354 188.854H333.57L343.167 65.1128Z" fill="#E6819D"/>
<path d="M323.146 119.774C323.021 121.292 324.153 122.524 325.671 122.524C327.189 122.524 328.52 121.292 328.646 119.774C328.771 118.256 327.641 117.024 326.121 117.024C324.603 117.024 323.268 118.256 323.146 119.774ZM306.715 119.774C306.59 121.292 307.72 122.524 309.24 122.524C310.758 122.524 312.092 121.292 312.215 119.774C312.34 118.256 311.211 117.024 309.69 117.024C308.172 117.024 306.838 118.256 306.715 119.774ZM290.285 119.774C290.16 121.292 291.289 122.524 292.81 122.524C294.328 122.524 295.662 121.292 295.785 119.774C295.91 118.256 294.78 117.024 293.26 117.024C291.742 117.024 290.407 118.256 290.285 119.774ZM273.854 119.774C273.729 121.292 274.859 122.524 276.379 122.524C277.897 122.524 279.229 121.292 279.354 119.774C279.479 118.256 278.35 117.024 276.829 117.024C275.311 117.024 273.98 118.256 273.854 119.774ZM314.975 131.821C314.85 133.339 315.98 134.571 317.5 134.571C319.018 134.571 320.352 133.339 320.475 131.821C320.6 130.303 319.468 129.071 317.95 129.071C316.432 129.071 315.098 130.303 314.975 131.821ZM298.545 131.821C298.42 133.339 299.552 134.571 301.07 134.571C302.588 134.571 303.919 133.339 304.045 131.821C304.17 130.303 303.04 129.071 301.52 129.071C300.001 129.071 298.67 130.303 298.545 131.821ZM282.114 131.821C281.989 133.339 283.121 134.571 284.639 134.571C286.157 134.571 287.489 133.339 287.614 131.821C287.739 130.303 286.61 129.071 285.089 129.071C283.571 129.071 282.24 130.303 282.114 131.821ZM321.002 145.898C320.876 147.416 322.006 148.648 323.527 148.648C325.045 148.648 326.379 147.416 326.501 145.898C326.627 144.38 325.497 143.148 323.976 143.148C322.458 143.148 321.127 144.38 321.002 145.898ZM304.571 145.898C304.446 147.416 305.575 148.648 307.096 148.648C308.614 148.648 309.946 147.416 310.071 145.898C310.196 144.38 309.067 143.148 307.546 143.148C306.028 143.148 304.696 144.38 304.571 145.898ZM288.141 145.898C288.015 147.416 289.145 148.648 290.666 148.648C292.186 148.648 293.518 147.416 293.64 145.898C293.766 144.38 292.633 143.148 291.115 143.148C289.597 143.148 288.266 144.38 288.141 145.898ZM271.71 145.898C271.585 147.416 272.717 148.648 274.235 148.648C275.753 148.648 277.087 147.416 277.21 145.898C277.335 144.38 276.206 143.148 274.685 143.148C273.164 143.148 271.835 144.38 271.71 145.898ZM312.831 157.946C312.706 159.464 313.835 160.696 315.356 160.696C316.874 160.696 318.206 159.464 318.331 157.946C318.456 156.428 317.326 155.196 315.806 155.196C314.288 155.196 312.956 156.425 312.831 157.946ZM296.401 157.946C296.275 159.464 297.405 160.696 298.926 160.696C300.444 160.696 301.778 159.464 301.9 157.946C302.026 156.428 300.896 155.196 299.375 155.196C297.857 155.196 296.526 156.425 296.401 157.946ZM279.97 157.946C279.845 159.464 280.974 160.696 282.495 160.696C284.013 160.696 285.347 159.464 285.47 157.946C285.595 156.428 284.466 155.196 282.945 155.196C281.427 155.196 280.095 156.425 279.97 157.946ZM296.861 78.7014C296.978 80.3728 295.718 81.7299 294.047 81.7299C292.375 81.7299 290.921 80.3728 290.804 78.7014C290.686 77.03 291.946 75.673 293.617 75.673C295.291 75.673 296.743 77.03 296.861 78.7014ZM321.74 78.7014C321.858 80.3728 320.598 81.7299 318.926 81.7299C317.255 81.7299 315.801 80.3728 315.683 78.7014C315.566 77.03 316.826 75.673 318.497 75.673C320.168 75.673 321.62 77.03 321.74 78.7014Z" fill="#D5033E"/>
<path d="M303.28 111.866C299.636 111.866 296.324 110.443 293.955 107.859C291.575 105.263 290.441 101.818 290.76 98.1552L292.401 79.3939C292.465 78.6655 293.109 78.1289 293.835 78.1902C294.184 78.2207 294.508 78.3889 294.733 78.6578C294.959 78.9267 295.069 79.2742 295.038 79.624L293.398 98.3852C293.142 101.299 294.034 104.026 295.905 106.07C297.765 108.099 300.382 109.219 303.278 109.219C309.376 109.219 314.771 104.256 315.302 98.1552L316.943 79.3939C317.007 78.6655 317.651 78.1314 318.377 78.1902C318.727 78.2207 319.05 78.3889 319.276 78.6578C319.501 78.9267 319.611 79.2742 319.581 79.624L317.94 98.3852C317.293 105.82 310.717 111.866 303.28 111.866Z" fill="#F7D5DE"/>
<path d="M107.503 66.7355H42.5628L33.6357 171.881L45.2973 171.598L55.2824 178.007H83.1419L107.503 66.7355Z" fill="#D5033E"/>
<path d="M46.6544 66.7354H111.592L120.22 178.007H55.2824L46.6544 66.7354Z" fill="#E5819D"/>
<path d="M58.2211 120.16L64.1707 166.696H111.39L107.027 120.16H58.2211ZM88.2938 78.9542C88.1865 80.4595 89.3212 81.6786 90.824 81.6786C92.3293 81.6786 93.6326 80.4595 93.74 78.9542C93.8473 77.4489 92.7126 76.2299 91.2099 76.2299C89.7046 76.2324 88.3986 77.4515 88.2938 78.9542ZM65.9214 78.9542C65.814 80.4595 66.9487 81.6786 68.4515 81.6786C69.9568 81.6786 71.2602 80.4595 71.3675 78.9542C71.4749 77.4489 70.3401 76.2299 68.8374 76.2299C67.3346 76.2299 66.0287 77.4515 65.9214 78.9542Z" fill="#D5033E"/>
<path d="M82.5204 108.776C75.8347 108.776 69.9183 103.338 69.3356 96.6547L67.8609 79.7847C67.8339 79.4699 67.9328 79.1573 68.136 78.9154C68.3391 78.6734 68.6299 78.5219 68.9445 78.494C69.2593 78.4671 69.5719 78.5661 69.8138 78.7692C70.0557 78.9723 70.2072 79.2631 70.2352 79.5777L71.7098 96.4477C72.1903 101.932 77.041 106.394 82.5229 106.394C85.1246 106.394 87.4784 105.39 89.1524 103.563C90.8366 101.725 91.6365 99.2718 91.409 96.6522L89.9344 79.7821C89.9074 79.4674 90.0063 79.1548 90.2094 78.9128C90.4126 78.6709 90.7033 78.5194 91.018 78.4915C91.3328 78.4646 91.6453 78.5635 91.8872 78.7666C92.1292 78.9698 92.2807 79.2605 92.3086 79.5751L93.7833 96.4452C94.0721 99.7369 93.0498 102.837 90.9107 105.17C88.7767 107.499 85.7993 108.776 82.5204 108.776Z" fill="#F7D5DE"/>
</svg>
