<svg width="160" height="145" viewBox="0 0 160 145" fill="none" xmlns="http://www.w3.org/2000/svg">
<path d="M134.882 11.9206C125.686 0.751394 109.63 -3.97476 97.1098 3.91592C85.3265 11.3419 80.0548 25.883 69.404 34.6715C58.2375 43.8861 45.9443 44.3693 32.4248 42.7247C20.7712 41.3074 7.50818 41.5302 2.90276 55.0945C-2.09079 69.8036 5.27748 87.1136 14.1957 98.453C22.9885 109.633 35.2512 117.121 48.7655 120.053C75.6997 125.898 107.438 116.124 126.628 95.3597C146.466 73.8939 154.93 36.2688 134.882 11.9206Z" fill="#F5F5F5"/>
<path d="M27.5154 65.9112C26.3639 65.9112 25.2031 65.8385 24.0656 65.6951C23.9118 65.6755 23.8029 65.5352 23.8219 65.3815C23.8416 65.2278 23.9814 65.12 24.1358 65.1381C25.2501 65.2789 26.3871 65.3501 27.5154 65.3501C28.1879 65.3501 28.8707 65.3248 29.5448 65.2748C29.6991 65.2644 29.8405 65.3784 29.8519 65.5331C29.8632 65.6873 29.7543 65.8214 29.5995 65.8333L29.5825 65.8343C28.8986 65.8854 28.2018 65.9112 27.5154 65.9112ZM38.0826 63.8003C37.9727 63.8003 37.8684 63.7358 37.8235 63.628C37.7636 63.4852 37.8312 63.3207 37.9742 63.2608C39.6403 62.5636 41.2434 61.693 42.7386 60.6724C42.8666 60.5852 43.041 60.6177 43.1288 60.7461C43.216 60.874 43.183 61.0489 43.055 61.136C41.5283 62.1778 39.8916 63.0664 38.191 63.7786C38.1554 63.7931 38.1187 63.8003 38.0826 63.8003ZM15.7146 63.217C15.6738 63.217 15.632 63.2082 15.5928 63.1891C13.9319 62.3882 12.3443 61.415 10.8733 60.2964C10.7499 60.2025 10.7262 60.0267 10.8201 59.9034C10.9141 59.7802 11.0901 59.7564 11.2134 59.8503C12.6545 60.9457 14.2101 61.8993 15.8369 62.6842C15.9763 62.7518 16.0351 62.9194 15.9675 63.0587C15.919 63.1582 15.8188 63.217 15.7146 63.217ZM49.2367 55.168C49.1773 55.168 49.1174 55.1494 49.0669 55.1107C48.9435 55.0169 48.9198 54.841 49.0137 54.7177C50.111 53.2783 51.0658 51.7244 51.8519 50.0989C51.9195 49.9596 52.0872 49.9008 52.2266 49.9684C52.3665 50.0359 52.4248 50.2036 52.3572 50.3428C51.5546 52.0019 50.5802 53.5883 49.4602 55.0571C49.4054 55.1298 49.3213 55.168 49.2367 55.168ZM5.01832 54.021C4.92852 54.021 4.84078 53.9782 4.78607 53.8988C3.74297 52.3738 2.85264 50.7389 2.13935 49.0396C2.07948 48.8967 2.14658 48.7322 2.28955 48.6723C2.43252 48.6125 2.59716 48.6796 2.65703 48.8224C3.35587 50.4867 4.22813 52.088 5.24955 53.5821C5.33729 53.71 5.30426 53.8848 5.17626 53.972C5.12826 54.005 5.07303 54.021 5.01832 54.021ZM54.5915 42.1231C54.5796 42.1231 54.5678 42.1226 54.5559 42.121C54.4021 42.1014 54.2932 41.9611 54.3128 41.8075C54.4547 40.6899 54.5265 39.5496 54.5265 38.4176C54.5265 37.7456 54.5012 37.0633 54.4511 36.3897L54.447 36.3376C54.4351 36.1834 54.5513 36.0483 54.7061 36.0369C54.8609 36.0251 54.9956 36.1411 55.007 36.2958L55.0111 36.349C55.0622 37.0359 55.088 37.7322 55.088 38.4181C55.088 39.5733 55.0147 40.7373 54.8697 41.8786C54.8516 42.0194 54.7309 42.1231 54.5915 42.1231ZM0.35871 40.7151C0.213162 40.7151 0.0903241 40.6032 0.0789693 40.4557L0.0769028 40.4294C0.025806 39.7425 0 39.0457 0 38.3593C0 37.2128 0.0722567 36.0576 0.214708 34.925C0.234321 34.7713 0.374709 34.663 0.528516 34.6816C0.682322 34.7012 0.791227 34.841 0.77213 34.9952C0.632259 36.1045 0.561549 37.2365 0.561549 38.3593C0.561549 39.0318 0.58684 39.7141 0.636905 40.3871L0.638968 40.4129C0.650839 40.5671 0.534709 40.7022 0.37987 40.7136C0.373161 40.7151 0.365936 40.7151 0.35871 40.7151ZM52.6792 28.1029C52.5698 28.1029 52.4656 28.0385 52.4202 27.9312C51.7198 26.2675 50.846 24.6671 49.823 23.1741C49.7352 23.0462 49.7683 22.8719 49.8958 22.7842C50.0238 22.6965 50.1987 22.7295 50.286 22.8569C51.3306 24.3809 52.2225 26.0147 52.9373 27.7136C52.9972 27.8564 52.9301 28.0209 52.7871 28.0808C52.7525 28.0957 52.7159 28.1029 52.6792 28.1029ZM2.97135 26.8605C2.93058 26.8605 2.88877 26.8518 2.84955 26.8327C2.70968 26.7657 2.65136 26.5975 2.71846 26.4583C3.51949 24.7981 4.49239 23.2112 5.61136 21.7409C5.70529 21.6176 5.88129 21.5934 6.00465 21.6872C6.128 21.7811 6.15226 21.957 6.05833 22.0802C4.96258 23.5207 4.00877 25.0756 3.22426 26.7017C3.17626 26.8023 3.07613 26.8605 2.97135 26.8605ZM44.0238 16.9693C43.9644 16.9693 43.9051 16.9508 43.854 16.9121C42.4119 15.8177 40.8552 14.8657 39.2279 14.0828C39.088 14.0158 39.0297 13.8481 39.0968 13.7084C39.1639 13.5686 39.3316 13.5103 39.4715 13.5774C41.1329 14.3768 42.7221 15.3484 44.1941 16.4655C44.3174 16.5593 44.3417 16.7352 44.2478 16.8585C44.1925 16.9312 44.1084 16.9693 44.0238 16.9693ZM12.1698 16.1684C12.08 16.1684 11.9923 16.1256 11.9376 16.0462C11.8498 15.9183 11.8828 15.744 12.0108 15.6563C13.5365 14.6135 15.1721 13.7228 16.8723 13.009C17.0152 12.9492 17.1799 13.0163 17.2397 13.1591C17.2996 13.302 17.2325 13.4665 17.0896 13.5263C15.424 14.2251 13.8219 15.0978 12.3277 16.1194C12.2797 16.1524 12.2245 16.1684 12.1698 16.1684ZM30.9621 11.6382C30.9502 11.6382 30.9389 11.6377 30.927 11.6362C29.8209 11.498 28.6921 11.4278 27.5732 11.4278C26.9001 11.4278 26.2173 11.4531 25.5438 11.5031L25.5045 11.5062C25.3487 11.5165 25.215 11.402 25.2036 11.2473C25.1917 11.0926 25.3079 10.958 25.4627 10.9466L25.5019 10.9435C26.1894 10.8925 26.8867 10.8667 27.5737 10.8667C28.7164 10.8667 29.8679 10.9384 30.9972 11.0797C31.151 11.0988 31.2604 11.2391 31.2408 11.3927C31.2222 11.5341 31.1014 11.6382 30.9621 11.6382ZM131.48 106.851C130.339 106.851 129.41 105.923 129.41 104.782C129.41 103.642 130.339 102.714 131.48 102.714C132.622 102.714 133.551 103.642 133.551 104.782C133.551 105.923 132.621 106.851 131.48 106.851ZM131.48 103.562C130.807 103.562 130.259 104.109 130.259 104.782C130.259 105.455 130.807 106.003 131.48 106.003C132.154 106.003 132.701 105.455 132.701 104.782C132.701 104.109 132.153 103.562 131.48 103.562ZM15.1169 134.033H13.8457V132.241C13.8457 132.042 13.6841 131.88 13.4849 131.88C13.2857 131.88 13.1241 132.042 13.1241 132.241V134.033H11.8529C11.6537 134.033 11.4921 134.194 11.4921 134.393C11.4921 134.592 11.6537 134.754 11.8529 134.754H13.1241V136.545C13.1241 136.744 13.2857 136.906 13.4849 136.906C13.6841 136.906 13.8457 136.744 13.8457 136.545V134.754H15.1169C15.3161 134.754 15.4777 134.592 15.4777 134.393C15.4777 134.194 15.3161 134.033 15.1169 134.033ZM152.156 32.2804H150.248V29.5913C150.248 29.2927 150.006 29.0503 149.707 29.0503C149.408 29.0503 149.165 29.2927 149.165 29.5913V32.2804H147.257C146.959 32.2804 146.716 32.5228 146.716 32.8214C146.716 33.12 146.959 33.3624 147.257 33.3624H149.165V36.0514C149.165 36.35 149.408 36.5924 149.707 36.5924C150.006 36.5924 150.248 36.35 150.248 36.0514V33.3624H152.156C152.455 33.3624 152.698 33.12 152.698 32.8214C152.698 32.5228 152.455 32.2804 152.156 32.2804ZM111.515 145.001C111.368 145.001 111.221 145 111.074 144.999C110.936 144.997 110.826 144.885 110.827 144.748C110.828 144.612 110.94 144.502 111.076 144.502C111.077 144.502 111.077 144.502 111.078 144.502C112.747 144.517 114.444 144.444 116.116 144.283C116.252 144.271 116.374 144.37 116.387 144.506C116.4 144.643 116.3 144.764 116.163 144.777C114.621 144.926 113.058 145.001 111.515 145.001ZM103.009 144.241C102.995 144.241 102.98 144.24 102.965 144.237C101.3 143.937 99.631 143.544 98.0052 143.07C97.8736 143.032 97.7977 142.893 97.8364 142.762C97.8751 142.63 98.0129 142.555 98.1446 142.593C99.7539 143.062 101.405 143.451 103.053 143.748C103.188 143.773 103.277 143.902 103.253 144.037C103.232 144.157 103.127 144.241 103.009 144.241ZM124.113 143.341C124.003 143.341 123.903 143.268 123.873 143.157C123.837 143.024 123.916 142.888 124.048 142.853C125.669 142.419 127.281 141.896 128.842 141.297C128.97 141.248 129.113 141.312 129.163 141.439C129.212 141.567 129.148 141.711 129.02 141.76C127.443 142.366 125.814 142.895 124.177 143.333C124.155 143.338 124.134 143.341 124.113 143.341ZM90.5156 140.165C90.479 140.165 90.4424 140.156 90.4073 140.139C88.8862 139.401 87.3858 138.572 85.9484 137.678C85.8318 137.606 85.7962 137.453 85.8689 137.336C85.9412 137.22 86.0945 137.185 86.2111 137.257C87.6336 138.142 89.1185 138.962 90.624 139.693C90.7474 139.753 90.799 139.902 90.7386 140.025C90.6963 140.113 90.6075 140.165 90.5156 140.165ZM136.221 138.244C136.136 138.244 136.054 138.201 136.007 138.123C135.937 138.005 135.976 137.853 136.094 137.782C137.532 136.928 138.941 135.988 140.283 134.986C140.393 134.904 140.549 134.926 140.631 135.036C140.713 135.146 140.691 135.301 140.581 135.384C139.225 136.396 137.801 137.347 136.348 138.209C136.308 138.233 136.264 138.244 136.221 138.244ZM79.5835 132.877C79.5252 132.877 79.4664 132.857 79.4189 132.815C78.1507 131.694 76.9286 130.495 75.7858 129.249C75.6929 129.148 75.7002 128.991 75.8013 128.898C75.9025 128.806 76.0594 128.812 76.1523 128.914C77.2831 130.146 78.4929 131.334 79.7482 132.443C79.8509 132.534 79.8607 132.691 79.7698 132.793C79.7208 132.849 79.6522 132.877 79.5835 132.877ZM146.491 130.06C146.429 130.06 146.368 130.037 146.32 129.991C146.22 129.897 146.216 129.74 146.311 129.64C147.465 128.429 148.569 127.142 149.592 125.816C149.675 125.708 149.832 125.688 149.94 125.772C150.049 125.855 150.069 126.011 149.985 126.12C148.952 127.46 147.836 128.759 146.67 129.982C146.622 130.034 146.556 130.06 146.491 130.06ZM71.0168 122.925C70.9352 122.925 70.8552 122.884 70.8078 122.811C69.8896 121.39 69.0369 119.905 68.2741 118.396C68.2122 118.274 68.2612 118.124 68.384 118.062C68.5063 118.001 68.656 118.05 68.7174 118.172C69.4725 119.666 70.3159 121.136 71.2248 122.542C71.2991 122.657 71.2661 122.81 71.151 122.884C71.1097 122.912 71.0627 122.925 71.0168 122.925ZM154.182 119.414C154.143 119.414 154.102 119.405 154.065 119.385C153.944 119.321 153.898 119.17 153.962 119.05C154.751 117.571 155.468 116.036 156.097 114.485C156.148 114.358 156.293 114.297 156.42 114.348C156.547 114.399 156.609 114.544 156.557 114.671C155.923 116.238 155.197 117.789 154.402 119.283C154.357 119.366 154.271 119.414 154.182 119.414ZM65.4679 111.025C65.3616 111.025 65.2635 110.956 65.2305 110.849C64.734 109.238 64.3159 107.577 63.9882 105.914C63.9618 105.78 64.0496 105.649 64.1838 105.623C64.318 105.597 64.4491 105.684 64.4754 105.818C64.7995 107.464 65.2129 109.108 65.7048 110.703C65.7451 110.834 65.6718 110.973 65.5407 111.013C65.5164 111.021 65.4922 111.025 65.4679 111.025ZM158.724 107.092C158.707 107.092 158.689 107.09 158.671 107.086C158.536 107.057 158.452 106.924 158.481 106.791C158.84 105.155 159.115 103.482 159.299 101.818C159.314 101.682 159.436 101.584 159.573 101.598C159.709 101.613 159.808 101.736 159.793 101.872C159.607 103.553 159.329 105.244 158.967 106.896C158.941 107.013 158.838 107.092 158.724 107.092ZM63.3301 98.068C63.1959 98.068 63.0854 97.9613 63.0818 97.8267C63.0689 97.3759 63.0627 96.919 63.0627 96.4693C63.0627 95.2294 63.1112 93.9742 63.2072 92.739C63.2181 92.6023 63.3368 92.4976 63.4741 92.5105C63.6109 92.5208 63.7131 92.6405 63.7027 92.7771C63.6078 93.9994 63.5598 95.2418 63.5598 96.4687C63.5598 96.9143 63.566 97.3661 63.5789 97.8122C63.5825 97.9494 63.4746 98.0634 63.3373 98.0675C63.3352 98.068 63.3327 98.068 63.3301 98.068ZM159.752 94.0005C159.621 94.0005 159.512 93.8989 159.504 93.7668C159.406 92.101 159.218 90.4161 158.946 88.7596L158.934 88.6884C158.912 88.5533 159.003 88.4254 159.139 88.4032C159.274 88.3816 159.402 88.4723 159.424 88.6075L159.436 88.6786C159.711 90.3527 159.9 92.0546 160 93.7374C160.008 93.8741 159.903 93.9917 159.766 93.9999C159.762 94.0005 159.756 94.0005 159.752 94.0005ZM64.7634 85.0164C64.7433 85.0164 64.7231 85.0138 64.7025 85.0087C64.5693 84.9752 64.4888 84.8406 64.5224 84.7075C64.9358 83.0685 65.4416 81.4321 66.0258 79.8431C66.0733 79.7147 66.2158 79.6482 66.3448 79.6956C66.4733 79.7431 66.5394 79.8854 66.4924 80.0144C65.9138 81.5868 65.4132 83.2067 65.0044 84.8287C64.976 84.9411 64.8744 85.0164 64.7634 85.0164ZM157.197 81.0474C157.094 81.0474 156.998 80.9829 156.962 80.8797C156.418 79.2959 155.782 77.7245 155.075 76.2098C155.016 76.0855 155.071 75.938 155.194 75.8797C155.319 75.822 155.466 75.8756 155.525 75.9999C156.24 77.5306 156.882 79.1185 157.432 80.7188C157.476 80.8483 157.408 80.9896 157.277 81.0345C157.251 81.0432 157.224 81.0474 157.197 81.0474ZM69.6826 72.839C69.6408 72.839 69.5985 72.8287 69.5592 72.806C69.44 72.7379 69.3987 72.5863 69.4669 72.4672C70.3076 70.9999 71.2356 69.5605 72.2251 68.1886C72.3051 68.0772 72.4604 68.0525 72.5719 68.1324C72.6834 68.2124 72.7082 68.3676 72.6282 68.479C71.6485 69.8369 70.7298 71.2619 69.8978 72.7137C69.8529 72.7946 69.7688 72.839 69.6826 72.839ZM151.266 69.3351C151.187 69.3351 151.109 69.298 151.061 69.2284C150.108 67.8545 149.071 66.5151 147.977 65.2464C147.888 65.1427 147.899 64.986 148.003 64.8962C148.107 64.807 148.264 64.8183 148.354 64.922C149.459 66.2036 150.507 67.5569 151.469 68.9452C151.547 69.0577 151.52 69.2124 151.407 69.2908C151.364 69.3207 151.314 69.3351 151.266 69.3351ZM77.6971 62.4331C77.6331 62.4331 77.5691 62.4083 77.5205 62.3593C77.424 62.2619 77.4251 62.1046 77.5226 62.0081C78.7273 60.8199 80.0078 59.6827 81.328 58.628C81.4354 58.5424 81.5913 58.5599 81.6769 58.6672C81.7626 58.7745 81.7451 58.9302 81.6377 59.0159C80.3309 60.0592 79.0633 61.185 77.871 62.3609C77.823 62.4088 77.76 62.4331 77.6971 62.4331ZM142.381 59.6636C142.326 59.6636 142.269 59.645 142.223 59.6064C140.934 58.5388 139.573 57.5269 138.179 56.5986C138.065 56.5228 138.034 56.3686 138.11 56.2546C138.186 56.1406 138.34 56.1097 138.454 56.1855C139.863 57.1231 141.237 58.1453 142.54 59.2242C142.646 59.3119 142.66 59.4681 142.572 59.5739C142.523 59.6332 142.453 59.6636 142.381 59.6636ZM88.2153 54.5692C88.128 54.5692 88.0429 54.5228 87.9975 54.4413C87.9309 54.3211 87.9747 54.1706 88.0945 54.104C89.5753 53.2856 91.1164 52.5378 92.6757 51.8802C92.8021 51.8271 92.9476 51.8859 93.0013 52.0122C93.0545 52.1386 92.9957 52.284 92.8692 52.3371C91.326 52.988 89.8008 53.7286 88.335 54.5383C88.2973 54.5589 88.256 54.5692 88.2153 54.5692ZM131.222 52.7306C131.188 52.7306 131.154 52.7239 131.121 52.709C129.59 52.0256 128.007 51.416 126.415 50.8977C126.284 50.8554 126.213 50.7152 126.256 50.5847C126.298 50.4542 126.439 50.383 126.569 50.4258C128.177 50.9493 129.777 51.5651 131.323 52.2556C131.449 52.3113 131.505 52.4583 131.449 52.5837C131.408 52.676 131.317 52.7306 131.222 52.7306ZM100.475 49.8493C100.362 49.8493 100.26 49.7724 100.233 49.6579C100.202 49.5243 100.285 49.3908 100.418 49.3593C101.504 49.104 102.614 48.8828 103.719 48.7018C104.285 48.6089 104.861 48.5248 105.43 48.4516C105.565 48.4336 105.69 48.53 105.708 48.6662C105.725 48.8023 105.629 48.9266 105.493 48.9441C104.93 49.0163 104.36 49.0994 103.799 49.1917C102.706 49.3712 101.606 49.5898 100.532 49.8425C100.513 49.8472 100.493 49.8493 100.475 49.8493ZM118.604 49.0602C118.593 49.0602 118.58 49.0591 118.568 49.0576C116.912 48.8142 115.222 48.6569 113.546 48.5898C113.409 48.5842 113.303 48.4686 113.308 48.332C113.314 48.1948 113.428 48.087 113.566 48.0937C115.259 48.1613 116.966 48.3206 118.64 48.5666C118.776 48.5867 118.87 48.7126 118.85 48.8482C118.832 48.971 118.726 49.0602 118.604 49.0602Z" fill="#346BA2"/>
<path d="M75.64 28.5408L34.345 63.9917L35.1135 80.0319C35.1135 81.9453 37.4232 109.072 39.6203 109.072L78.1793 83.2872L112.923 106.424C115.12 106.424 119.361 81.2155 119.361 79.3022L121.929 63.9535L80.5969 28.5403C79.1465 27.5346 77.0903 27.5346 75.64 28.5408Z" fill="#F43F62"/>
<path d="M111.354 111.456H44.7269C42.9514 111.456 41.5125 110.018 41.5125 108.244V40.4297C41.5125 38.6556 42.9514 37.2178 44.7269 37.2178H111.354C113.129 37.2178 114.568 38.6556 114.568 40.4297V108.244C114.568 110.018 113.129 111.456 111.354 111.456Z" fill="white"/>
<path d="M78.1799 77.7786C85.4895 77.7786 91.415 71.8576 91.415 64.5537C91.415 57.2498 85.4895 51.3289 78.1799 51.3289C70.8704 51.3289 64.9448 57.2498 64.9448 64.5537C64.9448 71.8576 70.8704 77.7786 78.1799 77.7786Z" fill="#70BC2D"/>
<path d="M78.1796 47.6011C78.1223 47.6011 78.0759 47.5547 78.0759 47.4974V42.8007C78.0759 42.7434 78.1223 42.697 78.1796 42.697C78.2368 42.697 78.2833 42.7434 78.2833 42.8007V47.4974C78.2833 47.5547 78.2368 47.6011 78.1796 47.6011Z" fill="#D5033E"/>
<path d="M78.2576 47.79C78.2328 47.7967 78.2065 47.8003 78.1792 47.8003C78.0121 47.8003 77.8765 47.6646 77.8765 47.4975V42.8008C77.8765 42.6337 78.0126 42.498 78.1792 42.498C78.2602 42.498 78.336 42.5295 78.3932 42.5868C78.4505 42.644 78.4819 42.7198 78.4819 42.8008V47.4975C78.4819 47.6373 78.3865 47.7554 78.2576 47.79ZM78.1792 86.41C78.122 86.41 78.0755 86.3635 78.0755 86.3063V81.6095C78.0755 81.5523 78.122 81.5059 78.1792 81.5059C78.2365 81.5059 78.2829 81.5523 78.2829 81.6095V86.3063C78.2829 86.3635 78.2365 86.41 78.1792 86.41Z" fill="#D5033E"/>
<path d="M78.2597 86.5985C78.2344 86.6052 78.2075 86.6088 78.1807 86.6088C78.0135 86.6088 77.8777 86.4732 77.8777 86.3061V81.6093C77.8777 81.4422 78.0135 81.3061 78.1807 81.3066C78.3479 81.3066 78.4837 81.4422 78.4837 81.6093V86.3061C78.4837 86.3871 78.4522 86.4629 78.3949 86.5201C78.3567 86.5583 78.3102 86.5851 78.2597 86.5985ZM61.1113 64.6573H56.4109C56.3536 64.6573 56.3071 64.6109 56.3071 64.5536C56.3071 64.4964 56.3536 64.45 56.4109 64.45H61.1113C61.1686 64.45 61.215 64.4964 61.215 64.5536C61.215 64.6109 61.1686 64.6573 61.1113 64.6573Z" fill="#D5033E"/>
<path d="M61.19 64.8456C61.1647 64.8523 61.1379 64.856 61.111 64.856H56.4106C56.3296 64.856 56.2537 64.8245 56.1964 64.7672C56.1391 64.71 56.1077 64.6342 56.1077 64.5532C56.1077 64.3861 56.2434 64.2505 56.4106 64.2505H61.111C61.1921 64.2505 61.2679 64.2819 61.3252 64.3392C61.3825 64.3964 61.414 64.4723 61.414 64.5532C61.414 64.6342 61.3825 64.71 61.3252 64.7672C61.287 64.8054 61.2406 64.8322 61.19 64.8456ZM99.9503 64.6564H95.2499C95.1926 64.6564 95.1461 64.61 95.1461 64.5527C95.1461 64.4955 95.1926 64.449 95.2499 64.449H99.9503C100.008 64.449 100.054 64.4955 100.054 64.5527C100.053 64.61 100.008 64.6564 99.9503 64.6564Z" fill="#D5033E"/>
<path d="M100.029 64.8451C100.003 64.8519 99.9766 64.8555 99.9497 64.8555H95.2493C95.0821 64.8555 94.9464 64.7198 94.9464 64.5527C94.9464 64.3856 95.0821 64.25 95.2493 64.25H99.9497C100.031 64.25 100.107 64.2815 100.164 64.3387C100.221 64.396 100.253 64.4718 100.253 64.5527C100.253 64.6337 100.221 64.7095 100.164 64.7668C100.126 64.8049 100.079 64.8317 100.029 64.8451ZM62.7863 80.0381C62.76 80.0381 62.7332 80.0278 62.7131 80.0076C62.6728 79.9674 62.6728 79.9014 62.7131 79.8612L66.0364 76.5404C66.0767 76.5002 66.1427 76.5002 66.183 76.5404C66.2232 76.5806 66.2232 76.6466 66.183 76.6868L62.8596 80.0076C62.8395 80.0283 62.8132 80.0381 62.7863 80.0381Z" fill="#D5033E"/>
<path d="M62.8658 80.2273C62.8405 80.234 62.8142 80.2376 62.7869 80.2376C62.7058 80.2376 62.63 80.2061 62.5727 80.1489C62.5154 80.0916 62.4839 80.0158 62.4839 79.9348C62.4839 79.8539 62.5154 79.7781 62.5727 79.7208L65.896 76.4C66.0142 76.2819 66.2062 76.2819 66.3244 76.4C66.3817 76.4573 66.4132 76.5331 66.4132 76.614C66.4132 76.695 66.3817 76.7708 66.3244 76.8281L63.001 80.1489C62.9634 80.187 62.9169 80.2139 62.8658 80.2273ZM90.2501 52.5965C90.2238 52.5965 90.1969 52.5861 90.1768 52.566C90.1365 52.5258 90.1365 52.4598 90.1768 52.4196L93.5002 49.0988C93.5404 49.0585 93.6065 49.0585 93.6467 49.0988C93.687 49.139 93.687 49.205 93.6467 49.2452L90.3234 52.566C90.3033 52.5867 90.2769 52.5965 90.2501 52.5965Z" fill="#D5033E"/>
<path d="M90.3283 52.7854C90.303 52.7921 90.2767 52.7958 90.2493 52.7958C90.1683 52.7958 90.0924 52.7643 90.0351 52.7071C89.9169 52.5889 89.9169 52.3971 90.0351 52.279L93.3585 48.9582C93.4767 48.8401 93.6687 48.8401 93.7868 48.9582C93.8441 49.0155 93.8756 49.0913 93.8756 49.1722C93.8756 49.2532 93.8441 49.329 93.7868 49.3863L90.4635 52.7071C90.4258 52.7452 90.3794 52.772 90.3283 52.7854ZM66.1099 52.5967C66.0836 52.5967 66.0568 52.5864 66.0366 52.5663L62.7133 49.2449C62.673 49.2047 62.673 49.1387 62.7133 49.0985C62.7536 49.0583 62.8196 49.0583 62.8599 49.0985L66.1832 52.4198C66.2235 52.46 66.2235 52.526 66.1832 52.5663C66.1626 52.5869 66.1363 52.5967 66.1099 52.5967Z" fill="#D5033E"/>
<path d="M66.1892 52.7852C66.1639 52.7919 66.1376 52.7955 66.1102 52.7955C66.0292 52.7955 65.9533 52.7641 65.896 52.7068L62.5727 49.3855C62.5154 49.3283 62.4839 49.2525 62.4839 49.1715C62.4839 49.0905 62.5154 49.0147 62.5727 48.9575C62.6909 48.8394 62.8829 48.8394 63.001 48.9575L66.3244 52.2788C66.4426 52.3969 66.4426 52.5887 66.3244 52.7068C66.2862 52.745 66.2398 52.7718 66.1892 52.7852ZM93.5735 80.0385C93.5471 80.0385 93.5203 80.0282 93.5002 80.0081L90.1768 76.6868C90.1365 76.6465 90.1365 76.5805 90.1768 76.5403C90.2171 76.5001 90.2831 76.5001 90.3234 76.5403L93.6467 79.8616C93.687 79.9018 93.687 79.9679 93.6467 80.0081C93.6261 80.0287 93.5998 80.0385 93.5735 80.0385Z" fill="#D5033E"/>
<path d="M93.6517 80.2278C93.6264 80.2345 93.6001 80.2381 93.5727 80.2381H93.5722C93.4912 80.2381 93.4153 80.2066 93.358 80.1494L90.0346 76.8281C89.9773 76.7708 89.9459 76.695 89.9459 76.6141C89.9459 76.5331 89.9773 76.4573 90.0346 76.4C90.1528 76.2819 90.3448 76.2819 90.463 76.4L93.7864 79.7208C93.8437 79.7781 93.8752 79.8539 93.8752 79.9348C93.8752 80.0158 93.8437 80.0916 93.7864 80.1489C93.7492 80.1876 93.7028 80.2139 93.6517 80.2278ZM78.1797 47.6011C78.1224 47.6011 78.0759 47.5547 78.0759 47.4974V42.8007C78.0759 42.7434 78.1224 42.697 78.1797 42.697C78.237 42.697 78.2834 42.7434 78.2834 42.8007V47.4974C78.2834 47.5547 78.237 47.6011 78.1797 47.6011Z" fill="#D5033E"/>
<path d="M78.2576 47.79C78.2328 47.7967 78.2065 47.8003 78.1792 47.8003C78.0121 47.8003 77.8765 47.6646 77.8765 47.4975V42.8008C77.8765 42.6337 78.0126 42.498 78.1792 42.498C78.2602 42.498 78.336 42.5295 78.3932 42.5868C78.4505 42.644 78.4819 42.7198 78.4819 42.8008V47.4975C78.4819 47.6373 78.3865 47.7554 78.2576 47.79ZM78.1792 86.41C78.122 86.41 78.0755 86.3635 78.0755 86.3063V81.6095C78.0755 81.5523 78.122 81.5059 78.1792 81.5059C78.2365 81.5059 78.2829 81.5523 78.2829 81.6095V86.3063C78.2829 86.3635 78.2365 86.41 78.1792 86.41Z" fill="#D5033E"/>
<path d="M78.2597 86.5985C78.2344 86.6052 78.2075 86.6088 78.1807 86.6088C78.0135 86.6088 77.8777 86.4732 77.8777 86.3061V81.6093C77.8777 81.4422 78.0135 81.3061 78.1807 81.3066C78.3479 81.3066 78.4837 81.4422 78.4837 81.6093V86.3061C78.4837 86.3871 78.4522 86.4629 78.3949 86.5201C78.3567 86.5583 78.3102 86.5851 78.2597 86.5985ZM61.1113 64.6573H56.4109C56.3536 64.6573 56.3071 64.6109 56.3071 64.5536C56.3071 64.4964 56.3536 64.45 56.4109 64.45H61.1113C61.1686 64.45 61.215 64.4964 61.215 64.5536C61.215 64.6109 61.1686 64.6573 61.1113 64.6573Z" fill="#D5033E"/>
<path d="M61.19 64.8456C61.1647 64.8523 61.1379 64.856 61.111 64.856H56.4106C56.3296 64.856 56.2537 64.8245 56.1964 64.7672C56.1391 64.71 56.1077 64.6342 56.1077 64.5532C56.1077 64.3861 56.2434 64.2505 56.4106 64.2505H61.111C61.1921 64.2505 61.2679 64.2819 61.3252 64.3392C61.3825 64.3964 61.414 64.4723 61.414 64.5532C61.414 64.6342 61.3825 64.71 61.3252 64.7672C61.287 64.8054 61.2406 64.8322 61.19 64.8456ZM99.9503 64.6564H95.2499C95.1926 64.6564 95.1461 64.61 95.1461 64.5527C95.1461 64.4955 95.1926 64.449 95.2499 64.449H99.9503C100.008 64.449 100.054 64.4955 100.054 64.5527C100.053 64.61 100.008 64.6564 99.9503 64.6564Z" fill="#D5033E"/>
<path d="M100.029 64.8451C100.003 64.8519 99.9766 64.8555 99.9497 64.8555H95.2493C95.0821 64.8555 94.9464 64.7198 94.9464 64.5527C94.9464 64.3856 95.0821 64.25 95.2493 64.25H99.9497C100.031 64.25 100.107 64.2815 100.164 64.3387C100.221 64.396 100.253 64.4718 100.253 64.5527C100.253 64.6337 100.221 64.7095 100.164 64.7668C100.126 64.8049 100.079 64.8317 100.029 64.8451ZM62.7863 80.0381C62.76 80.0381 62.7332 80.0278 62.7131 80.0076C62.6728 79.9674 62.6728 79.9014 62.7131 79.8612L66.0364 76.5404C66.0767 76.5002 66.1427 76.5002 66.183 76.5404C66.2232 76.5806 66.2232 76.6466 66.183 76.6868L62.8596 80.0076C62.8395 80.0283 62.8132 80.0381 62.7863 80.0381Z" fill="#D5033E"/>
<path d="M62.8658 80.2273C62.8405 80.234 62.8142 80.2376 62.7869 80.2376C62.7058 80.2376 62.63 80.2061 62.5727 80.1489C62.5154 80.0916 62.4839 80.0158 62.4839 79.9348C62.4839 79.8539 62.5154 79.7781 62.5727 79.7208L65.896 76.4C66.0142 76.2819 66.2062 76.2819 66.3244 76.4C66.3817 76.4573 66.4132 76.5331 66.4132 76.614C66.4132 76.695 66.3817 76.7708 66.3244 76.8281L63.001 80.1489C62.9634 80.187 62.9169 80.2139 62.8658 80.2273ZM90.2501 52.5965C90.2238 52.5965 90.1969 52.5861 90.1768 52.566C90.1365 52.5258 90.1365 52.4598 90.1768 52.4196L93.5002 49.0988C93.5404 49.0585 93.6065 49.0585 93.6467 49.0988C93.687 49.139 93.687 49.205 93.6467 49.2452L90.3234 52.566C90.3033 52.5867 90.2769 52.5965 90.2501 52.5965Z" fill="#D5033E"/>
<path d="M90.3283 52.7854C90.303 52.7921 90.2767 52.7958 90.2493 52.7958C90.1683 52.7958 90.0924 52.7643 90.0351 52.7071C89.9169 52.5889 89.9169 52.3971 90.0351 52.279L93.3585 48.9582C93.4767 48.8401 93.6687 48.8401 93.7868 48.9582C93.8441 49.0155 93.8756 49.0913 93.8756 49.1722C93.8756 49.2532 93.8441 49.329 93.7868 49.3863L90.4635 52.7071C90.4258 52.7452 90.3794 52.772 90.3283 52.7854ZM66.1099 52.5967C66.0836 52.5967 66.0568 52.5864 66.0366 52.5663L62.7133 49.2449C62.673 49.2047 62.673 49.1387 62.7133 49.0985C62.7536 49.0583 62.8196 49.0583 62.8599 49.0985L66.1832 52.4198C66.2235 52.46 66.2235 52.526 66.1832 52.5663C66.1626 52.5869 66.1363 52.5967 66.1099 52.5967Z" fill="#D5033E"/>
<path d="M66.1892 52.7852C66.1639 52.7919 66.1376 52.7955 66.1102 52.7955C66.0292 52.7955 65.9533 52.7641 65.896 52.7068L62.5727 49.3855C62.5154 49.3283 62.4839 49.2525 62.4839 49.1715C62.4839 49.0905 62.5154 49.0147 62.5727 48.9575C62.6909 48.8394 62.8829 48.8394 63.001 48.9575L66.3244 52.2788C66.4426 52.3969 66.4426 52.5887 66.3244 52.7068C66.2862 52.745 66.2398 52.7718 66.1892 52.7852ZM93.5735 80.0385C93.5471 80.0385 93.5203 80.0282 93.5002 80.0081L90.1768 76.6868C90.1365 76.6465 90.1365 76.5805 90.1768 76.5403C90.2171 76.5001 90.2831 76.5001 90.3234 76.5403L93.6467 79.8616C93.687 79.9018 93.687 79.9679 93.6467 80.0081C93.6261 80.0287 93.5998 80.0385 93.5735 80.0385Z" fill="#D5033E"/>
<path d="M93.6528 80.2276C93.6275 80.2343 93.6012 80.238 93.5739 80.238H93.5733C93.4923 80.238 93.4164 80.2065 93.3592 80.1493L90.0358 76.8279C89.9785 76.7707 89.947 76.6949 89.947 76.6139C89.947 76.5329 89.9785 76.4571 90.0358 76.3999C90.154 76.2818 90.346 76.2818 90.4642 76.3999L93.7875 79.7207C93.8448 79.7779 93.8763 79.8537 93.8763 79.9347C93.8763 80.0157 93.8448 80.0915 93.7875 80.1487C93.7504 80.1874 93.7039 80.2137 93.6528 80.2276ZM62.394 58.1585C62.3811 58.1585 62.3677 58.1559 62.3548 58.1507L58.0131 56.3632C57.9599 56.3416 57.9351 56.2807 57.9568 56.2281C57.9785 56.175 58.0394 56.1502 58.092 56.1719L62.4337 57.9594C62.4869 57.9811 62.5117 58.0419 62.49 58.0945C62.4735 58.1342 62.4347 58.1585 62.394 58.1585Z" fill="#D5033E"/>
<path d="M62.4717 58.3472C62.4464 58.3539 62.4201 58.3576 62.3927 58.3576C62.353 58.3576 62.3143 58.3498 62.2771 58.3349L57.9354 56.5479C57.7811 56.4844 57.7068 56.307 57.7708 56.1528C57.8018 56.078 57.8596 56.0197 57.9344 55.9888C58.0092 55.9579 58.0913 55.9573 58.1661 55.9883L62.5078 57.7753C62.6622 57.8387 62.736 58.0161 62.6725 58.1703C62.6363 58.259 62.5615 58.3235 62.4717 58.3472ZM98.3081 72.9424C98.2947 72.9424 98.2818 72.9398 98.2689 72.9347L93.9272 71.1472C93.874 71.1255 93.8493 71.0646 93.8709 71.012C93.8926 70.9589 93.9535 70.9342 94.0061 70.9558L98.3478 72.7434C98.401 72.765 98.4258 72.8259 98.4041 72.8785C98.3876 72.9187 98.3489 72.9424 98.3081 72.9424Z" fill="#D5033E"/>
<path d="M98.3874 73.1319C98.3621 73.1386 98.3358 73.1422 98.3084 73.1422C98.2687 73.1422 98.2299 73.1345 98.1928 73.1196L93.8511 71.3325C93.6968 71.2686 93.623 71.0917 93.6865 70.937C93.7174 70.8622 93.7752 70.8039 93.8501 70.773C93.9249 70.742 94.007 70.7415 94.0818 70.7725L98.4235 72.56C98.4983 72.5909 98.5567 72.6487 98.5876 72.7235C98.6186 72.7983 98.6191 72.8803 98.5881 72.955C98.552 73.0432 98.4772 73.1077 98.3874 73.1319ZM69.8877 84.7704C69.8748 84.7704 69.8614 84.7679 69.8485 84.7627C69.7954 84.741 69.7706 84.6802 69.7923 84.6276L71.5806 80.2892C71.6023 80.2361 71.6632 80.2114 71.7159 80.233C71.769 80.2547 71.7938 80.3156 71.7721 80.3682L69.9837 84.7065C69.9672 84.7462 69.9285 84.7704 69.8877 84.7704Z" fill="#D5033E"/>
<path d="M69.967 84.959C69.9417 84.9658 69.9154 84.9694 69.888 84.9694H69.8875C69.8477 84.9694 69.809 84.9616 69.7724 84.9467C69.6181 84.8832 69.5442 84.7058 69.6077 84.5516L71.3961 80.2133C71.4271 80.1385 71.4849 80.0802 71.5597 80.0493C71.6346 80.0183 71.7166 80.0178 71.7915 80.0488C71.8663 80.0797 71.9246 80.1375 71.9556 80.2123C71.9866 80.287 71.9871 80.369 71.9561 80.4438L70.1677 84.7821C70.1316 84.8708 70.0562 84.9348 69.967 84.959ZM84.6828 48.8826C84.6694 48.8826 84.6565 48.8801 84.6436 48.8749C84.5905 48.8532 84.5657 48.7924 84.5873 48.7398L86.3757 44.4014C86.3974 44.3483 86.4583 44.3236 86.511 44.3452C86.5641 44.3669 86.5889 44.4277 86.5672 44.4804L84.7788 48.8187C84.7623 48.8584 84.7236 48.8826 84.6828 48.8826Z" fill="#D5033E"/>
<path d="M84.7616 49.0714C84.7363 49.0781 84.71 49.0817 84.6827 49.0817C84.6429 49.0817 84.6042 49.074 84.5671 49.059C84.4127 48.9956 84.3389 48.8182 84.4024 48.664L86.1908 44.3257C86.2218 44.2509 86.2796 44.1926 86.3544 44.1617C86.4292 44.1307 86.5113 44.1302 86.5861 44.1611C86.661 44.1921 86.7193 44.2498 86.7503 44.3246C86.7813 44.3994 86.7818 44.4814 86.7508 44.5562L84.9624 48.8945C84.9263 48.9832 84.8514 49.0472 84.7616 49.0714ZM86.549 84.7378C86.5082 84.7378 86.47 84.7136 86.4535 84.6739L84.6481 80.3422C84.6259 80.2896 84.6512 80.2288 84.7038 80.2066C84.7565 80.1844 84.8174 80.2097 84.8396 80.2623L86.645 84.5939C86.6672 84.6465 86.6419 84.7074 86.5892 84.7296C86.5758 84.7352 86.5624 84.7378 86.549 84.7378Z" fill="#D5033E"/>
<path d="M86.6271 84.9268C86.6019 84.9335 86.5755 84.9371 86.5492 84.9371H86.5487C86.4259 84.9371 86.3164 84.8639 86.269 84.751L84.4635 80.4193C84.4326 80.3446 84.4321 80.2626 84.463 80.1878C84.494 80.113 84.5518 80.0547 84.6266 80.0238C84.7015 79.9928 84.7835 79.9923 84.8584 80.0233C84.9332 80.0542 84.9915 80.112 85.0225 80.1868L86.8279 84.5184C86.8919 84.6726 86.8191 84.85 86.6648 84.9145C86.653 84.9186 86.6401 84.9232 86.6271 84.9268ZM71.615 48.9077C71.5742 48.9077 71.536 48.8834 71.5195 48.8437L69.7141 44.5121C69.6919 44.4595 69.7172 44.3986 69.7699 44.3765C69.8225 44.3543 69.8834 44.3796 69.9056 44.4322L71.711 48.7638C71.7332 48.8164 71.7079 48.8772 71.6553 48.8994C71.6419 48.9051 71.6284 48.9077 71.615 48.9077Z" fill="#D5033E"/>
<path d="M71.6941 49.0967C71.6688 49.1034 71.6425 49.107 71.6162 49.107C71.4933 49.107 71.3834 49.0338 71.3364 48.9209L69.531 44.5892C69.467 44.435 69.5398 44.2576 69.6941 44.1931C69.7689 44.1622 69.851 44.1617 69.9258 44.1926C70.0007 44.2236 70.059 44.2813 70.09 44.3561L71.8954 48.6877C71.9594 48.8419 71.8861 49.0194 71.7323 49.0838C71.7199 49.089 71.707 49.0931 71.6941 49.0967ZM58.0838 73.0204C58.043 73.0204 58.0048 72.9962 57.9883 72.9565C57.9661 72.9039 57.9914 72.843 58.044 72.8208L62.379 71.0168C62.4316 70.9946 62.4925 71.0199 62.5147 71.0725C62.5369 71.1251 62.5116 71.186 62.459 71.2082L58.124 73.0122C58.1106 73.0179 58.0972 73.0204 58.0838 73.0204Z" fill="#D5033E"/>
<path d="M58.1619 73.209C58.1366 73.2157 58.1103 73.2193 58.084 73.2193C57.9611 73.2193 57.8512 73.1461 57.8042 73.0332C57.7402 72.879 57.813 72.7015 57.9673 72.6371L62.3023 70.8331C62.3771 70.8021 62.4592 70.8016 62.534 70.8325C62.6089 70.8635 62.6672 70.9212 62.6982 70.996C62.7622 71.1502 62.6894 71.3276 62.5351 71.3921L58.2001 73.1961C58.1877 73.2013 58.1748 73.2054 58.1619 73.209ZM93.9415 58.0976C93.9008 58.0976 93.8626 58.0734 93.8461 58.0337C93.8239 57.981 93.8492 57.9202 93.9018 57.898L98.2368 56.094C98.2894 56.0718 98.3503 56.0971 98.3725 56.1497C98.3947 56.2023 98.3694 56.2631 98.3168 56.2853L93.9818 58.0893C93.9684 58.095 93.9549 58.0976 93.9415 58.0976Z" fill="#D5033E"/>
<path d="M94.0203 58.2871C93.995 58.2938 93.9687 58.2975 93.9419 58.2975C93.819 58.2975 93.7096 58.2242 93.6621 58.1108C93.6311 58.0365 93.6306 57.954 93.6616 57.8792C93.6926 57.8044 93.7504 57.7461 93.8252 57.7152L98.1602 55.9112C98.235 55.8802 98.3171 55.8797 98.3919 55.9106C98.4668 55.9416 98.5251 55.9994 98.5561 56.0741C98.587 56.1489 98.5875 56.2309 98.5566 56.3057C98.5256 56.3805 98.4678 56.4388 98.393 56.4697L94.058 58.2737C94.0461 58.2794 94.0332 58.2835 94.0203 58.2871ZM62.394 58.1587C62.3811 58.1587 62.3677 58.1561 62.3548 58.151L58.0131 56.3635C57.9599 56.3418 57.9351 56.2809 57.9568 56.2283C57.9785 56.1752 58.0394 56.1505 58.092 56.1721L62.4337 57.9597C62.4869 57.9813 62.5117 58.0422 62.49 58.0948C62.4735 58.1345 62.4347 58.1587 62.394 58.1587Z" fill="#D5033E"/>
<path d="M62.4717 58.3472C62.4464 58.3539 62.4201 58.3576 62.3927 58.3576C62.353 58.3576 62.3143 58.3498 62.2771 58.3349L57.9354 56.5479C57.7811 56.4844 57.7068 56.307 57.7708 56.1528C57.8018 56.078 57.8596 56.0197 57.9344 55.9888C58.0092 55.9579 58.0913 55.9573 58.1661 55.9883L62.5078 57.7753C62.6622 57.8387 62.736 58.0161 62.6725 58.1703C62.6363 58.259 62.5615 58.3235 62.4717 58.3472ZM98.3081 72.9424C98.2947 72.9424 98.2818 72.9398 98.2689 72.9347L93.9272 71.1472C93.874 71.1255 93.8493 71.0646 93.8709 71.012C93.8926 70.9589 93.9535 70.9342 94.0061 70.9558L98.3478 72.7434C98.401 72.765 98.4258 72.8259 98.4041 72.8785C98.3876 72.9187 98.3489 72.9424 98.3081 72.9424Z" fill="#D5033E"/>
<path d="M98.3874 73.1319C98.3621 73.1386 98.3358 73.1422 98.3084 73.1422C98.2687 73.1422 98.2299 73.1345 98.1928 73.1196L93.8511 71.3325C93.6968 71.2686 93.623 71.0917 93.6865 70.937C93.7174 70.8622 93.7752 70.8039 93.8501 70.773C93.9249 70.742 94.007 70.7415 94.0818 70.7725L98.4235 72.56C98.4983 72.5909 98.5567 72.6487 98.5876 72.7235C98.6186 72.7983 98.6191 72.8803 98.5881 72.955C98.552 73.0432 98.4772 73.1077 98.3874 73.1319ZM69.8877 84.7704C69.8748 84.7704 69.8614 84.7679 69.8485 84.7627C69.7954 84.741 69.7706 84.6802 69.7923 84.6276L71.5806 80.2892C71.6023 80.2361 71.6632 80.2114 71.7159 80.233C71.769 80.2547 71.7938 80.3156 71.7721 80.3682L69.9837 84.7065C69.9672 84.7462 69.9285 84.7704 69.8877 84.7704Z" fill="#D5033E"/>
<path d="M69.967 84.959C69.9417 84.9658 69.9154 84.9694 69.888 84.9694H69.8875C69.8477 84.9694 69.809 84.9616 69.7724 84.9467C69.6181 84.8832 69.5442 84.7058 69.6077 84.5516L71.3961 80.2133C71.4271 80.1385 71.4849 80.0802 71.5597 80.0493C71.6346 80.0183 71.7166 80.0178 71.7915 80.0488C71.8663 80.0797 71.9246 80.1375 71.9556 80.2123C71.9866 80.287 71.9871 80.369 71.9561 80.4438L70.1677 84.7821C70.1316 84.8708 70.0562 84.9348 69.967 84.959ZM84.6828 48.8826C84.6694 48.8826 84.6565 48.8801 84.6436 48.8749C84.5905 48.8532 84.5657 48.7924 84.5873 48.7398L86.3757 44.4014C86.3974 44.3483 86.4583 44.3236 86.511 44.3452C86.5641 44.3669 86.5889 44.4277 86.5672 44.4804L84.7788 48.8187C84.7623 48.8584 84.7236 48.8826 84.6828 48.8826Z" fill="#D5033E"/>
<path d="M84.7616 49.0714C84.7363 49.0781 84.71 49.0817 84.6827 49.0817C84.6429 49.0817 84.6042 49.074 84.5671 49.059C84.4127 48.9956 84.3389 48.8182 84.4024 48.664L86.1908 44.3257C86.2218 44.2509 86.2796 44.1926 86.3544 44.1617C86.4292 44.1307 86.5113 44.1302 86.5861 44.1611C86.661 44.1921 86.7193 44.2498 86.7503 44.3246C86.7813 44.3994 86.7818 44.4814 86.7508 44.5562L84.9624 48.8945C84.9263 48.9832 84.8514 49.0472 84.7616 49.0714ZM86.549 84.7378C86.5082 84.7378 86.47 84.7136 86.4535 84.6739L84.6481 80.3422C84.6259 80.2896 84.6512 80.2288 84.7038 80.2066C84.7565 80.1844 84.8174 80.2097 84.8396 80.2623L86.645 84.5939C86.6672 84.6465 86.6419 84.7074 86.5892 84.7296C86.5758 84.7352 86.5624 84.7378 86.549 84.7378Z" fill="#D5033E"/>
<path d="M86.6271 84.9268C86.6019 84.9335 86.5755 84.9371 86.5492 84.9371H86.5487C86.4259 84.9371 86.3164 84.8639 86.269 84.751L84.4635 80.4193C84.4326 80.3446 84.4321 80.2626 84.463 80.1878C84.494 80.113 84.5518 80.0547 84.6266 80.0238C84.7015 79.9928 84.7835 79.9923 84.8584 80.0233C84.9332 80.0542 84.9915 80.112 85.0225 80.1868L86.8279 84.5184C86.8919 84.6726 86.8191 84.85 86.6648 84.9145C86.653 84.9186 86.6401 84.9232 86.6271 84.9268ZM71.615 48.9077C71.5742 48.9077 71.536 48.8834 71.5195 48.8437L69.7141 44.5121C69.6919 44.4595 69.7172 44.3986 69.7699 44.3765C69.8225 44.3543 69.8834 44.3796 69.9056 44.4322L71.711 48.7638C71.7332 48.8164 71.7079 48.8772 71.6553 48.8994C71.6419 48.9051 71.6284 48.9077 71.615 48.9077Z" fill="#D5033E"/>
<path d="M71.6941 49.0967C71.6688 49.1034 71.6425 49.107 71.6162 49.107C71.4933 49.107 71.3834 49.0338 71.3364 48.9209L69.531 44.5892C69.467 44.435 69.5398 44.2576 69.6941 44.1931C69.7689 44.1622 69.851 44.1617 69.9258 44.1926C70.0007 44.2236 70.059 44.2813 70.09 44.3561L71.8954 48.6877C71.9594 48.8419 71.8861 49.0194 71.7323 49.0838C71.7199 49.089 71.707 49.0931 71.6941 49.0967ZM58.0838 73.0204C58.043 73.0204 58.0048 72.9962 57.9883 72.9565C57.9661 72.9039 57.9914 72.843 58.044 72.8208L62.379 71.0168C62.4316 70.9946 62.4925 71.0199 62.5147 71.0725C62.5369 71.1251 62.5116 71.186 62.459 71.2082L58.124 73.0122C58.1106 73.0179 58.0972 73.0204 58.0838 73.0204Z" fill="#D5033E"/>
<path d="M58.1619 73.209C58.1366 73.2157 58.1103 73.2193 58.084 73.2193C57.9611 73.2193 57.8512 73.1461 57.8042 73.0332C57.7402 72.879 57.813 72.7015 57.9673 72.6371L62.3023 70.8331C62.3771 70.8021 62.4592 70.8016 62.534 70.8325C62.6089 70.8635 62.6672 70.9212 62.6982 70.996C62.7622 71.1502 62.6894 71.3276 62.5351 71.3921L58.2001 73.1961C58.1877 73.2013 58.1748 73.2054 58.1619 73.209ZM93.9415 58.0976C93.9008 58.0976 93.8626 58.0734 93.8461 58.0337C93.8239 57.981 93.8492 57.9202 93.9018 57.898L98.2368 56.094C98.2894 56.0718 98.3503 56.0971 98.3725 56.1497C98.3947 56.2023 98.3694 56.2631 98.3168 56.2853L93.9818 58.0893C93.9684 58.095 93.9549 58.0976 93.9415 58.0976Z" fill="#D5033E"/>
<path d="M94.0203 58.2871C93.9951 58.2938 93.9687 58.2975 93.9419 58.2975C93.8191 58.2975 93.7096 58.2242 93.6622 58.1108C93.6312 58.0365 93.6307 57.954 93.6616 57.8792C93.6926 57.8044 93.7504 57.7461 93.8253 57.7152L98.1602 55.9112C98.2351 55.8802 98.3171 55.8797 98.392 55.9106C98.4668 55.9416 98.5251 55.9994 98.5561 56.0741C98.5871 56.1489 98.5876 56.2309 98.5566 56.3057C98.5256 56.3805 98.4678 56.4388 98.393 56.4697L94.058 58.2737C94.0462 58.2794 94.0333 58.2835 94.0203 58.2871Z" fill="#D5033E"/>
<path d="M75.8026 69.8802C75.7526 69.8936 75.7005 69.9003 75.6478 69.9003C75.4894 69.9003 75.3371 69.8374 75.2251 69.7254L70.7802 65.284C70.5469 65.0509 70.5469 64.6723 70.7802 64.4392C71.0135 64.2061 71.3923 64.2056 71.6256 64.4392L75.6478 68.4583L84.7327 59.3804C84.966 59.1473 85.3449 59.1473 85.5781 59.3804C85.8114 59.6135 85.8114 59.9921 85.5781 60.2252L76.0705 69.7254C75.9957 69.8002 75.9028 69.8533 75.8026 69.8802Z" fill="white"/>
<path d="M79.0263 90.8006L98.9525 71.2101C104.186 66.0652 111.655 63.1255 119.494 63.1255C121.335 63.1255 122.828 64.2941 122.828 65.7361V92.4273V118.098C122.828 119.54 120.339 121.729 118.498 121.729H107.176L79.0268 94.0539C78.0849 93.1281 78.0849 91.7264 79.0263 90.8006Z" fill="#F43F62"/>
<path d="M77.3336 90.7643L57.4074 71.1737C52.1743 66.0288 44.7049 63.0891 36.8654 63.0891C35.0244 63.0891 33.5317 64.2578 33.5317 65.6997V92.3909V118.375C33.5317 119.817 35.6685 121.728 37.5095 121.728L49.1839 121.693L77.333 94.0175C78.275 93.0917 78.275 91.69 77.3336 90.7643Z" fill="#F43F62"/>
<path d="M122.828 107.38V118.672C122.828 120.36 121.047 121.728 118.85 121.728H37.5095C35.3129 121.728 33.5317 120.359 33.5317 118.672V107.38L75.701 81.5758C76.3875 81.156 77.2092 80.9343 78.0391 80.9121C78.962 80.8868 79.8936 81.1086 80.658 81.5758L122.828 107.38Z" fill="#F43F62"/>
<path d="M86.0762 83.8328L122.827 102.576V107.38L85.4155 84.4821L86.0762 83.8328Z" fill="#D5033E"/>
<path d="M70.2822 83.8328L33.5317 102.576V107.38L70.9434 84.4821L70.2822 83.8328Z" fill="#D5033E"/>
<path d="M133.255 77.3516C137.27 73.34 137.27 66.8359 133.255 62.8244C129.24 58.8128 122.731 58.813 118.716 62.8246C114.702 66.8363 114.702 73.3404 118.717 77.3519C122.731 81.3634 129.24 81.3633 133.255 77.3516Z" fill="#F7D5DE"/>
<path d="M129.942 71.41V69.0887C129.942 66.9067 128.172 65.1377 125.988 65.1377C123.804 65.1377 122.034 66.9067 122.034 69.0887V71.41C122.034 72.6725 121.688 73.1547 121.033 74.2342H130.943C130.288 73.1547 129.942 72.672 129.942 71.41ZM125.988 76.2486C125.164 76.2486 124.495 75.5807 124.495 74.7571H127.48C127.48 75.5807 126.812 76.2486 125.988 76.2486Z" fill="white"/>
<path d="M125.987 63.9272C125.318 63.9272 124.776 64.4693 124.776 65.1377C124.776 65.8061 125.318 66.3481 125.987 66.3481C126.656 66.3481 127.199 65.8061 127.199 65.1377C127.198 64.4693 126.656 63.9272 125.987 63.9272ZM125.987 65.8643C125.585 65.8643 125.259 65.5389 125.259 65.1371C125.259 64.7354 125.585 64.41 125.987 64.41C126.389 64.41 126.715 64.7354 126.715 65.1371C126.715 65.5389 126.389 65.8643 125.987 65.8643Z" fill="white"/>
<path d="M125.987 82.6497C122.629 82.6497 119.472 81.3428 117.098 78.9705C114.723 76.5976 113.416 73.4434 113.416 70.088C113.416 66.7327 114.723 63.578 117.098 61.2056C119.472 58.8327 122.629 57.5264 125.987 57.5264C129.345 57.5264 132.502 58.8332 134.876 61.2056C137.251 63.5785 138.558 66.7327 138.558 70.088C138.558 73.4434 137.25 76.5981 134.876 78.9705C132.502 81.3428 129.345 82.6497 125.987 82.6497ZM125.987 58.5057C122.891 58.5057 119.98 59.7105 117.791 61.8977C115.602 64.0854 114.396 66.9936 114.396 70.087C114.396 73.1809 115.602 76.0891 117.791 78.2763C119.981 80.464 122.891 81.6682 125.987 81.6682C129.083 81.6682 131.994 80.4635 134.183 78.2763C136.372 76.0886 137.578 73.1803 137.578 70.087C137.578 66.9936 136.372 64.0849 134.183 61.8977C131.994 59.7105 129.083 58.5057 125.987 58.5057Z" fill="#F7D5DE"/>
<path d="M121.281 31.4002C121.281 31.2367 121.217 31.0825 121.102 30.967C120.863 30.7282 120.473 30.7282 120.234 30.967L117.02 34.179C116.904 34.2945 116.84 34.4487 116.84 34.6122C116.84 34.7757 116.904 34.9299 117.02 35.0454C117.136 35.1609 117.29 35.2249 117.454 35.2249C117.617 35.2249 117.772 35.1609 117.887 35.0454L121.102 31.8334C121.217 31.7174 121.281 31.5637 121.281 31.4002ZM124.417 38.6024L119.068 37.7994C118.734 37.7489 118.421 37.9804 118.371 38.3141C118.321 38.6483 118.552 38.9608 118.886 39.0109L124.235 39.8138C124.265 39.8185 124.296 39.8205 124.327 39.8205C124.627 39.8205 124.888 39.5962 124.933 39.2986C124.983 38.965 124.752 38.6524 124.417 38.6024ZM113.46 27.6534C113.436 27.4915 113.35 27.3491 113.218 27.2517C113.087 27.1547 112.925 27.1145 112.763 27.1387C112.601 27.163 112.458 27.2491 112.361 27.3806C112.263 27.5121 112.224 27.6741 112.248 27.8355L113.052 33.1805C113.096 33.4781 113.357 33.7024 113.657 33.7024C113.688 33.7024 113.719 33.6999 113.749 33.6957C113.911 33.6715 114.054 33.5854 114.151 33.4539C114.249 33.3223 114.289 33.1604 114.264 32.999L113.46 27.6534Z" fill="#70BC2D"/>
<path d="M34.0777 44.5513L44.7931 49.3476L58.9464 16.2856L17.5781 37.1671L28.3177 41.9737" fill="#70BC2D"/>
<path d="M34.0769 44.5513L58.9456 16.2856L28.3169 41.9737L30.3081 51.5214L34.0769 44.5513Z" fill="#60AD1D"/>
<path d="M30.3086 51.5216L36.8118 45.7759L34.0774 44.5515L30.3086 51.5216Z" fill="#4FBC5E"/>
<path d="M26.897 34.6872C29.6537 34.6872 31.8885 32.4541 31.8885 29.6995C31.8885 26.945 29.6537 24.7119 26.897 24.7119C24.1403 24.7119 21.9055 26.945 21.9055 29.6995C21.9055 32.4541 24.1403 34.6872 26.897 34.6872Z" fill="white"/>
<path d="M26.8975 34.9418C24.0046 34.9418 21.6516 32.5901 21.6516 29.6999C21.6516 26.8097 24.0052 24.458 26.8975 24.458C29.7905 24.458 32.1435 26.8097 32.1435 29.6999C32.1435 32.5901 29.7905 34.9418 26.8975 34.9418ZM26.8975 24.9665C24.2854 24.9665 22.1605 27.0898 22.1605 29.6999C22.1605 32.31 24.2854 34.4333 26.8975 34.4333C29.5097 34.4333 31.6346 32.31 31.6346 29.6999C31.6346 27.0898 29.5097 24.9665 26.8975 24.9665Z" fill="#F7D5DE"/>
<path d="M29.515 32.3154C30.9607 30.8707 30.9607 28.5284 29.5149 27.0837C28.069 25.6391 25.7249 25.6391 24.2792 27.0838C22.8334 28.5285 22.8334 30.8708 24.2793 32.3155C25.7251 33.7601 28.0692 33.7601 29.515 32.3154Z" fill="#F7D5DE"/>
<path d="M26.7964 28.1746H26.784L26.0744 28.5573L25.9675 28.137L26.8594 27.6599H27.3306V31.7393H26.7969V28.1746H26.7964Z" fill="white"/>
</svg>
