<svg width="24" height="24" viewBox="0 0 24 24" fill="none" xmlns="http://www.w3.org/2000/svg">
<path d="M17.9423 14.0385V9.0095C17.9423 8.797 18.0142 8.61892 18.158 8.47525C18.3018 8.33158 18.48 8.25975 18.6925 8.25975C18.9052 8.25975 19.0833 8.33158 19.227 8.47525C19.3705 8.61892 19.4423 8.797 19.4423 9.0095V14.0385C19.4423 14.251 19.3703 14.4291 19.2265 14.5728C19.0827 14.7166 18.9045 14.7885 18.692 14.7885C18.4793 14.7885 18.3013 14.7166 18.1578 14.5728C18.0141 14.4291 17.9423 14.251 17.9423 14.0385ZM4.30775 18.5C3.80258 18.5 3.375 18.325 3.025 17.975C2.675 17.625 2.5 17.1974 2.5 16.6923V5.30775C2.5 4.80258 2.675 4.375 3.025 4.025C3.375 3.675 3.80258 3.5 4.30775 3.5H19.6635C19.876 3.5 20.0541 3.57192 20.1978 3.71575C20.3416 3.85958 20.4135 4.03775 20.4135 4.25025C20.4135 4.46292 20.3416 4.641 20.1978 4.7845C20.0541 4.92817 19.876 5 19.6635 5H4.30775C4.23075 5 4.16025 5.03208 4.09625 5.09625C4.03208 5.16025 4 5.23075 4 5.30775V16.6923C4 16.7692 4.03208 16.8398 4.09625 16.9038C4.16025 16.9679 4.23075 17 4.30775 17H6.10775C6.32025 17 6.49833 17.0719 6.642 17.2158C6.78583 17.3596 6.85775 17.5378 6.85775 17.7503C6.85775 17.9629 6.78583 18.141 6.642 18.2845C6.49833 18.4282 6.32025 18.5 6.10775 18.5H4.30775ZM14.7465 21.5C14.3797 21.5 14.0305 21.4314 13.699 21.2943C13.3677 21.1571 13.0699 20.9569 12.8057 20.6938L8.704 16.5845C8.53983 16.4205 8.45517 16.2154 8.45 15.9692C8.44483 15.7231 8.52433 15.5096 8.6885 15.3287L8.78075 15.2365C8.97558 15.0417 9.20767 14.9138 9.477 14.853C9.74617 14.792 10.0186 14.7968 10.2943 14.8673L12.173 15.348V8.25975C12.173 8.04725 12.2449 7.86908 12.3888 7.72525C12.5326 7.58158 12.7108 7.50975 12.9235 7.50975C13.136 7.50975 13.3141 7.58158 13.4578 7.72525C13.6013 7.86908 13.673 8.04725 13.673 8.25975V16.1538C13.673 16.4486 13.5567 16.6855 13.324 16.8645C13.0913 17.0433 12.8276 17.0942 12.5328 17.0173L10.8287 16.577L13.8652 19.6327C13.9909 19.7584 14.1265 19.851 14.272 19.9105C14.4175 19.9702 14.5762 20 14.748 20H18.577C19.1957 20 19.7253 19.7797 20.166 19.339C20.6067 18.8983 20.827 18.3687 20.827 17.75V14.1635C20.827 13.951 20.8989 13.7728 21.0428 13.629C21.1864 13.4853 21.3646 13.4135 21.5773 13.4135C21.7898 13.4135 21.9678 13.4853 22.1115 13.629C22.255 13.7728 22.3267 13.951 22.3267 14.1635V17.75C22.3267 18.7858 21.9608 19.6698 21.2288 20.402C20.4967 21.134 19.6128 21.5 18.577 21.5H14.7465ZM15.0577 14.0385V7.125C15.0577 6.9125 15.1297 6.73442 15.2735 6.59075C15.4173 6.44692 15.5955 6.375 15.808 6.375C16.0207 6.375 16.1987 6.44692 16.3422 6.59075C16.4859 6.73442 16.5577 6.9125 16.5577 7.125V14.0385C16.5577 14.251 16.4858 14.4291 16.342 14.5728C16.1982 14.7166 16.0199 14.7885 15.8073 14.7885C15.5948 14.7885 15.4167 14.7166 15.273 14.5728C15.1295 14.4291 15.0577 14.251 15.0577 14.0385Z" fill="#D5033E"/>
</svg>
