<svg width="24" height="24" viewBox="0 0 24 24" fill="none" xmlns="http://www.w3.org/2000/svg">
<path d="M12.3573 15C9.1872 15 6.36807 16.5306 4.57327 18.906C4.18698 19.4172 3.99383 19.6728 4.00015 20.0183C4.00503 20.2852 4.17263 20.6219 4.38264 20.7867C4.65446 21 5.03114 21 5.7845 21H18.93C19.6834 21 20.0601 21 20.3319 20.7867C20.5419 20.6219 20.7095 20.2852 20.7144 20.0183C20.7207 19.6728 20.5276 19.4172 20.1413 18.906C18.3465 16.5306 15.5273 15 12.3573 15Z" stroke="#B8B8B8" stroke-width="1.6" stroke-linecap="round" stroke-linejoin="round"/>
<path d="M12.3573 12C14.8426 12 16.8573 9.98528 16.8573 7.5C16.8573 5.01472 14.8426 3 12.3573 3C9.87199 3 7.85727 5.01472 7.85727 7.5C7.85727 9.98528 9.87199 12 12.3573 12Z" stroke="#B8B8B8" stroke-width="1.6" stroke-linecap="round" stroke-linejoin="round"/>
</svg>
