<svg width="24" height="24" viewBox="0 0 24 24" fill="none" xmlns="http://www.w3.org/2000/svg">
<path d="M12 5.15L4.19225 8.273C4.13458 8.29867 4.08817 8.33717 4.053 8.3885C4.01767 8.43983 4 8.4975 4 8.5615V18.6923C4 18.7628 4.03367 18.8317 4.101 18.899C4.16833 18.9663 4.23725 19 4.30775 19H6.5V12.8077C6.5 12.3089 6.67658 11.8829 7.02975 11.5298C7.38308 11.1766 7.80908 11 8.30775 11H15.6923C16.1909 11 16.6169 11.1766 16.9703 11.5298C17.3234 11.8829 17.5 12.3089 17.5 12.8077V19H19.6923C19.7628 19 19.8317 18.9663 19.899 18.899C19.9663 18.8317 20 18.7628 20 18.6923V8.5615C20 8.4975 19.9823 8.43983 19.947 8.3885C19.9118 8.33717 19.8654 8.29867 19.8078 8.273L12 5.15ZM2.5 18.6923V8.5615C2.5 8.18333 2.60292 7.84358 2.80875 7.54225C3.01442 7.24108 3.28975 7.02192 3.63475 6.88475L11.327 3.80975C11.541 3.71608 11.7653 3.66925 12 3.66925C12.2347 3.66925 12.459 3.71608 12.673 3.80975L20.3652 6.88475C20.7102 7.02192 20.9856 7.24108 21.1913 7.54225C21.3971 7.84358 21.5 8.18333 21.5 8.5615V18.6923C21.5 19.1909 21.3234 19.6169 20.9703 19.9703C20.6169 20.3234 20.1909 20.5 19.6923 20.5H16V12.8077C16 12.7179 15.9712 12.6442 15.9135 12.5865C15.8558 12.5288 15.7821 12.5 15.6923 12.5H8.30775C8.21792 12.5 8.14417 12.5288 8.0865 12.5865C8.02883 12.6442 8 12.7179 8 12.8077V20.5H4.30775C3.80908 20.5 3.38308 20.3234 3.02975 19.9703C2.67658 19.6169 2.5 19.1909 2.5 18.6923ZM9.27875 20.5V18.7308H11.048V20.5H9.27875ZM11.1155 17.5V15.7308H12.8845V17.5H11.1155ZM12.952 20.5V18.7308H14.7212V20.5H12.952Z" fill="#D5033E"/>
</svg>
